<svg width="547" height="313" viewBox="0 0 547 313" fill="none" xmlns="http://www.w3.org/2000/svg">
<rect x="178" width="369" height="238" rx="9" fill="white"/>
<rect x="178.5" y="0.5" width="368" height="237" rx="8.5" stroke="black" stroke-opacity="0.33"/>
<circle cx="230" cy="19" r="5" fill="#00CA4E"/>
<circle cx="214" cy="19" r="5" fill="#FFBD44"/>
<circle cx="198" cy="19" r="5" fill="#FF605C"/>
<g clip-path="url(#clip0_168:11)">
<path d="M502.141 175.418C521.819 157.898 528.81 133.954 517.756 121.938C506.702 109.922 481.789 114.384 462.111 131.905C442.433 149.425 435.442 173.369 446.495 185.385C457.549 197.4 482.463 192.938 502.141 175.418Z" fill="#C2E6C8"/>
<path d="M444.887 223.38C442.233 217.987 441.293 211.911 441.755 205.961C442.257 200.049 444.03 194.31 446.956 189.123C449.798 184.117 453.402 179.57 457.645 175.638C462.101 171.438 467.127 167.873 472.414 164.757C477.998 161.466 483.865 158.67 489.8 156.053C490.54 155.727 491.28 155.404 492.022 155.083C492.509 154.872 492.088 154.169 491.604 154.379C485.553 157 479.553 159.763 473.815 163.004C468.333 166.1 463.088 169.643 458.403 173.829C453.988 177.711 450.184 182.219 447.116 187.202C443.976 192.33 441.939 198.038 441.133 203.972C440.359 209.948 440.957 216.162 443.26 221.77C443.541 222.453 443.845 223.127 444.171 223.792C444.404 224.264 445.118 223.851 444.887 223.38Z" fill="#1CA944"/>
<path d="M467.741 166.835C467.467 162.391 467.807 157.931 468.752 153.576C469.693 149.22 471.222 145.006 473.297 141.047C474.464 138.824 475.803 136.693 477.3 134.67C477.614 134.246 476.896 133.839 476.585 134.259C473.895 137.905 471.717 141.891 470.111 146.109C468.502 150.329 467.469 154.74 467.04 159.226C466.798 161.756 466.756 164.3 466.913 166.835C466.945 167.356 467.774 167.36 467.741 166.835H467.741Z" fill="#E6E6E6"/>
<path d="M379.089 160.173C404.702 137.369 413.802 106.203 399.415 90.5633C385.027 74.9233 352.6 80.7313 326.987 103.536C301.373 126.34 292.274 157.505 306.661 173.145C321.049 188.785 353.476 182.977 379.089 160.173Z" fill="#C2E6C8"/>
<path d="M304.568 222.601C301.113 215.581 299.89 207.672 300.492 199.928C301.089 192.233 303.505 184.769 307.261 178.012C310.899 171.468 315.708 165.61 321.173 160.46C326.974 154.993 333.515 150.352 340.398 146.296C347.665 142.013 355.302 138.373 363.027 134.968C363.99 134.543 364.954 134.122 365.92 133.705C366.553 133.43 366.005 132.516 365.375 132.788C357.499 136.2 349.689 139.796 342.22 144.015C335.085 148.045 328.259 152.656 322.16 158.104C316.471 163.187 311.401 169.001 307.47 175.511C303.382 182.185 300.731 189.615 299.682 197.339C298.674 205.117 299.453 213.206 302.451 220.505C302.816 221.395 303.211 222.272 303.636 223.136C303.939 223.751 304.869 223.213 304.568 222.601V222.601Z" fill="#1CA944"/>
<path d="M334.315 149.002C333.959 143.217 334.401 137.411 335.63 131.744C336.856 126.073 338.845 120.588 341.546 115.435C343.066 112.543 344.808 109.768 346.757 107.136C347.166 106.583 346.231 106.053 345.826 106.6C342.324 111.345 339.49 116.533 337.4 122.025C335.305 127.516 333.96 133.258 333.402 139.098C333.087 142.39 333.032 145.701 333.237 149.002C333.279 149.68 334.357 149.685 334.315 149.002L334.315 149.002Z" fill="#1CA944"/>
<path d="M428.979 20.7023L416.943 40.2239L428.953 47.2161L428.979 20.7023Z" fill="#8C8C8C"/>
<path d="M416.983 40.2639L428.953 34.8969L428.938 47.2244L416.983 40.2639Z" fill="#383838"/>
<path d="M428.927 20.7023L440.963 40.2239L428.953 47.2161L428.927 20.7023Z" fill="#333333"/>
<path d="M440.922 40.2639L428.953 34.8969L428.967 47.2244L440.922 40.2639Z" fill="#141414"/>
<path d="M416.983 42.5041L428.938 59.0655V49.4646L416.983 42.5041Z" fill="#8C8C8C"/>
<path d="M440.893 42.5041L428.938 59.0655V49.4646L440.893 42.5041Z" fill="#333333"/>
<path d="M429.049 73.1369C422.583 73.1369 416.142 68.7646 410.911 60.8254C406.311 53.8445 403.454 45.1674 403.454 38.1805C403.454 34.8737 404.116 31.5994 405.402 28.5443C406.688 25.4893 408.574 22.7134 410.95 20.3752C413.327 18.037 416.149 16.1822 419.254 14.9167C422.36 13.6513 425.688 13 429.049 13C432.411 13 435.739 13.6513 438.844 14.9167C441.95 16.1822 444.771 18.037 447.148 20.3752C449.525 22.7134 451.41 25.4893 452.696 28.5443C453.983 31.5994 454.645 34.8737 454.645 38.1805C454.645 45.1674 451.787 53.8445 447.188 60.8254C441.957 68.7646 435.515 73.1369 429.049 73.1369ZM429.049 13.5925C422.423 13.5998 416.07 16.1927 411.385 20.8023C406.699 25.4118 404.063 31.6616 404.056 38.1805C404.056 51.7506 415.253 72.5444 429.049 72.5444C442.846 72.5444 454.043 51.7506 454.043 38.1805C454.035 31.6616 451.399 25.4118 446.714 20.8023C442.028 16.1927 435.676 13.5998 429.049 13.5925Z" fill="#3F3D56"/>
<path d="M431.462 78.4692H426.636C426.411 78.4692 426.188 78.4194 425.985 78.3235C425.782 78.2275 425.603 78.0879 425.462 77.9149C425.321 77.7419 425.221 77.5399 425.17 77.3239C425.119 77.1078 425.118 76.8833 425.167 76.6668L426.098 72.5444H432.001L432.932 76.6668C432.981 76.8833 432.98 77.1078 432.929 77.3239C432.878 77.5399 432.778 77.7419 432.637 77.9149C432.496 78.0879 432.317 78.2275 432.114 78.3235C431.91 78.4194 431.688 78.4692 431.462 78.4692H431.462ZM426.581 73.1369L425.754 76.7952C425.725 76.9251 425.726 77.0599 425.756 77.1895C425.787 77.3191 425.847 77.4403 425.932 77.5441C426.016 77.6479 426.123 77.7317 426.245 77.7893C426.367 77.8469 426.501 77.8767 426.636 77.8767H431.462C431.598 77.8767 431.731 77.8469 431.853 77.7893C431.975 77.7317 432.082 77.6479 432.167 77.5441C432.252 77.4403 432.312 77.3191 432.342 77.1895C432.373 77.0599 432.374 76.9251 432.344 76.7952L431.518 73.1369H426.581Z" fill="#3F3D56"/>
<path d="M417.137 20.3649C413.163 22.7387 410.306 26.5629 409.189 31.0024C408.88 32.2371 408.715 33.5025 408.699 34.774C408.703 34.8892 408.753 34.9983 408.837 35.0784C408.921 35.1585 409.034 35.2032 409.151 35.2032C409.268 35.2032 409.381 35.1585 409.465 35.0784C409.549 34.9983 409.599 34.8892 409.603 34.774C409.694 30.4542 411.515 26.3444 414.668 23.3369C415.552 22.4926 416.534 21.7528 417.593 21.1323C417.692 21.0708 417.763 20.9737 417.791 20.8617C417.818 20.7497 417.801 20.6314 417.742 20.5319C417.683 20.4323 417.586 20.3593 417.474 20.3281C417.361 20.297 417.24 20.3102 417.137 20.3649H417.137Z" fill="#3F3D56"/>
<path d="M424.866 73.6951C430.323 73.4203 436.533 73.2738 440.786 77.2339C442.56 78.8856 443.679 81.0991 443.612 83.5324C443.538 86.1803 442.17 88.6608 440.473 90.65C436.822 94.9324 431.467 97.6099 426.331 99.768C420.873 102.062 415.187 103.853 409.943 106.621C405.338 109.051 401.047 112.331 398.265 116.75C396.897 118.892 395.989 121.287 395.598 123.788C395.239 126.294 395.369 128.845 395.979 131.304C397.203 136.344 400.219 140.799 404.238 144.109C408.305 147.458 413.231 149.689 418.335 151.021C424.395 152.603 430.708 152.961 436.951 152.997C443.399 153.034 449.852 152.724 456.296 153.079C457.863 153.166 459.428 153.293 460.987 153.471C461.564 153.537 461.559 152.648 460.987 152.582C454.55 151.849 448.063 152.017 441.597 152.089C435.258 152.159 428.865 152.138 422.605 151.036C417.207 150.087 411.915 148.308 407.337 145.29C402.952 142.4 399.378 138.347 397.569 133.429C395.803 128.624 395.821 123.308 398.187 118.702C400.555 114.091 404.686 110.603 409.176 108.057C414.356 105.119 420.061 103.281 425.565 101.041C430.763 98.9253 436.08 96.4025 440.073 92.4028C441.922 90.5506 443.506 88.2963 444.184 85.7599C444.515 84.5736 444.595 83.333 444.419 82.1151C444.243 80.8971 443.814 79.7278 443.16 78.6794C441.851 76.7081 439.982 75.1583 437.786 74.2226C435.135 73.0476 432.194 72.7089 429.312 72.6803C427.829 72.6655 426.347 72.7318 424.866 72.8064C424.287 72.8355 424.284 73.7244 424.866 73.6951H424.866Z" fill="#3F3D56"/>
<path d="M397.086 217.922L393.465 218.632L388.962 205.231L394.305 204.184L397.086 217.922Z" fill="#FFB8B8"/>
<path d="M398.708 221.194L387.034 223.481L387.004 223.336C386.886 222.749 386.885 222.145 387.004 221.558C387.122 220.971 387.357 220.412 387.695 219.914C388.033 219.417 388.468 218.989 388.973 218.657C389.479 218.324 390.047 218.092 390.643 217.976L390.644 217.976L397.774 216.579L398.708 221.194Z" fill="#2F2E41"/>
<path d="M431.674 219.961L427.982 219.961L423.817 205.952L429.266 205.952L431.674 219.961Z" fill="#FFB8B8"/>
<path d="M432.615 223.481L420.712 223.481V223.333C420.712 222.734 420.832 222.142 421.064 221.589C421.297 221.035 421.639 220.533 422.069 220.11C422.499 219.687 423.01 219.351 423.572 219.122C424.134 218.893 424.737 218.775 425.345 218.775H425.345L432.616 218.775L432.615 223.481Z" fill="#2F2E41"/>
<path d="M422.861 179.95C423.156 179.586 423.366 179.163 423.477 178.711C423.587 178.259 423.596 177.788 423.502 177.332C423.407 176.876 423.212 176.446 422.931 176.072C422.649 175.698 422.288 175.39 421.872 175.168L414.497 147.105L408.082 149.946L417.349 176.638C417.017 177.35 416.962 178.157 417.194 178.906C417.426 179.655 417.93 180.295 418.61 180.703C419.289 181.111 420.097 181.26 420.881 181.121C421.664 180.983 422.369 180.566 422.861 179.95Z" fill="#FFB8B8"/>
<path d="M416.222 151.808L409.093 153.464C408.89 153.511 408.679 153.515 408.475 153.475C408.27 153.434 408.077 153.351 407.908 153.231C407.74 153.111 407.599 152.956 407.497 152.777C407.394 152.599 407.332 152.401 407.314 152.196L406.695 145.037C406.456 144.015 406.639 142.941 407.203 142.051C407.768 141.161 408.668 140.527 409.707 140.289C410.745 140.051 411.837 140.228 412.744 140.78C413.65 141.333 414.297 142.217 414.541 143.238L417.237 149.891C417.314 150.082 417.348 150.286 417.338 150.491C417.327 150.696 417.272 150.896 417.176 151.078C417.079 151.26 416.944 151.419 416.78 151.545C416.615 151.671 416.425 151.761 416.222 151.808V151.808Z" fill="#1CA944"/>
<path d="M391.901 215.382C391.59 215.382 391.288 215.277 391.047 215.083C390.806 214.89 390.64 214.62 390.578 214.32L386.986 197.358C386.762 196.29 386.756 195.189 386.967 194.118C387.177 193.047 387.601 192.028 388.214 191.119L399.53 174.419V161.904L412.668 158.991L412.725 159.037C419.539 164.511 419.147 171.26 419.105 171.782L432.017 213.027C432.079 213.227 432.093 213.438 432.058 213.643C432.022 213.849 431.938 214.044 431.812 214.211C431.686 214.379 431.522 214.516 431.332 214.61C431.143 214.704 430.934 214.753 430.722 214.753H426.845C426.574 214.754 426.309 214.674 426.084 214.525C425.86 214.375 425.686 214.163 425.587 213.915L411.671 181.218L395.294 194.477C395.163 194.584 395.06 194.72 394.994 194.874C394.927 195.028 394.9 195.195 394.914 195.362L396.424 213.594C396.454 213.94 396.345 214.284 396.121 214.552C395.896 214.82 395.574 214.991 395.223 215.027L392.054 215.374C392.003 215.379 391.952 215.382 391.901 215.382Z" fill="#2F2E41"/>
<path d="M408.694 135.63C412.779 135.63 416.09 132.373 416.09 128.354C416.09 124.336 412.779 121.078 408.694 121.078C404.61 121.078 401.299 124.336 401.299 128.354C401.299 132.373 404.61 135.63 408.694 135.63Z" fill="#FFB8B8"/>
<path d="M400.23 163.292C399.961 163.292 399.697 163.214 399.473 163.066C399.249 162.919 399.075 162.71 398.972 162.465C396.495 156.48 396.536 148.922 397.622 144.432C398.085 142.531 399.211 140.85 400.805 139.682C402.399 138.514 404.358 137.934 406.343 138.041H406.343C407.523 138.103 408.678 138.407 409.733 138.933C410.787 139.459 411.719 140.196 412.468 141.096C413.216 141.997 413.766 143.041 414.081 144.162C414.396 145.283 414.47 146.457 414.298 147.608C413.719 151.469 413.484 156.907 413.409 159.066C413.398 159.354 413.293 159.631 413.108 159.856C412.924 160.08 412.671 160.24 412.387 160.311L400.561 163.251C400.453 163.278 400.342 163.292 400.23 163.292Z" fill="#1CA944"/>
<path d="M400.366 119.855C400.212 119.918 400.053 119.968 399.891 120.006L394.683 133.775L396.991 136.529L393.221 140.499L388.654 136.014C388.285 135.651 388.046 135.181 387.972 134.673C387.897 134.166 387.993 133.648 388.243 133.198L396.402 118.537C396.082 117.99 395.94 117.359 395.993 116.73C396.046 116.101 396.293 115.502 396.7 115.014C397.108 114.526 397.656 114.172 398.273 113.998C398.891 113.825 399.547 113.84 400.155 114.042C400.763 114.244 401.294 114.624 401.678 115.13C402.061 115.637 402.279 116.246 402.302 116.877C402.325 117.508 402.152 118.131 401.806 118.663C401.46 119.195 400.958 119.611 400.366 119.855Z" fill="#FFB8B8"/>
<path d="M391.889 140.104L396.043 134.168C396.161 133.999 396.315 133.858 396.494 133.752C396.673 133.647 396.873 133.581 397.08 133.559C397.287 133.537 397.497 133.559 397.694 133.623C397.892 133.688 398.074 133.794 398.226 133.933L403.57 138.831C404.445 139.431 405.043 140.347 405.232 141.38C405.421 142.413 405.186 143.477 404.579 144.34C403.972 145.202 403.041 145.792 401.992 145.981C400.943 146.17 399.86 145.941 398.982 145.346L392.445 142.195C392.258 142.104 392.092 141.976 391.961 141.817C391.829 141.658 391.733 141.473 391.68 141.275C391.627 141.076 391.619 140.869 391.655 140.667C391.691 140.465 391.771 140.273 391.889 140.104H391.889Z" fill="#1CA944"/>
<path d="M408.269 136.693C407.736 136.112 408.047 135.113 408.54 134.493C409.033 133.873 409.699 133.346 409.894 132.559C410.225 131.219 408.99 129.997 407.757 129.564C406.525 129.131 405.144 129.098 404.059 128.338C402.414 127.187 402.04 124.565 402.985 122.723C403.93 120.881 405.905 119.824 407.866 119.666C409.827 119.508 411.775 120.136 413.57 120.994C415.305 121.824 416.98 122.905 418.199 124.464C419.419 126.023 420.137 128.117 419.784 130.114C419.354 132.552 417.412 134.434 415.254 135.353C413.097 136.271 410.726 136.392 408.405 136.502L408.269 136.693Z" fill="#2F2E41"/>
<path d="M416.503 122.802C418.771 120.593 421.806 119.312 424.996 119.217C428.186 119.123 431.294 120.222 433.693 122.294C437.696 125.75 439.222 131.442 443.424 134.661C447.206 137.56 452.886 137.776 456.885 135.173C455.059 137.272 453.202 139.398 450.864 140.928C448.526 142.459 445.605 143.342 442.878 142.686C439.676 141.916 437.346 139.233 435.537 136.523C433.727 133.812 432.133 130.843 429.51 128.88C427.521 127.401 425.091 126.611 422.599 126.634C421.073 126.653 419.515 126.975 418.041 126.588C416.566 126.201 415.212 124.721 415.703 123.3L416.503 122.802Z" fill="#2F2E41"/>
<path d="M484.872 223.923H278.301C278.221 223.923 278.145 223.892 278.088 223.837C278.032 223.781 278 223.706 278 223.627C278 223.549 278.032 223.473 278.088 223.418C278.145 223.362 278.221 223.331 278.301 223.331H484.872C484.952 223.331 485.029 223.362 485.085 223.418C485.142 223.473 485.173 223.549 485.173 223.627C485.173 223.706 485.142 223.781 485.085 223.837C485.029 223.892 484.952 223.923 484.872 223.923Z" fill="#3F3D56"/>
</g>
<g filter="url(#filter0_d_168:11)">
<rect x="33.3024" y="140" width="241.395" height="160.969" rx="5" fill="white"/>
<rect x="33.8024" y="140.5" width="240.395" height="159.969" rx="4.5" stroke="black" stroke-opacity="0.33"/>
</g>
<rect x="41.8744" y="147.323" width="225.646" height="146.324" fill="#FEF8F0" fill-opacity="0.37" stroke="#DCDCDC" stroke-width="0.4"/>
<g filter="url(#filter1_d_168:11)">
<mask id="path-39-inside-1_168:11" fill="white">
<path fill-rule="evenodd" clip-rule="evenodd" d="M118.543 303.793C116.074 303.49 113.814 300.969 111.326 300.969H5C4.44772 300.969 4 301.416 4 301.969V305.667C4 306.219 4.44771 306.667 5 306.667H303C303.552 306.667 304 306.219 304 305.667V301.969C304 301.416 303.552 300.969 303 300.969H198.07C195.582 300.969 193.321 303.49 190.852 303.793C190.718 303.809 190.582 303.818 190.444 303.818H118.952C118.813 303.818 118.677 303.809 118.543 303.793Z"/>
</mask>
<path fill-rule="evenodd" clip-rule="evenodd" d="M118.543 303.793C116.074 303.49 113.814 300.969 111.326 300.969H5C4.44772 300.969 4 301.416 4 301.969V305.667C4 306.219 4.44771 306.667 5 306.667H303C303.552 306.667 304 306.219 304 305.667V301.969C304 301.416 303.552 300.969 303 300.969H198.07C195.582 300.969 193.321 303.49 190.852 303.793C190.718 303.809 190.582 303.818 190.444 303.818H118.952C118.813 303.818 118.677 303.809 118.543 303.793Z" fill="#F4F2F2"/>
<path d="M118.543 303.793L118.519 303.991L118.543 303.793ZM5 301.169H111.326V300.769H5V301.169ZM4.2 301.969C4.2 301.527 4.55817 301.169 5 301.169V300.769C4.33726 300.769 3.8 301.306 3.8 301.969H4.2ZM4.2 305.667V301.969H3.8V305.667H4.2ZM5 306.467C4.55817 306.467 4.2 306.109 4.2 305.667H3.8C3.8 306.329 4.33726 306.867 5 306.867V306.467ZM303 306.467H5V306.867H303V306.467ZM303.8 305.667C303.8 306.109 303.442 306.467 303 306.467V306.867C303.663 306.867 304.2 306.329 304.2 305.667H303.8ZM303.8 301.969V305.667H304.2V301.969H303.8ZM303 301.169C303.442 301.169 303.8 301.527 303.8 301.969H304.2C304.2 301.306 303.663 300.769 303 300.769V301.169ZM198.07 301.169H303V300.769H198.07V301.169ZM190.828 303.594C190.702 303.61 190.574 303.618 190.444 303.618V304.018C190.59 304.018 190.734 304.009 190.876 303.991L190.828 303.594ZM190.444 303.618H118.952V304.018H190.444V303.618ZM118.952 303.618C118.822 303.618 118.693 303.61 118.568 303.594L118.519 303.991C118.661 304.009 118.805 304.018 118.952 304.018V303.618ZM198.07 300.769C196.765 300.769 195.533 301.429 194.356 302.093C193.157 302.769 192.014 303.449 190.828 303.594L190.876 303.991C192.159 303.834 193.381 303.102 194.552 302.442C195.744 301.769 196.886 301.169 198.07 301.169V300.769ZM111.326 301.169C112.509 301.169 113.651 301.769 114.843 302.442C116.014 303.102 117.236 303.834 118.519 303.991L118.568 303.594C117.381 303.449 116.238 302.769 115.04 302.093C113.862 301.429 112.63 300.769 111.326 300.769V301.169Z" fill="black" fill-opacity="0.33" mask="url(#path-39-inside-1_168:11)"/>
</g>
<ellipse cx="154.698" cy="144.273" rx="1.39535" ry="1.4245" fill="#DEDBDB"/>
<path opacity="0.1" d="M119.613 288.939C129.957 288.939 138.342 287.703 138.342 286.179C138.342 284.655 129.957 283.42 119.613 283.42C109.27 283.42 100.884 284.655 100.884 286.179C100.884 287.703 109.27 288.939 119.613 288.939Z" fill="#1CA944"/>
<path opacity="0.1" d="M221.42 289.017C234.327 289.017 244.79 287.781 244.79 286.257C244.79 284.733 234.327 283.498 221.42 283.498C208.512 283.498 198.049 284.733 198.049 286.257C198.049 287.781 208.512 289.017 221.42 289.017Z" fill="#1CA944"/>
<path opacity="0.1" d="M51.6602 210.633H71.1673V235.024H53.0883C53.0402 235.274 52.9941 235.527 52.9441 235.779H71.1673V255.45C71.1346 255.441 71.1058 255.43 71.075 255.42C70.5599 255.233 70.0486 255.035 69.5374 254.824L69.2106 254.688C68.6981 254.466 68.1855 254.231 67.673 253.983C67.4942 253.896 67.3154 253.806 67.1386 253.715C64.2931 252.252 61.7082 250.399 59.4734 248.22C59.408 248.162 59.3465 248.1 59.2812 248.044C58.9698 247.734 58.6642 247.42 58.3682 247.099L58.0414 246.746C57.6916 246.353 57.3533 245.949 57.0247 245.54C56.9766 245.48 56.9305 245.42 56.8805 245.364C55.5438 243.664 54.4339 241.823 53.5746 239.88C53.5476 239.822 53.5246 239.758 53.4996 239.704C53.2356 239.081 53.0018 238.452 52.798 237.817C52.7096 237.551 52.625 237.288 52.552 237.011C52.5251 236.93 52.502 236.851 52.4809 236.771C51.3892 232.862 51.2604 228.802 51.2604 224.769C51.2604 224.298 51.2604 223.826 51.2604 223.358C51.2604 221.727 51.2815 220.086 51.3123 218.446C51.3123 218.021 51.3315 217.598 51.3411 217.171C51.368 216.089 51.4065 215.006 51.4564 213.923C51.468 213.622 51.4833 213.322 51.5006 213.022C51.5006 212.849 51.5102 212.677 51.5295 212.504C51.5756 211.876 51.614 211.254 51.6602 210.633Z" fill="#1CA944"/>
<path opacity="0.1" d="M71.1672 183.476H60.467C62.2064 180.978 64.1069 178.578 66.1583 176.289C67.7479 174.497 69.4258 172.751 71.1672 171.069V183.476Z" fill="#1CA944"/>
<path opacity="0.1" d="M71.1672 184.23V209.878H51.7216C51.7216 209.804 51.7351 209.729 51.7408 209.654C51.7581 209.452 51.7754 209.249 51.7947 209.048C51.8158 208.812 51.8389 208.574 51.8639 208.343C51.8888 208.112 51.9157 207.83 51.9446 207.574C51.9734 207.318 52.0003 207.059 52.033 206.803C52.0657 206.548 52.0945 206.292 52.1291 206.038C52.1637 205.784 52.1944 205.527 52.231 205.273C52.2598 205.061 52.2906 204.851 52.3213 204.64C52.3655 204.342 52.4116 204.042 52.4616 203.746C52.4616 203.702 52.4751 203.656 52.4828 203.614C52.8336 201.445 53.3116 199.295 53.9147 197.174C54.546 194.949 55.3522 192.769 56.3269 190.65C57.3628 188.434 58.5758 186.291 59.9558 184.239L71.1672 184.23Z" fill="#1CA944"/>
<path opacity="0.1" d="M75.8244 210.631V235.024H117.489V210.631H75.8244ZM75.8244 235.777V256.724C76.0627 256.77 76.2992 256.814 76.5336 256.851C76.8527 256.908 77.1699 256.959 77.4947 257.003C77.5562 257.012 77.6196 257.021 77.6869 257.026C77.8137 257.045 77.9444 257.061 78.0713 257.077C78.3923 257.118 78.7114 257.151 79.0323 257.178C79.1842 257.192 79.338 257.204 79.4917 257.215L79.8627 257.241C80.0645 257.255 80.2644 257.266 80.4624 257.271C80.5854 257.271 80.7084 257.282 80.8352 257.285C80.9313 257.285 81.0275 257.285 81.1274 257.285C81.2273 257.285 81.3696 257.285 81.4907 257.285C81.656 257.285 81.8213 257.285 81.9846 257.285H82.2057C82.371 257.285 82.5363 257.285 82.6997 257.271H82.7112C82.8246 257.271 82.9399 257.271 83.0552 257.257C83.0872 257.259 83.1193 257.259 83.1513 257.257C83.2474 257.257 83.3435 257.257 83.4358 257.245H83.5031L84.147 257.199C84.3584 257.181 84.5718 257.158 84.787 257.137L85.2253 257.089C87.0081 256.86 88.7712 256.516 90.5014 256.06C94.3878 255.065 98.1896 253.674 102.074 252.655C107.097 251.341 112.646 250.696 117.499 252.302V235.777H75.8244ZM117.489 183.476V151.002C112.928 150.957 108.378 151.446 103.952 152.458C93.4018 154.89 83.9356 160.164 75.8244 166.899V183.474H77.9156V184.227H75.8244V209.878H117.489V184.229H86.5015V183.476H117.489ZM171.005 172.506C168.395 172.422 165.8 171.664 163.454 170.493C158.966 168.253 155.381 164.796 151.375 161.878C143.053 155.8 132.731 152.132 122.143 151.222V183.476H181.621L181.769 183.333L171.005 172.506ZM176.424 171.625L182.169 177.408V170.108C180.245 170.327 178.559 170.847 176.431 171.618L176.424 171.625ZM182.169 261.926V235.777H169.927C169.895 235.666 169.862 235.553 169.823 235.44C169.86 235.553 169.891 235.666 169.925 235.777H122.15V254.688C122.604 254.996 123.052 255.321 123.496 255.651C123.974 256.003 124.447 256.375 124.922 256.74L125.4 257.104C125.629 257.28 125.86 257.456 126.092 257.622C126.554 257.965 127.019 258.304 127.49 258.638C127.722 258.814 127.961 258.973 128.197 259.138C131.95 261.771 135.91 264.146 140.043 266.246C140.969 266.716 141.904 267.175 142.847 267.623C143.476 267.918 144.108 268.21 144.742 268.494C145.696 268.921 146.657 269.332 147.625 269.728C156.557 273.406 166.001 275.93 175.688 277.228C177.839 277.519 179.999 277.748 182.167 277.915V261.924H182.359L182.169 261.926ZM122.15 184.229V209.878H182.177V184.229H122.15ZM122.15 210.631V235.024H182.177V210.631H122.15ZM186.836 170.077V178.219L194.168 170.838C191.739 170.479 189.295 170.222 186.836 170.068V170.077ZM186.836 210.64V235.024H245.219V210.631L186.836 210.64ZM245.005 263.862L245.211 235.777H186.836V278.196C190.596 278.34 194.363 278.299 198.118 278.072H198.184C199.978 277.969 201.763 277.818 203.54 277.621H203.581C213.062 276.608 222.334 274.339 231.105 270.883L245.005 263.862ZM256.476 214.648C256.257 214.174 256.028 213.703 255.796 213.237C255.361 212.356 254.902 211.499 254.429 210.642H249.874V235.024H261.391C261.385 228.119 259.48 221.066 256.482 214.639L256.476 214.648ZM249.874 235.786V259.942C253.118 257.089 255.859 253.826 257.833 250.095C260.207 245.602 261.293 240.737 261.381 235.782L249.874 235.786ZM249.874 203.533V209.88H254.003C252.754 207.695 251.377 205.573 249.88 203.524L249.874 203.533ZM210.279 174.862C209.975 174.756 209.672 174.649 209.366 174.545C206.143 173.453 202.849 172.545 199.504 171.826L188.283 183.123L188.068 183.333L188.212 183.477H228.149C222.587 179.965 216.59 177.07 210.285 174.853L210.279 174.862ZM229.319 184.237H187.654L186.836 184.925V209.878H194.013H194.024H245.226V197.791C240.595 192.653 235.249 188.093 229.325 184.229L229.319 184.237Z" fill="#1CA944"/>
<path opacity="0.1" d="M71.1672 197.167V209.878H51.7216C51.7216 209.804 51.7351 209.729 51.7408 209.654C51.7581 209.452 51.7754 209.249 51.7947 209.048C51.8158 208.812 51.8389 208.574 51.8639 208.343C51.8888 208.112 51.9157 207.83 51.9446 207.574C51.9734 207.318 52.0003 207.059 52.033 206.803C52.0657 206.548 52.0945 206.292 52.1291 206.038C52.1637 205.784 52.1944 205.527 52.231 205.273C52.2598 205.061 52.2906 204.851 52.3213 204.64C52.3655 204.342 52.4116 204.042 52.4616 203.746C52.4616 203.702 52.4751 203.656 52.4828 203.614C52.8336 201.445 53.3116 199.295 53.9147 197.174L71.1672 197.167Z" fill="#1CA944"/>
<path opacity="0.1" d="M51.6602 210.633H71.1673V235.024H53.0883C53.0402 235.274 52.9941 235.527 52.9441 235.779H71.1673V255.45C71.1346 255.441 71.1058 255.43 71.075 255.42C70.5599 255.233 70.0486 255.035 69.5374 254.824L69.2106 254.688C68.6981 254.466 68.1855 254.231 67.673 253.983C67.4942 253.896 67.3154 253.806 67.1386 253.715C64.2931 252.252 61.7082 250.399 59.4734 248.22C59.408 248.162 59.3465 248.1 59.2812 248.044C58.9698 247.734 58.6642 247.42 58.3682 247.099L58.0414 246.746C57.6916 246.353 57.3533 245.949 57.0247 245.54C56.9766 245.48 56.9305 245.42 56.8805 245.364C55.5438 243.664 54.4339 241.823 53.5746 239.88C53.5476 239.822 53.5246 239.758 53.4996 239.704C53.2356 239.081 53.0018 238.452 52.798 237.817C52.7096 237.551 52.625 237.288 52.552 237.011C52.5251 236.93 52.502 236.851 52.4809 236.771C51.3892 232.862 51.2604 228.802 51.2604 224.769C51.2604 224.298 51.2604 223.826 51.2604 223.358C51.2604 221.727 51.2815 220.086 51.3123 218.446C51.3123 218.021 51.3315 217.598 51.3411 217.171C51.368 216.089 51.4065 215.006 51.4564 213.923C51.468 213.622 51.4833 213.322 51.5006 213.022C51.5006 212.849 51.5102 212.677 51.5295 212.504C51.5756 211.876 51.614 211.254 51.6602 210.633Z" fill="#1CA944"/>
<path opacity="0.1" d="M90.4917 187.901V209.878H75.8244V187.901H77.9156V180.46H86.4996V187.901H90.4917Z" fill="#1CA944"/>
<path opacity="0.1" d="M90.4917 210.631H75.8263V235.022H90.4917V210.631Z" fill="#1CA944"/>
<path opacity="0.1" d="M75.8244 235.779H90.4917V256.056C88.7616 256.512 86.9985 256.856 85.2156 257.084L84.7774 257.133C84.5621 257.156 84.3488 257.176 84.1374 257.195C83.9259 257.215 83.7068 257.229 83.4935 257.241H83.4262C83.3339 257.241 83.234 257.252 83.1437 257.253H83.0456C82.9303 257.253 82.815 257.264 82.6997 257.267C82.5363 257.276 82.3729 257.278 82.2057 257.28C82.1346 257.28 82.0673 257.28 81.9962 257.28C81.8309 257.28 81.6675 257.28 81.5022 257.28H81.1389C81.0409 257.28 80.9467 257.28 80.8449 257.28L80.4739 257.267C80.2817 257.267 80.0741 257.248 79.8742 257.236L79.5052 257.211L79.0458 257.172C78.7229 257.146 78.4019 257.112 78.0848 257.072L77.7003 257.022L77.5081 256.998C77.1871 256.952 76.87 256.902 76.5471 256.846C76.3107 256.809 76.0762 256.763 75.8379 256.719L75.8244 235.779Z" fill="#1CA944"/>
<path opacity="0.1" d="M182.177 185.306H170.083V209.877H182.177V185.306Z" fill="#1CA944"/>
<path opacity="0.1" d="M182.178 210.631V235.024H122.15V224.503H154.124V230.709H170.083V210.631H182.178Z" fill="#1CA944"/>
<path opacity="0.1" d="M182.369 261.931H182.177V277.933C180.011 277.765 177.852 277.536 175.699 277.247C166.007 275.945 156.559 273.416 147.625 269.732C145.046 268.667 142.519 267.504 140.045 266.244C135.912 264.144 131.952 261.768 128.197 259.137C127.254 258.474 126.323 257.795 125.404 257.102C124.768 256.62 124.136 256.127 123.496 255.647C123.052 255.317 122.604 254.993 122.15 254.683V235.779H169.923C169.891 235.666 169.858 235.553 169.823 235.442C169.86 235.553 169.895 235.666 169.927 235.779H182.177V261.921C182.242 261.922 182.305 261.928 182.369 261.931Z" fill="#1CA944"/>
<path opacity="0.1" d="M213.718 183.476H205.837V181.229H209.37V174.538C209.676 174.64 209.981 174.745 210.285 174.853V181.229H213.718V183.476Z" fill="#1CA944"/>
<path opacity="0.1" d="M232.704 209.878H194.016C194.016 209.878 194.016 209.878 194.03 209.887L194.013 209.878H186.836V185.308H188.869V203.469H198.162V192.713H205.839V184.23H213.72V192.72H221.396V203.476H232.704V209.878Z" fill="#1CA944"/>
<path opacity="0.1" d="M186.836 210.631V235.024H232.704V210.631H186.836ZM245.155 263.737L245.219 244.429H232.704V235.789H186.836V278.196C190.596 278.34 194.362 278.299 198.118 278.072H198.183C199.977 277.969 201.763 277.818 203.54 277.621H203.581C213.062 276.608 222.334 274.339 231.105 270.883" fill="#1CA944"/>
<path opacity="0.1" d="M250.689 235.779H261.389C261.295 240.732 260.211 245.597 257.839 250.089C255.865 253.822 253.122 257.086 249.882 259.937V244.42H250.689V235.779Z" fill="#1CA944"/>
<path opacity="0.1" d="M261.395 235.024H250.689V214.639H256.482C259.48 221.066 261.385 228.119 261.395 235.024Z" fill="#1CA944"/>
<path opacity="0.1" d="M182.179 192.137H175.699V199.84H182.179V192.137Z" fill="#1CA944"/>
<path opacity="0.1" d="M182.179 208.105H175.699V209.878H182.179V208.105Z" fill="#1CA944"/>
<path opacity="0.1" d="M182.179 210.631H175.699V215.806H182.179V210.631Z" fill="#1CA944"/>
<path opacity="0.1" d="M182.179 224.073H175.699V231.776H182.179V224.073Z" fill="#1CA944"/>
<path opacity="0.1" d="M182.179 240.041H175.699V247.744H182.179V240.041Z" fill="#1CA944"/>
<path opacity="0.1" d="M182.177 261.921C182.242 261.921 182.305 261.921 182.369 261.931H182.177V263.721H175.699V256.009H182.177V261.921Z" fill="#1CA944"/>
<path opacity="0.1" d="M182.177 271.973V277.924C180.011 277.756 177.852 277.527 175.699 277.238V271.973H182.177Z" fill="#1CA944"/>
<path opacity="0.1" d="M149.918 234.458H122.15V235.024H149.918V234.458Z" fill="#1CA944"/>
<path opacity="0.1" d="M149.918 235.777H122.15V237.946H149.918V235.777Z" fill="#1CA944"/>
<path opacity="0.1" d="M149.918 245.055H122.15V248.543H149.918V245.055Z" fill="#1CA944"/>
<path opacity="0.1" d="M149.916 255.652V259.14H128.197C127.254 258.479 126.322 257.801 125.402 257.105C124.766 256.624 124.136 256.13 123.494 255.652H149.916Z" fill="#1CA944"/>
<path opacity="0.1" d="M149.917 266.248V269.732H147.624C145.047 268.666 142.52 267.503 140.045 266.242L149.917 266.248Z" fill="#1CA944"/>
<path opacity="0.1" d="M203.587 212.996H198.12V218.011H203.587V212.996Z" fill="#1CA944"/>
<path opacity="0.1" d="M85.2291 189.631H79.7628V194.646H85.2291V189.631Z" fill="#1CA944"/>
<path opacity="0.1" d="M85.2291 201.279H79.7628V206.294H85.2291V201.279Z" fill="#1CA944"/>
<path opacity="0.1" d="M85.2291 212.927H79.7628V217.942H85.2291V212.927Z" fill="#1CA944"/>
<path opacity="0.1" d="M85.2291 224.573H79.7628V229.588H85.2291V224.573Z" fill="#1CA944"/>
<path opacity="0.1" d="M85.2291 236.221H79.7628V241.236H85.2291V236.221Z" fill="#1CA944"/>
<path opacity="0.1" d="M85.2291 247.869H79.7628V252.884H85.2291V247.869Z" fill="#1CA944"/>
<path opacity="0.1" d="M224.455 212.996H218.988V218.011H224.455V212.996Z" fill="#1CA944"/>
<path opacity="0.1" d="M203.587 225.365H198.12V230.38H203.587V225.365Z" fill="#1CA944"/>
<path opacity="0.1" d="M224.455 225.365H218.988V230.38H224.455V225.365Z" fill="#1CA944"/>
<path opacity="0.1" d="M203.587 237.732H198.12V242.747H203.587V237.732Z" fill="#1CA944"/>
<path opacity="0.1" d="M224.455 237.732H218.988V242.747H224.455V237.732Z" fill="#1CA944"/>
<path opacity="0.1" d="M203.587 250.102H198.12V255.116H203.587V250.102Z" fill="#1CA944"/>
<path opacity="0.1" d="M224.455 250.102H218.988V255.116H224.455V250.102Z" fill="#1CA944"/>
<path opacity="0.1" d="M203.587 262.471H198.12V267.485H203.587V262.471Z" fill="#1CA944"/>
<path opacity="0.1" d="M224.455 262.471H218.988V267.485H224.455V262.471Z" fill="#1CA944"/>
<path opacity="0.1" d="M198.12 278.072V274.838H203.585V277.612L198.12 278.072Z" fill="#1CA944"/>
<path opacity="0.1" d="M52.4597 203.61V206.479H71.1672V203.61H52.4597ZM54.3241 206.299H52.798V203.786H54.3357L54.3241 206.299ZM56.1866 206.299H54.649V203.786H56.1866V206.299ZM58.0453 206.299H56.5076V203.786H58.0453V206.299ZM59.9077 206.299H58.372V203.786H59.9097L59.9077 206.299ZM61.7683 206.299H60.2307V203.786H61.7683V206.299ZM63.6308 206.299H62.0931V203.786H63.6308V206.299ZM65.4933 206.299H63.9556V203.786H65.4933V206.299ZM67.3539 206.299H65.8162V203.786H67.3539V206.299ZM69.2144 206.299H67.6768V203.786H69.2144V206.299ZM71.075 206.299H69.5373V203.786H71.075V206.299Z" fill="#1CA944"/>
<path opacity="0.1" d="M52.4597 211.957V214.826H71.1672V211.957H52.4597ZM54.3241 214.644H52.798V212.139H54.3357L54.3241 214.644ZM56.1866 214.644H54.649V212.139H56.1866V214.644ZM58.0453 214.644H56.5076V212.139H58.0453V214.644ZM59.9077 214.644H58.372V212.139H59.9097L59.9077 214.644ZM61.7683 214.644H60.2307V212.139H61.7683V214.644ZM63.6308 214.644H62.0931V212.139H63.6308V214.644ZM65.4933 214.644H63.9556V212.139H65.4933V214.644ZM67.3539 214.644H65.8162V212.139H67.3539V214.644ZM69.2144 214.644H67.6768V212.139H69.2144V214.644ZM71.075 214.644H69.5373V212.139H71.075V214.644Z" fill="#1CA944"/>
<path opacity="0.1" d="M52.4597 220.308V223.182H71.1672V220.308H52.4597ZM54.3241 222.995H52.798V220.488H54.3357L54.3241 222.995ZM56.1866 222.995H54.649V220.488H56.1866V222.995ZM58.0453 222.995H56.5076V220.488H58.0453V222.995ZM59.9077 222.995H58.372V220.488H59.9097L59.9077 222.995ZM61.7683 222.995H60.2307V220.488H61.7683V222.995ZM63.6308 222.995H62.0931V220.488H63.6308V222.995ZM65.4933 222.995H63.9556V220.488H65.4933V222.995ZM67.3539 222.995H65.8162V220.488H67.3539V222.995ZM69.2144 222.995H67.6768V220.488H69.2144V222.995ZM71.075 222.995H69.5373V220.488H71.075V222.995Z" fill="#1CA944"/>
<path opacity="0.1" d="M52.4597 228.659V231.524H71.1672V228.659H52.4597ZM54.3241 231.346H52.798V228.837H54.3357L54.3241 231.346ZM56.1866 231.346H54.649V228.837H56.1866V231.346ZM58.0453 231.346H56.5076V228.837H58.0453V231.346ZM59.9077 231.346H58.372V228.837H59.9097L59.9077 231.346ZM61.7683 231.346H60.2307V228.837H61.7683V231.346ZM63.6308 231.346H62.0931V228.837H63.6308V231.346ZM65.4933 231.346H63.9556V228.837H65.4933V231.346ZM67.3539 231.346H65.8162V228.837H67.3539V231.346ZM69.2144 231.346H67.6768V228.837H69.2144V231.346ZM71.075 231.346H69.5373V228.837H71.075V231.346Z" fill="#1CA944"/>
<path opacity="0.1" d="M52.5405 237.008C52.6154 237.277 52.7 237.547 52.7884 237.814V237.188H54.3261V239.695H53.5034C53.5284 239.753 53.5534 239.817 53.5784 239.871H71.1673V237.008H52.5405ZM56.1924 239.695H54.6547V237.188H56.1924V239.695ZM58.051 239.695H56.5134V237.188H58.051V239.695ZM59.9135 239.695H58.372V237.188H59.9097L59.9135 239.695ZM61.7741 239.695H60.2364V237.188H61.7741V239.695ZM63.6366 239.695H62.0989V237.188H63.6366V239.695ZM65.4991 239.695H63.9614V237.188H65.4991V239.695ZM67.3596 239.695H65.822V237.188H67.3596V239.695ZM69.2202 239.695H67.6826V237.188H69.2202V239.695ZM71.0808 239.695H69.5431V237.188H71.0808V239.695Z" fill="#1CA944"/>
<path opacity="0.1" d="M56.8843 245.359C56.9324 245.415 56.9785 245.478 57.0285 245.535H58.0453V246.739C58.1548 246.859 58.2625 246.979 58.3739 247.092V245.528H59.9116V248.044H59.2889C59.3504 248.102 59.4099 248.164 59.4811 248.22H71.173V245.359H56.8843ZM61.7683 248.044H60.2307V245.538H61.7683V248.044ZM63.6308 248.044H62.0932V245.538H63.6308V248.044ZM65.4933 248.044H63.9556V245.538H65.4933V248.044ZM67.3539 248.044H65.8162V245.538H67.3539V248.044ZM69.2144 248.044H67.6768V245.538H69.2144V248.044ZM71.075 248.044H69.5373V245.538H71.075V248.044Z" fill="#1CA944"/>
<path opacity="0.1" d="M67.1462 253.707C67.3211 253.799 67.4999 253.884 67.6806 253.975V253.887H69.2182V254.681L69.545 254.82V253.887H71.0826V255.413C71.1121 255.426 71.1431 255.437 71.1749 255.444V253.707H67.1462Z" fill="#1CA944"/>
<path opacity="0.1" d="M194.017 209.878H194.028H194.017ZM182.177 261.919H182.369H182.177ZM169.823 235.44C169.86 235.553 169.891 235.666 169.925 235.777C169.895 235.666 169.862 235.553 169.823 235.44ZM194.017 209.873H194.028H194.017ZM77.9233 183.47V184.223H86.5092V183.47H77.9233ZM182.177 261.919H182.369H182.177ZM169.823 235.44C169.86 235.553 169.891 235.666 169.925 235.777C169.895 235.666 169.862 235.553 169.823 235.44ZM194.017 209.873H194.028H194.017ZM182.177 261.914H182.369H182.177ZM169.823 235.44C169.86 235.553 169.891 235.666 169.925 235.777C169.895 235.666 169.862 235.553 169.823 235.44Z" fill="#1CA944"/>
<path d="M137.723 217.945C137.723 217.945 136.966 217.848 136.966 216.836C136.966 215.824 136.424 213.934 136.424 213.934C136.424 213.925 135.955 210.642 135.307 210.12C134.659 209.598 133.827 206.533 133.827 206.533C133.827 206.533 133.685 204.871 133.394 204.513C133.104 204.155 132.712 203.279 132.133 202.028C131.555 200.778 129.143 199.912 129.143 199.912C129.143 199.912 124.782 197.592 123.546 196.836C123.433 196.773 123.328 196.701 123.232 196.619C123.017 196.36 122.079 196.354 122.079 196.354C121.981 195.786 121.887 195.134 121.856 194.543C121.856 194.48 121.856 194.416 121.847 194.353C123.225 193.606 124.263 192.427 124.77 191.035C124.793 190.968 124.812 190.897 124.833 190.83C124.916 190.805 124.992 190.765 125.057 190.711C125.121 190.658 125.173 190.592 125.208 190.52C125.32 190.292 125.322 190.026 125.46 189.814C125.621 189.564 125.929 189.43 126.171 189.241C126.782 188.765 126.94 187.963 126.911 187.233C126.892 186.642 126.788 186.046 126.829 185.459L126.84 185.311C126.852 185.223 126.865 185.135 126.882 185.05C126.977 184.613 127.182 184.2 127.298 183.766C127.413 183.333 127.424 182.844 127.155 182.47C126.761 181.922 125.941 181.813 125.22 181.756C124.403 181.693 123.672 181.776 123.15 181.153C122.905 180.828 122.63 180.523 122.327 180.242C122.219 180.15 121.174 179.565 121.174 179.526C120.153 179.092 118.997 179.011 117.916 179.297C117.374 179.441 116.863 179.677 116.313 179.796C115.127 180.053 113.762 179.774 112.755 180.397C112.194 180.749 111.858 181.31 111.542 181.857C111.286 182.307 111.026 182.757 110.762 183.206C110.337 183.945 109.905 184.696 109.726 185.514C109.688 185.692 109.665 185.872 109.657 186.053V186.062C109.657 186.127 109.657 186.193 109.657 186.258V186.341C109.657 186.402 109.657 186.462 109.668 186.517C109.68 186.572 109.678 186.589 109.684 186.626C109.689 186.663 109.699 186.746 109.711 186.803C109.722 186.859 109.745 186.958 109.768 187.035C109.778 187.069 109.791 187.101 109.803 187.132C109.822 187.192 109.845 187.251 109.87 187.309C109.884 187.339 109.897 187.37 109.912 187.4C109.941 187.462 109.976 187.522 110.01 187.577C110.026 187.601 110.037 187.624 110.053 187.647C110.106 187.729 110.165 187.808 110.23 187.884C110.641 188.354 111.246 188.654 111.694 189.095C111.694 189.113 111.694 189.13 111.694 189.146C111.694 189.195 111.694 189.243 111.694 189.292C111.718 190.276 112.003 191.238 112.525 192.097C113.047 192.956 113.79 193.685 114.689 194.221C114.689 194.288 114.698 194.356 114.702 194.423C114.74 194.947 114.733 195.472 114.681 195.995C114.603 195.91 114.505 195.843 114.394 195.797C114.284 195.752 114.164 195.73 114.043 195.734C113.96 195.73 113.878 195.736 113.797 195.753L113.78 195.741V195.757C113.357 195.852 112.836 196.256 112.338 197.403C112.338 197.403 110.823 198.969 109.67 198.904C108.517 198.839 105.597 200.533 105.597 200.533C105.597 200.533 102.749 202.229 102.138 203.957C101.796 204.937 101.386 205.896 100.911 206.828L97.3901 213.484L96.7404 218.765C96.7404 218.765 97.0998 221.114 97.0287 221.472C96.9576 221.83 98.5068 225.058 98.5068 225.058C98.5068 225.058 103.625 233.308 105.716 233.732L105.866 233.635C105.956 233.677 106.051 233.71 106.149 233.732L106.58 233.453C106.605 233.764 106.594 234.076 106.547 234.384C106.259 235.199 106.654 240.515 107.158 241.557C107.662 242.599 107.483 256.262 107.483 256.262L107.412 257.468C107.412 257.468 107.412 257.507 107.429 257.574L107.412 257.86L107.464 257.885C107.518 258.267 107.5 258.655 107.412 259.032C107.231 259.561 107.158 261.057 107.158 261.057C107.158 261.057 105.718 269.499 106.401 271.195C107.083 272.892 107.664 274.75 107.664 274.75C107.664 274.75 108.384 276.866 107.698 277.227C107.012 277.589 105.061 278.195 105.463 279.077C105.828 279.892 107.214 282.075 107.419 282.394L107.402 282.561L107.12 285.37C107.165 285.741 107.275 286.103 107.444 286.442C107.754 287.054 108.356 287.689 109.499 287.62C109.691 287.608 109.914 287.587 110.13 287.56C112.223 287.303 114.8 286.446 114.8 286.446C114.666 286.368 114.544 286.275 114.435 286.169C114.332 286.077 114.251 285.968 114.195 285.846C114.14 285.725 114.113 285.595 114.114 285.464C114.145 284.952 113.101 282.515 112.842 281.916C112.801 281.829 112.78 281.78 112.78 281.78C112.78 281.78 115.16 279.498 114.764 277.476C114.764 277.476 112.13 276.065 112.997 275.291C113.864 274.517 115.413 272.294 115.413 272.294C115.413 272.294 115.484 263.98 115.413 262.739C115.339 261.877 115.384 261.011 115.546 260.159C115.575 260.03 115.609 259.905 115.646 259.782C116.845 259.946 118.055 260.03 119.267 260.034C119.709 260.034 120.159 260.034 120.613 260.009C120.613 260.127 120.618 260.254 120.63 260.39C120.73 262.45 120.916 266.061 121.068 267.403C121.283 269.326 122.473 274.51 122.473 274.51C122.473 274.51 120.203 275.847 122.869 279.141C122.869 279.141 122.869 280.334 122.692 280.507C122.503 281.072 122.351 281.647 122.237 282.228C122.125 282.849 122.079 283.476 122.26 283.803C122.692 284.582 125.287 284.518 125.287 284.518L125.35 284.508C125.84 284.461 126.335 284.505 126.807 284.635C127.278 284.766 127.717 284.981 128.097 285.268C129.083 285.994 132.825 285.675 134.851 285.444C135.645 285.352 136.176 285.268 136.176 285.268C136.201 285.185 136.21 285.099 136.202 285.014C136.181 284.557 135.791 283.556 133.146 282.662C133.146 282.662 130.659 281.128 130.694 279.791H130.642H130.354C130.563 279.781 130.698 279.791 130.698 279.791C130.698 279.791 129.723 276.529 130.121 276.265C130.519 276 129.327 272.386 129.327 272.386C129.327 272.386 128.645 266.32 128.608 265.895C128.61 265.53 128.67 265.168 128.787 264.819L128.608 261.494C128.608 261.494 128.574 260.388 128.608 260.029C128.603 259.716 128.575 259.405 128.526 259.096C128.508 258.972 128.491 258.844 128.472 258.717C129.404 258.5 130.01 258.299 130.01 258.299L129.902 246.723C130.694 245.313 130.84 242.218 130.836 240.023C130.836 238.612 130.767 237.568 130.767 237.568L131.849 235.948C131.849 235.948 132.099 234.008 131.703 233.583C131.528 233.391 131.607 233.192 131.751 233.028C131.826 232.974 131.905 232.924 131.987 232.88C131.987 232.88 131.976 232.864 131.962 232.841C132.038 232.783 132.118 232.731 132.203 232.684C132.203 232.684 131.818 232.138 132.162 231.907C132.485 232.108 132.774 232.259 132.993 232.383C132.977 232.511 132.962 232.585 132.962 232.585L133.054 232.409C133.266 232.518 133.394 232.585 133.394 232.585C133.394 232.585 135.09 229.487 135.053 229.031C135.017 228.574 136.206 226.65 136.206 226.65C136.206 226.65 136.35 225.64 137 225.217C137.65 224.794 137.504 221.727 137.504 221.727C137.504 221.727 137.684 220.13 138.117 219.477C138.549 218.825 137.723 217.945 137.723 217.945ZM105.286 216.586L105.319 217.325C105.126 217.041 104.988 216.836 104.988 216.836L105.286 216.586Z" fill="url(#paint0_linear_168:11)"/>
<path d="M133.487 231.247L133.071 232.869C133.071 232.869 129.746 231.312 129.147 229.334C128.547 227.356 130.15 226.605 130.15 226.605L133.248 227.809L133.487 231.247Z" fill="white"/>
<path opacity="0.1" d="M133.487 231.247L133.071 232.869C133.071 232.869 129.746 231.312 129.147 229.334C128.547 227.356 130.15 226.605 130.15 226.605L133.248 227.809L133.487 231.247Z" fill="black"/>
<path d="M114.825 286.456C114.825 286.456 111.75 287.493 109.636 287.624C108.513 287.692 107.923 287.061 107.619 286.453C107.453 286.115 107.346 285.755 107.302 285.386L107.577 282.591L107.723 281.103L112.215 280.033L112.851 281.817L112.911 281.953C113.166 282.549 114.191 284.973 114.16 285.479C114.159 285.609 114.186 285.737 114.24 285.857C114.294 285.977 114.374 286.085 114.475 286.176C114.578 286.283 114.696 286.377 114.825 286.456Z" fill="white"/>
<path d="M135.832 285.035C135.839 285.12 135.83 285.205 135.805 285.287C135.805 285.287 129.227 286.294 127.882 285.287C127.502 284.993 127.06 284.775 126.584 284.647C126.107 284.519 125.606 284.483 125.114 284.543C125.114 284.543 122.569 284.607 122.144 283.838C121.968 283.515 122.014 282.889 122.123 282.272C122.235 281.694 122.384 281.122 122.569 280.56L122.671 280.486L123.277 280.04L130.365 279.848H130.419C130.384 281.177 132.825 282.702 132.825 282.702C135.418 283.584 135.801 284.58 135.832 285.035Z" fill="white"/>
<path opacity="0.1" d="M135.832 285.035C135.838 285.12 135.829 285.205 135.803 285.287C135.803 285.287 129.227 286.294 127.882 285.287C127.503 284.993 127.061 284.775 126.585 284.647C126.108 284.519 125.608 284.484 125.116 284.543C125.116 284.543 122.569 284.607 122.146 283.838C121.97 283.513 122.014 282.889 122.123 282.272C123.104 282.362 124.651 282.586 125.258 283.12C126.177 283.933 127.734 284.744 128.689 284.808C129.437 284.852 133.91 284.982 135.832 285.035Z" fill="black"/>
<path opacity="0.1" d="M114.825 286.456C114.825 286.456 111.75 287.493 109.636 287.624C108.513 287.692 107.923 287.061 107.621 286.451C108.404 286.693 109.49 286.946 110.06 286.714C110.737 286.439 113.136 286.261 114.481 286.185C114.584 286.288 114.699 286.379 114.825 286.456Z" fill="black"/>
<path d="M119.388 202.905C116.851 202 113.587 199.011 114.402 197.615C114.583 197.263 114.691 196.882 114.72 196.494C114.772 195.966 114.78 195.435 114.743 194.907C114.685 194.041 114.572 193.179 114.402 192.325C114.402 192.325 122.323 192.489 121.862 193.56C121.727 193.873 121.706 194.418 121.743 195.028C121.779 195.638 121.875 196.328 121.975 196.911C122.114 197.712 122.252 198.322 122.252 198.322C122.252 198.322 121.768 198.944 121.483 198.978C121.199 199.011 123.029 204.194 119.388 202.905Z" fill="#CF6F80"/>
<path opacity="0.1" d="M112.905 281.953L112.846 282.013C110.478 279.386 107.614 282.66 107.614 282.66L107.571 282.591L107.717 281.103L112.209 280.033L112.846 281.817L112.905 281.953Z" fill="black"/>
<path opacity="0.1" d="M130.421 280.033C130.421 280.033 128.691 279.999 127.769 280.747C126.846 281.495 122.387 280.909 122.579 280.747C122.636 280.667 122.67 280.574 122.679 280.479L123.284 280.033L130.373 279.841C130.4 279.959 130.421 280.033 130.421 280.033Z" fill="black"/>
<path d="M115.852 259.401C115.723 259.693 115.625 259.996 115.559 260.306C115.399 261.153 115.355 262.015 115.427 262.873C115.498 264.107 115.427 272.379 115.427 272.379C115.427 272.379 113.907 274.584 113.059 275.362C112.211 276.14 114.789 277.536 114.789 277.536C115.173 279.546 112.844 281.817 112.844 281.817C110.476 279.19 107.612 282.466 107.612 282.466C107.612 282.466 106.055 279.998 105.667 279.116C105.278 278.234 107.187 277.624 107.858 277.266C108.529 276.908 107.825 274.798 107.825 274.798C107.825 274.798 107.258 272.948 106.585 271.261C105.913 269.573 107.327 261.173 107.327 261.173C107.327 261.173 107.4 259.681 107.575 259.161C107.663 258.786 107.681 258.399 107.627 258.019C107.616 257.89 107.602 257.782 107.593 257.71C107.583 257.638 107.575 257.604 107.575 257.604L107.602 257.562L108.563 255.919C108.563 255.919 116.313 258.366 115.852 259.401Z" fill="#1CA944"/>
<path d="M130.421 279.839C130.421 279.839 128.691 279.805 127.768 280.544C126.846 281.283 122.387 280.706 122.579 280.544C122.771 280.382 122.756 279.181 122.756 279.181C120.14 275.905 122.371 274.576 122.371 274.576C122.371 274.576 121.203 269.418 120.991 267.505C120.843 266.168 120.661 262.577 120.563 260.526C120.52 259.644 120.495 259.038 120.495 259.038L122.633 258.643L122.908 258.592L128.063 257.643C128.063 257.643 128.205 258.525 128.301 259.246C128.349 259.554 128.376 259.864 128.382 260.175C128.347 260.528 128.382 261.632 128.382 261.632L128.557 264.941C128.442 265.288 128.383 265.649 128.382 266.011C128.416 266.433 129.087 272.467 129.087 272.467C129.087 272.467 130.254 276.067 129.856 276.326C129.458 276.586 130.421 279.839 130.421 279.839Z" fill="#1CA944"/>
<path opacity="0.1" d="M121.862 193.56C121.727 193.873 121.706 194.418 121.743 195.028C120.682 195.614 119.462 195.914 118.224 195.893C116.986 195.872 115.779 195.53 114.743 194.908C114.685 194.042 114.572 193.179 114.402 192.325C114.402 192.325 122.323 192.486 121.862 193.56Z" fill="black"/>
<path d="M124.924 189.663C124.925 190.298 124.816 190.93 124.601 191.534C124.119 192.887 123.132 194.04 121.813 194.79C120.494 195.539 118.929 195.837 117.394 195.631C115.859 195.424 114.453 194.726 113.424 193.661C112.395 192.595 111.811 191.23 111.773 189.807C111.773 189.758 111.773 189.712 111.773 189.663C111.758 188.862 111.917 188.066 112.241 187.322C112.565 186.578 113.047 185.901 113.659 185.33C114.271 184.758 115.001 184.305 115.806 183.995C116.612 183.685 117.476 183.526 118.349 183.526C119.223 183.526 120.087 183.685 120.892 183.995C121.698 184.305 122.428 184.758 123.04 185.33C123.652 185.901 124.134 186.578 124.458 187.322C124.782 188.066 124.941 188.862 124.926 189.663H124.924Z" fill="#CF6F80"/>
<path opacity="0.1" d="M119.388 202.905C116.851 202 113.587 199.012 114.402 197.615C114.583 197.263 114.691 196.882 114.72 196.494L118.193 199.112L120.342 200.729L121.975 196.913C122.114 197.714 122.252 198.324 122.252 198.324C122.252 198.324 121.768 198.946 121.483 198.98C121.199 199.013 123.029 204.194 119.388 202.905Z" fill="black"/>
<path d="M128.37 214.477L125.47 259.175L121.687 259.403L111.892 233.485L113.499 202.714L113.837 196.213L118.193 199.495L120.344 201.112L122.025 197.185L125.153 199.685L128.37 214.477Z" fill="#1CA944"/>
<path opacity="0.1" d="M115.852 259.401C115.723 259.693 115.625 259.996 115.559 260.306C112.807 259.916 110.134 259.15 107.629 258.033L107.577 258.008L107.594 257.724L107.604 257.576L108.565 255.933C108.565 255.933 116.313 258.366 115.852 259.401Z" fill="black"/>
<path opacity="0.1" d="M122.677 260.313C121.973 260.422 121.264 260.497 120.551 260.535C120.509 259.653 120.484 259.047 120.484 259.047L122.621 258.652L122.677 260.313Z" fill="black"/>
<path opacity="0.1" d="M128.289 259.255C126.923 259.581 124.812 259.948 122.923 259.718L122.896 258.6L128.051 257.652C128.051 257.652 128.193 258.525 128.289 259.255Z" fill="black"/>
<path opacity="0.1" d="M122.888 259.923C115.008 261.157 107.79 257.618 107.79 257.618L107.86 256.419C107.86 256.419 108.038 242.826 107.542 241.784C107.047 240.742 106.66 235.458 106.941 234.647C107.221 233.836 105.916 221.673 105.916 221.673L105.705 216.736L97.9667 213.86L101.426 207.244C101.894 206.317 102.296 205.362 102.63 204.388C103.231 202.67 106.024 200.983 106.024 200.983C106.024 200.983 108.888 199.297 110.02 199.361C111.152 199.424 112.636 197.869 112.636 197.869C113.732 195.307 114.723 196.467 114.723 196.467C114.723 196.589 114.723 196.467 114.669 196.846C114.285 199.659 120.885 208.545 120.98 208.702L121.608 222.748L122.244 240.524L122.888 259.923Z" fill="black"/>
<path d="M122.677 259.923C114.796 261.157 107.577 257.618 107.577 257.618L107.648 256.419C107.648 256.419 107.827 242.826 107.329 241.784C106.831 240.742 106.447 235.458 106.729 234.647C107.012 233.836 105.705 221.673 105.705 221.673L105.492 216.736L97.7495 213.849L101.209 207.234C101.676 206.306 102.077 205.352 102.412 204.377C103.012 202.66 105.807 200.972 105.807 200.972C105.807 200.972 108.671 199.287 109.801 199.35C110.931 199.414 112.417 197.858 112.417 197.858C113.514 195.296 114.723 196.457 114.723 196.457C114.723 196.578 114.608 196.633 114.67 196.836C115.515 199.563 120.674 208.535 120.768 208.692L121.404 222.738L122.041 240.513L122.677 259.923Z" fill="white"/>
<path opacity="0.1" d="M120.553 209.092C119.705 208.768 115.215 204.065 115.215 204.065V202.995C115.052 202.642 114.081 202.857 113.293 203.104L113.632 196.603L114.016 196.896C114.858 199.622 120.455 208.935 120.553 209.092Z" fill="black"/>
<path d="M120.766 208.702C119.917 208.378 115.427 203.675 115.427 203.675V202.605C115.263 202.252 114.293 202.468 113.505 202.714L113.845 196.213L114.229 196.506C115.073 199.232 120.672 208.547 120.766 208.702Z" fill="white"/>
<path opacity="0.1" d="M107.79 232.155C107.896 232.155 113.27 231.637 113.27 231.637C113.27 231.637 116.524 237.507 116.311 238.935C116.098 240.363 115.711 241.627 114.402 241.404C113.093 241.18 107.358 241.58 107.358 241.58L107.79 232.155Z" fill="black"/>
<path d="M107.577 231.766C107.683 231.766 113.057 231.247 113.057 231.247C113.057 231.247 116.309 237.119 116.098 238.545C115.886 239.972 115.496 241.238 114.189 241.014C112.882 240.79 107.145 241.19 107.145 241.19L107.577 231.766Z" fill="white"/>
<path d="M111.627 229.01C111.627 229.01 116.559 231.441 116.665 232.183C116.77 232.926 114.154 231.859 113.589 231.73C113.217 231.648 112.839 231.594 112.457 231.568L108.688 231.662L111.627 229.01Z" fill="#CF6F80"/>
<path opacity="0.1" d="M119.177 209.395C119.463 209.395 119.696 209.182 119.696 208.919C119.696 208.656 119.463 208.443 119.177 208.443C118.89 208.443 118.658 208.656 118.658 208.919C118.658 209.182 118.89 209.395 119.177 209.395Z" fill="black"/>
<path d="M119.177 209.201C119.463 209.201 119.696 208.988 119.696 208.725C119.696 208.462 119.463 208.249 119.177 208.249C118.89 208.249 118.658 208.462 118.658 208.725C118.658 208.988 118.89 209.201 119.177 209.201Z" fill="#3F3D56"/>
<path opacity="0.1" d="M120.132 230.004C120.419 230.004 120.651 229.791 120.651 229.528C120.651 229.265 120.419 229.052 120.132 229.052C119.846 229.052 119.613 229.265 119.613 229.528C119.613 229.791 119.846 230.004 120.132 230.004Z" fill="black"/>
<path d="M120.132 229.808C120.419 229.808 120.651 229.595 120.651 229.332C120.651 229.069 120.419 228.856 120.132 228.856C119.846 228.856 119.613 229.069 119.613 229.332C119.613 229.595 119.846 229.808 120.132 229.808Z" fill="#3F3D56"/>
<path opacity="0.1" d="M119.694 219.7C119.98 219.7 120.213 219.487 120.213 219.224C120.213 218.961 119.98 218.748 119.694 218.748C119.407 218.748 119.175 218.961 119.175 219.224C119.175 219.487 119.407 219.7 119.694 219.7Z" fill="black"/>
<path d="M119.694 219.506C119.98 219.506 120.213 219.293 120.213 219.03C120.213 218.767 119.98 218.554 119.694 218.554C119.407 218.554 119.175 218.767 119.175 219.03C119.175 219.293 119.407 219.506 119.694 219.506Z" fill="#3F3D56"/>
<path d="M131.657 231.469C131.657 231.469 132.011 231.956 131.657 232.184C131.303 232.411 131.691 232.961 131.691 232.961C131.691 232.961 130.809 233.435 131.197 233.862C131.586 234.289 131.34 236.216 131.34 236.216L130.279 237.828C130.279 237.828 130.342 238.866 130.346 240.27C130.346 242.46 130.206 245.538 129.429 246.942L129.537 258.458C129.537 258.458 125.821 259.703 122.712 259.323L122.25 240.845C122.25 240.845 122.923 230.366 123.171 228.355C123.316 227.312 123.375 226.26 123.348 225.208C123.348 225.208 123.242 222.062 122.886 220.602C122.886 220.602 122.502 214.278 122.464 212.527C122.446 211.689 122.494 209.245 122.548 206.921C122.608 204.381 122.675 201.984 122.675 201.984L121.973 196.892C121.973 196.892 122.675 196.827 122.886 197.086C122.981 197.167 123.084 197.24 123.194 197.303C124.405 198.054 128.683 200.364 128.683 200.364C128.683 200.364 131.051 201.228 131.618 202.466C132.185 203.704 132.579 204.582 132.854 204.934C133.129 205.287 133.279 206.944 133.279 206.944C133.279 206.944 134.094 209.995 134.73 210.511C135.366 211.028 135.832 214.315 135.832 214.315L130.21 218.37C130.21 218.37 129.716 225.116 129.61 225.377C129.504 225.638 131.657 231.469 131.657 231.469Z" fill="white"/>
<path d="M131.87 231.469C131.87 231.469 132.222 231.956 131.87 232.183C131.518 232.411 131.903 232.961 131.903 232.961C131.903 232.961 131.026 233.441 131.411 233.867C131.795 234.294 131.553 236.221 131.553 236.221L130.492 237.833C130.492 237.833 130.555 238.871 130.561 240.275C130.561 242.465 130.421 245.544 129.644 246.947L129.75 258.463C129.75 258.463 126.029 259.708 122.923 259.329L122.463 240.85C122.463 240.85 123.136 230.371 123.384 228.361C123.529 227.317 123.588 226.265 123.559 225.213C123.559 225.213 123.453 222.068 123.1 220.608C123.1 220.608 122.715 214.283 122.675 212.532C122.658 211.695 122.708 209.251 122.759 206.927C122.819 204.386 122.886 201.99 122.886 201.99L121.96 196.829C121.96 196.829 122.886 196.829 123.1 197.091C123.194 197.173 123.297 197.246 123.407 197.308C124.618 198.059 128.899 200.369 128.899 200.369C128.899 200.369 131.265 201.233 131.832 202.471C132.399 203.709 132.793 204.587 133.069 204.94C133.346 205.292 133.492 206.95 133.492 206.95C133.492 206.95 134.307 210 134.944 210.517C135.58 211.033 136.039 214.313 136.039 214.313L130.417 218.368C130.417 218.368 129.923 225.115 129.815 225.376C129.708 225.637 131.87 231.469 131.87 231.469Z" fill="white"/>
<path opacity="0.1" d="M125.137 203.487L125.645 204.844L122.973 207.313C123.033 204.774 123.1 202.376 123.1 202.376L122.173 197.215C122.173 197.215 123.1 197.215 123.313 197.478C123.407 197.559 123.51 197.632 123.621 197.693L125.893 203.705L125.137 203.487Z" fill="black"/>
<path d="M124.924 203.097L125.433 204.455L122.761 206.923C122.821 204.382 122.888 201.986 122.888 201.986L121.96 196.825C121.96 196.825 122.888 196.825 123.1 197.088C123.194 197.169 123.297 197.242 123.407 197.305L125.681 203.316L124.924 203.097Z" fill="white"/>
<path opacity="0.1" d="M124.924 189.663C124.925 190.298 124.816 190.93 124.601 191.534C124.565 191.539 124.528 191.537 124.492 191.529C124.456 191.521 124.423 191.506 124.393 191.486C124.343 189.899 123.492 188.409 122.444 187.141C122.15 186.759 121.794 186.42 121.387 186.136C120.976 185.853 120.465 185.72 119.953 185.764C119.377 185.836 118.867 186.196 118.285 186.242C117.516 186.3 116.828 185.812 116.065 185.787C115.755 185.79 115.449 185.853 115.167 185.973C114.886 186.093 114.636 186.266 114.433 186.482C114.032 186.917 113.734 187.424 113.559 187.97C113.256 188.798 113.092 189.664 113.07 190.537C113.061 191.031 113.009 191.65 112.509 191.83C112.547 191.467 112.502 191.1 112.377 190.754C112.252 190.408 112.051 190.089 111.785 189.818L111.773 189.807C111.773 189.758 111.773 189.712 111.773 189.663C111.758 188.862 111.917 188.066 112.241 187.322C112.565 186.578 113.047 185.901 113.659 185.33C114.271 184.758 115.001 184.305 115.806 183.995C116.612 183.685 117.476 183.526 118.349 183.526C119.223 183.526 120.087 183.685 120.892 183.995C121.698 184.305 122.428 184.758 123.04 185.33C123.652 185.901 124.134 186.578 124.458 187.322C124.782 188.066 124.941 188.862 124.926 189.663H124.924Z" fill="black"/>
<path d="M121.072 180.083C120.073 179.652 118.937 179.57 117.877 179.854C117.345 179.998 116.843 180.233 116.303 180.351C115.15 180.607 113.805 180.33 112.815 180.949C112.265 181.301 111.934 181.859 111.627 182.4L110.858 183.743C110.439 184.479 110.016 185.226 109.841 186.036C109.666 186.845 109.772 187.751 110.331 188.402C110.739 188.876 111.34 189.174 111.782 189.62C112.047 189.892 112.248 190.21 112.373 190.556C112.497 190.902 112.542 191.268 112.505 191.631C113.007 191.454 113.055 190.834 113.066 190.34C113.088 189.466 113.252 188.601 113.555 187.773C113.73 187.226 114.028 186.719 114.429 186.284C114.632 186.069 114.882 185.896 115.164 185.776C115.445 185.656 115.751 185.593 116.061 185.59C116.83 185.614 117.52 186.101 118.281 186.043C118.858 185.999 119.369 185.637 119.949 185.567C120.461 185.522 120.973 185.655 121.383 185.939C121.79 186.222 122.146 186.561 122.438 186.944C123.488 188.212 124.339 189.698 124.389 191.288C124.607 191.435 124.92 191.244 125.028 191.019C125.135 190.793 125.139 190.528 125.275 190.313C125.433 190.065 125.735 189.932 125.971 189.746C126.571 189.271 126.721 188.473 126.698 187.748C126.675 187.023 126.521 186.288 126.671 185.576C126.761 185.138 126.965 184.729 127.076 184.297C127.188 183.865 127.201 183.38 126.938 183.008C126.554 182.462 125.744 182.354 125.039 182.303C124.238 182.239 123.521 182.321 123.009 181.702C122.769 181.379 122.499 181.075 122.202 180.795C122.1 180.704 121.072 180.122 121.072 180.083Z" fill="#512E4E"/>
<path opacity="0.1" d="M100.181 217.266L98.1723 213.86L97.5361 219.116C97.5361 219.116 97.8898 221.451 97.8187 221.809C97.7476 222.166 99.2679 225.376 99.2679 225.376C99.2679 225.376 104.29 233.582 106.341 234.005L113.27 229.463L111.433 227.322C111.433 227.322 110.797 227.095 110.637 227.322C110.637 227.322 107.225 221.937 106.872 221.548C106.518 221.158 106.587 220.38 106.587 220.38C106.587 220.38 106.057 219.862 106.234 219.375C106.41 218.889 105.209 217.201 105.209 217.201L106.305 216.261L100.181 217.266Z" fill="black"/>
<path d="M98.2781 213.472L97.7477 213.86L97.1115 219.116C97.1115 219.116 97.4651 221.451 97.394 221.808C97.3229 222.166 98.8452 225.376 98.8452 225.376C98.8452 225.376 103.866 233.582 105.916 234.005L112.847 229.463L111.008 227.322C111.008 227.322 110.372 227.095 110.212 227.322C110.212 227.322 106.801 221.937 106.447 221.548C106.093 221.158 106.164 220.38 106.164 220.38C106.164 220.38 105.634 219.862 105.811 219.375C105.988 218.889 104.784 217.201 104.784 217.201L105.88 216.261L98.2781 213.472Z" fill="white"/>
<path opacity="0.1" d="M131.197 234.063C131.582 234.492 131.34 236.415 131.34 236.415L130.279 238.027C130.279 238.027 130.342 239.067 130.346 240.469L128.562 240.98C128.401 241.027 128.23 241.037 128.064 241.01C127.897 240.983 127.74 240.92 127.606 240.827C127.471 240.733 127.363 240.611 127.291 240.471C127.218 240.331 127.183 240.178 127.188 240.023L127.495 230.923L131.657 232.383C131.303 232.608 131.691 233.162 131.691 233.162C131.691 233.162 130.809 233.635 131.197 234.063Z" fill="black"/>
<path d="M131.411 233.867C131.795 234.296 131.553 236.221 131.553 236.221L130.492 237.833C130.492 237.833 130.556 238.872 130.561 240.275L128.745 240.795C128.587 240.84 128.42 240.85 128.257 240.824C128.094 240.797 127.94 240.736 127.809 240.644C127.677 240.552 127.571 240.433 127.5 240.296C127.429 240.159 127.394 240.009 127.399 239.857L127.709 230.729L131.872 232.189C131.517 232.414 131.905 232.966 131.905 232.966C131.905 232.966 131.026 233.441 131.411 233.867Z" fill="white"/>
<path d="M132.789 229.53C132.789 229.53 132.506 231.186 131.799 231.282C131.092 231.379 130.775 233.961 130.069 233.869C129.364 233.777 129.831 231.469 129.856 231.022C129.881 230.574 129.087 228.719 129.681 228.297C130.275 227.876 132.155 228.297 132.155 228.297L132.789 229.53Z" fill="#CF6F80"/>
<path opacity="0.1" d="M134.294 216.78L135.628 214.311C135.628 214.311 136.158 216.193 136.158 217.198C136.158 218.203 136.9 218.301 136.9 218.301C136.9 218.301 137.713 219.183 137.285 219.825C136.856 220.467 136.683 222.064 136.683 222.064C136.683 222.064 136.823 225.113 136.187 225.534C135.551 225.956 135.418 226.962 135.418 226.962C135.418 226.962 134.25 228.876 134.286 229.331C134.323 229.785 132.66 232.866 132.66 232.866C132.66 232.866 133.473 229.038 128.735 227.384C128.735 227.384 128.699 226.084 129.052 225.728C129.406 225.372 129.958 225.21 129.612 223.41C129.266 221.609 129.512 219.458 129.512 219.026C129.512 218.594 130.573 215.9 130.573 215.9L134.294 216.78Z" fill="black"/>
<path d="M134.87 213.959L136.035 214.311C136.035 214.311 136.568 216.193 136.568 217.198C136.568 218.203 137.31 218.301 137.31 218.301C137.31 218.301 138.123 219.183 137.694 219.825C137.265 220.467 137.094 222.064 137.094 222.064C137.094 222.064 137.235 225.113 136.598 225.534C135.962 225.956 135.82 226.962 135.82 226.962C135.82 226.962 134.653 228.876 134.69 229.331C134.726 229.785 133.062 232.866 133.062 232.866C133.062 232.866 133.877 229.038 129.137 227.384C129.137 227.384 129.102 226.084 129.456 225.728C129.81 225.372 130.361 225.21 130.015 223.41C129.669 221.609 129.915 219.458 129.915 219.026C129.915 218.594 130.976 215.9 130.976 215.9L134.87 213.959Z" fill="white"/>
<path opacity="0.1" d="M109.144 277.942C109.144 277.942 111 276.871 112.219 277.649C113.438 278.426 109.144 277.942 109.144 277.942Z" fill="black"/>
<path opacity="0.1" d="M123.571 274.632C123.571 274.632 125.214 274.438 126.594 275.801C127.974 277.164 123.571 274.632 123.571 274.632Z" fill="black"/>
<g opacity="0.1">
<path opacity="0.1" d="M125.975 189.359C125.739 189.546 125.435 189.68 125.277 189.929C125.143 190.142 125.139 190.405 125.031 190.634C124.924 190.863 124.611 191.05 124.393 190.906C124.343 189.319 123.49 187.829 122.442 186.559C122.15 186.176 121.794 185.837 121.387 185.554C120.976 185.271 120.464 185.138 119.951 185.182C119.375 185.255 118.867 185.614 118.285 185.658C117.516 185.718 116.826 185.23 116.063 185.205C115.753 185.208 115.447 185.272 115.166 185.392C114.885 185.512 114.635 185.686 114.433 185.902C114.032 186.336 113.734 186.842 113.559 187.388C113.257 188.217 113.092 189.082 113.07 189.955C113.059 190.447 113.009 191.061 112.513 191.244C112.525 191.375 112.525 191.506 112.513 191.636C113.013 191.459 113.063 190.839 113.074 190.345C113.096 189.472 113.26 188.606 113.562 187.778C113.738 187.231 114.036 186.724 114.437 186.29C114.639 186.074 114.889 185.901 115.17 185.781C115.451 185.661 115.757 185.598 116.067 185.595C116.836 185.62 117.528 186.106 118.289 186.048C118.865 186.004 119.377 185.642 119.955 185.572C120.468 185.528 120.98 185.66 121.391 185.944C121.797 186.227 122.153 186.566 122.446 186.949C123.494 188.217 124.347 189.703 124.397 191.294C124.614 191.44 124.928 191.25 125.035 191.024C125.143 190.798 125.147 190.534 125.281 190.319C125.439 190.07 125.743 189.938 125.979 189.751C126.579 189.277 126.729 188.478 126.706 187.753C126.706 187.73 126.706 187.707 126.706 187.686C126.669 188.314 126.486 188.954 125.975 189.359Z" fill="black"/>
<path opacity="0.1" d="M111.786 189.234C111.344 188.788 110.741 188.49 110.335 188.018C109.994 187.599 109.799 187.096 109.776 186.574C109.715 187.226 109.914 187.877 110.335 188.406C110.741 188.88 111.344 189.178 111.786 189.624C112.211 190.06 112.466 190.613 112.511 191.197C112.541 190.842 112.491 190.485 112.367 190.148C112.242 189.811 112.045 189.5 111.786 189.234Z" fill="black"/>
<path opacity="0.1" d="M127.08 183.911C126.967 184.343 126.765 184.754 126.673 185.189C126.618 185.48 126.598 185.776 126.613 186.071C126.62 185.903 126.64 185.736 126.673 185.57C126.765 185.133 126.967 184.724 127.08 184.292C127.147 184.054 127.168 183.807 127.144 183.562C127.132 183.68 127.111 183.796 127.08 183.911Z" fill="black"/>
</g>
<path opacity="0.1" d="M74.5116 285.111C84.8552 285.111 93.2403 283.875 93.2403 282.351C93.2403 280.827 84.8552 279.592 74.5116 279.592C64.1681 279.592 55.783 280.827 55.783 282.351C55.783 283.875 64.1681 285.111 74.5116 285.111Z" fill="#1CA944"/>
<path d="M75.1152 229.489H73.9101V254.381H75.1152V229.489Z" fill="#535461"/>
<path d="M82.6881 254.305L82.6132 255.427L82.5055 257.014L82.4613 257.673L82.3556 259.26L82.3095 259.919L82.2018 261.506L80.9871 279.504C80.9343 280.278 80.5618 281.005 79.9455 281.536C79.3292 282.068 78.5154 282.363 77.6696 282.364H71.3537C70.5081 282.363 69.6945 282.067 69.0785 281.536C68.4625 281.005 68.0904 280.278 68.0381 279.504L66.8291 261.494L66.7215 259.907L66.6773 259.248L66.5696 257.661L66.5254 257.001L66.4178 255.414L66.3409 254.293C66.3276 254.077 66.3624 253.861 66.4434 253.658C66.5243 253.455 66.6496 253.269 66.8116 253.112C66.9736 252.955 67.1688 252.83 67.3853 252.745C67.6019 252.66 67.8351 252.616 68.0708 252.616H80.989C81.2238 252.618 81.4557 252.664 81.6703 252.751C81.885 252.838 82.0778 252.965 82.2371 253.123C82.3963 253.282 82.5184 253.468 82.596 253.671C82.6736 253.875 82.7049 254.09 82.6881 254.305Z" fill="#3F3D56"/>
<path d="M82.6132 255.427L82.5056 257.008H66.5178L66.4102 255.427H82.6132Z" fill="#9D9CB5"/>
<path d="M82.4614 257.668L82.3557 259.251H66.6696L66.562 257.668H82.4614Z" fill="#9D9CB5"/>
<path d="M82.3095 259.912L82.2038 261.494H66.8214L66.7138 259.912H82.3095Z" fill="#9D9CB5"/>
<path d="M64.5707 238.819C71.5882 243.477 74.5174 250.763 74.5174 250.763C74.5174 250.763 66.0603 250.497 59.0409 245.838C52.0215 241.18 49.098 233.896 49.098 233.896C49.098 233.896 57.5513 234.16 64.5707 238.819Z" fill="#1CA944"/>
<path d="M49.0923 233.896C49.0923 233.896 57.8723 238.365 60.6881 242.067C63.504 245.768 74.5175 250.763 74.5175 250.763" stroke="#535461" stroke-width="2" stroke-miterlimit="10"/>
<path d="M69.1011 229.435C72.9202 231.968 74.5175 235.934 74.5175 235.934C74.5175 235.934 69.9141 235.789 66.093 233.256C62.2719 230.722 60.6785 226.754 60.6785 226.754C60.6785 226.754 65.28 226.899 69.1011 229.435Z" fill="#1CA944"/>
<path d="M60.6785 226.754C60.6785 226.754 65.4568 229.188 66.9887 231.201C68.5206 233.215 74.5175 235.934 74.5175 235.934" stroke="#535461" stroke-width="2" stroke-miterlimit="10"/>
<path d="M80.0626 235.733C75.6745 240.157 74.7462 245.939 74.7462 245.939C74.7462 245.939 80.9333 244.546 85.3176 240.12C89.7018 235.694 90.634 229.914 90.634 229.914C90.634 229.914 84.4507 231.309 80.0626 235.733Z" fill="#1CA944"/>
<path d="M90.6378 229.916C90.6378 229.916 84.9216 234.451 83.4685 237.576C82.0154 240.7 74.7462 245.939 74.7462 245.939" stroke="#535461" stroke-width="2" stroke-miterlimit="10"/>
<path d="M241.144 234.176C241.144 234.176 237.97 219.693 239.185 217.891C239.185 217.891 239.229 216.216 239.156 214.08C239.156 213.999 239.156 213.918 239.156 213.835C239.37 213.966 239.593 214.084 239.823 214.188C240.943 214.715 242.227 214.867 243.456 214.618L242.495 213.636C242.264 213.401 242.024 213.147 241.974 212.837C241.924 212.527 242.063 212.25 242.182 211.973C243.095 209.857 243.143 207.197 241.384 205.581C239.898 204.224 239.537 202.471 237.924 201.231C236.746 200.323 236.098 198.992 235.487 197.705C234.97 196.617 234.449 195.52 234.153 194.367C233.923 193.466 233.83 192.533 233.513 191.653C233.196 190.774 232.602 189.918 231.674 189.525C231.343 189.386 230.976 189.307 230.674 189.121C230.278 188.876 230.04 188.478 229.754 188.129C228.299 186.366 223.426 187.404 221.12 188.12C220.493 188.3 219.912 188.595 219.413 188.987L219.434 188.956C219.451 188.929 219.472 188.903 219.492 188.876C219.239 189.064 219.021 189.287 218.846 189.538C218.509 190.026 218.369 190.596 218.089 191.125C217.75 191.75 215.869 193.498 216.678 194.201C216.734 194.249 216.799 194.287 216.87 194.314C217.174 194.43 217.508 194.461 217.831 194.402L217.796 194.478C217.52 195.099 217.378 195.763 217.379 196.434C217.379 199.331 219.984 201.679 223.199 201.679C223.804 201.68 224.405 201.595 224.981 201.427C224.995 201.494 225.006 201.561 225.02 201.628C225.02 201.655 225.029 201.681 225.033 201.708L224.931 201.838C224.926 201.83 224.92 201.822 224.914 201.815L221.896 205.684C221.435 205.982 218.779 207.745 218.629 209.067C218.471 210.515 218.313 212.209 218.313 212.209L218.292 212.573C218.16 212.674 218.006 212.747 217.84 212.789C217.674 212.83 217.501 212.837 217.331 212.811C216.389 212.67 216.389 215.985 216.389 215.985C216.389 215.985 215.763 216.514 215.332 216.055C214.902 215.597 213.764 217.15 213.764 217.15L206.633 217.432L206.47 217.441L206.085 216.35C206.044 216.234 205.955 216.139 205.837 216.084C205.719 216.029 205.583 216.018 205.457 216.055C205.427 216.064 205.398 216.075 205.37 216.089L205.343 216.103L205.293 216.134L205.268 216.156C205.255 216.167 205.242 216.179 205.23 216.193L205.207 216.217L205.195 216.228C205.151 216.284 205.122 216.349 205.11 216.418C205.097 216.486 205.103 216.557 205.126 216.623L205.457 217.559C204.08 217.813 202.674 218.529 203.821 220.5L198.005 219.515L199.887 220.964L209.601 222.803C209.472 223.015 209.556 223.321 209.958 223.753C211.688 225.617 214.84 226.123 216.109 226.254C216.444 226.941 216.862 227.592 217.356 228.193L217.247 230.05C217.247 230.05 214.035 244.202 213.447 244.919C213.744 244.611 214.015 244.283 214.26 243.937C213.328 246.845 212.024 250.825 211.682 251.421C211.133 252.373 210.623 256.225 211.25 256.472C211.442 256.548 211.992 256.511 212.776 256.456V256.776L212.741 268.87C212.741 268.87 212.899 276.288 212.466 276.995C212.034 277.702 211.919 279.185 211.919 279.185C211.919 279.185 210.189 282.11 208.818 283.286C208.809 283.295 208.799 283.303 208.788 283.311L208.745 283.036C208.745 283.036 207.098 284.943 203.454 284.836C203.454 284.836 201.261 286.144 204.513 286.215C207.765 286.285 211.919 286.109 211.919 286.109C211.919 286.109 214.819 282.053 217.249 282.582V285.656H217.992V282.533C218.337 282.325 218.633 282.054 218.86 281.738C219.088 281.422 219.243 281.067 219.317 280.694C219.38 280.31 219.334 279.917 219.181 279.554C219.029 279.191 218.776 278.871 218.448 278.626C218.3 278.503 218.182 278.354 218.1 278.188C218.019 278.022 217.975 277.842 217.973 277.659L217.946 277.681C217.946 277.619 217.929 277.555 217.921 277.49C217.708 275.903 217.441 272.629 218.385 270.206C219.678 266.884 220.07 262.257 219.128 259.503C218.825 258.623 218.575 257.728 218.381 256.821C218.358 256.707 218.337 256.597 218.317 256.495C218.961 256.575 219.599 256.693 220.226 256.848C222.407 257.4 227.18 257.502 231.255 257.472C231.264 257.574 231.276 257.682 231.289 257.789C231.362 258.537 231.514 259.276 231.743 259.997C232.254 261.408 232.489 267.627 232.489 267.627C232.489 267.627 233.148 272.74 232.789 274.821C232.596 275.977 232.404 277.139 232.295 278.307V278.33C232.295 278.33 231.214 281.151 230.424 282.683C230.405 282.722 230.384 282.761 230.365 282.798C230.154 282.815 229.947 282.857 229.748 282.923C229.748 282.923 228.689 284.862 227.634 285.183C226.578 285.504 226.928 286.56 229.317 286.172C231.706 285.785 235.314 285.467 235.314 285.467L235.47 283.489L236.204 282.646L236.012 284.619L236.794 284.478L236.69 282.078L237.892 280.699C237.892 280.699 239.343 279.514 237.186 277.183V277.235C237.163 277.201 237.142 277.166 237.117 277.132V277.122C236.76 276.614 236.475 275.667 236.996 273.987C237.938 270.95 238.486 268.194 238.486 268.194C238.486 268.194 240.588 260.812 238.061 257.319H238.172C237.913 256.827 237.73 256.305 237.628 255.767C237.616 255.703 237.604 255.638 237.594 255.571C239.464 255.473 241.299 255.162 242.797 254.492C242.791 254.485 241.89 236.965 241.144 234.176ZM217.4 221.957V221.992L217.016 222.01L217.4 221.957ZM216.082 222.124C216.019 222.137 215.96 222.163 215.909 222.2C215.744 222.415 215.64 222.664 215.607 222.925L215.007 222.801C215.007 222.801 214.587 222.718 213.981 222.625L213.695 222.36C214.483 222.301 215.302 222.212 216.082 222.124Z" fill="url(#paint1_linear_168:11)"/>
<path d="M235.923 282.103L235.695 284.601L236.462 284.46L236.346 281.75L235.923 282.103Z" fill="#1D2366"/>
<path d="M218.427 270.24C217.502 272.655 217.764 275.916 217.971 277.499C218.048 278.084 218.119 278.441 218.119 278.441C218.119 278.441 216.737 281.329 216.622 281.438C216.507 281.547 212.555 283.76 212.555 283.76L209.793 285.24C209.793 285.24 206.991 284.113 208.334 283.725C208.609 283.624 208.856 283.469 209.059 283.272C210.404 282.099 212.094 279.185 212.094 279.185C212.094 279.185 212.209 277.705 212.632 277.002C213.055 276.298 212.901 268.905 212.901 268.905L212.934 256.853V255.282L218.19 255.317C218.224 255.851 218.299 256.381 218.417 256.904C218.606 257.807 218.85 258.7 219.15 259.577C220.076 262.326 219.692 266.93 218.427 270.24Z" fill="#FFB0B1"/>
<path opacity="0.1" d="M218.119 278.441C218.119 278.441 216.737 281.329 216.622 281.438C216.507 281.547 212.555 283.76 212.555 283.76L209.793 285.24C209.793 285.24 206.991 284.113 208.334 283.725C208.609 283.624 208.856 283.469 209.059 283.272L209.178 284.042L210.099 284.007L217.979 277.503C218.048 278.084 218.119 278.441 218.119 278.441Z" fill="black"/>
<path d="M218.023 277.666L210.098 284.215L209.178 284.25L208.986 283.016C208.986 283.016 207.375 284.917 203.796 284.811C203.796 284.811 201.647 286.114 204.832 286.185C208.017 286.255 212.084 286.079 212.084 286.079C212.084 286.079 214.925 282.023 217.302 282.552V285.615H218.033V282.524C218.372 282.315 218.662 282.044 218.885 281.729C219.107 281.414 219.258 281.06 219.328 280.69C219.391 280.309 219.347 279.92 219.198 279.559C219.05 279.198 218.803 278.879 218.481 278.631C218.337 278.507 218.222 278.358 218.143 278.192C218.065 278.026 218.024 277.847 218.023 277.666Z" fill="#1D2366"/>
<path d="M236.654 274.006C236.142 275.681 236.421 276.624 236.771 277.13V277.141C237.22 277.766 237.532 278.465 237.69 279.199L237.72 279.357L234.115 284.18L232.158 284.885C232.158 284.885 229.012 283.9 229.586 283.617C229.73 283.549 229.955 283.182 230.213 282.676C230.982 281.151 232.043 278.337 232.043 278.337V278.314C232.154 277.152 232.331 275.993 232.527 274.84C232.879 272.765 232.233 267.671 232.233 267.671C232.233 267.671 232.002 261.476 231.503 260.068C231.277 259.351 231.127 258.617 231.055 257.874C230.951 256.992 230.928 256.266 230.928 256.266C230.928 256.266 233 253.621 236.798 256.478C237.102 256.705 237.369 256.971 237.592 257.267C240.215 260.692 238.103 268.235 238.103 268.235C238.103 268.235 237.574 270.979 236.654 274.006Z" fill="#FFB0B1"/>
<path opacity="0.1" d="M237.726 279.357L234.121 284.18L232.164 284.885C232.164 284.885 229.018 283.9 229.592 283.617C229.736 283.549 229.961 283.182 230.219 282.676C231.551 282.665 232.241 283.829 232.241 283.829L233.928 283.582C233.928 283.582 236.154 279.569 236.654 279.324C237.154 279.079 236.731 277.492 236.731 277.492V277.088C236.744 277.102 236.756 277.118 236.771 277.132V277.143C237.22 277.768 237.532 278.466 237.69 279.201L237.726 279.357Z" fill="black"/>
<path d="M232.356 283.933C232.356 283.933 231.395 282.314 229.554 282.912C229.554 282.912 228.518 284.852 227.482 285.166C226.446 285.48 226.792 286.537 229.133 286.151C231.474 285.765 235.003 285.446 235.003 285.446L235.157 283.473L237.536 280.692C237.536 280.692 238.955 279.513 236.844 277.19V277.594C236.844 277.594 237.267 279.181 236.767 279.426C236.268 279.671 234.05 283.686 234.05 283.686L232.356 283.933Z" fill="#1D2366"/>
<path opacity="0.1" d="M218.196 255.314C218.229 255.847 218.305 256.378 218.423 256.901C216.259 256.61 214.25 256.754 212.934 256.85V255.279L218.196 255.314Z" fill="black"/>
<path opacity="0.1" d="M237.805 257.707C237.805 257.707 234.73 257.844 231.063 257.872C230.959 256.991 230.936 256.264 230.936 256.264C230.936 256.264 233.008 253.619 236.806 256.476C237.109 256.704 237.377 256.97 237.599 257.266C237.659 257.416 237.728 257.563 237.805 257.707Z" fill="black"/>
<path d="M237.805 257.389C237.805 257.389 224.335 257.987 220.23 256.931C216.124 255.874 212.055 256.79 211.442 256.545C210.829 256.299 211.327 252.461 211.865 251.51C212.403 250.56 215.355 240.949 215.355 240.949L218.196 227.361L221.189 226.605L221.4 226.55L226.615 225.231L230.436 224.263C230.436 224.263 238.034 251.475 237.382 253.482C237.146 254.25 237.107 255.058 237.271 255.843C237.37 256.378 237.55 256.899 237.805 257.389Z" fill="#1D2366"/>
<path d="M208.294 218.069C208.294 218.069 205.603 220.714 207.64 222.188C209.678 223.662 211.017 222.329 211.017 222.329L208.294 218.069Z" fill="#C7DAF5"/>
<path opacity="0.1" d="M208.294 218.069C208.294 218.069 205.603 220.714 207.64 222.188C209.678 223.662 211.017 222.329 211.017 222.329L208.294 218.069Z" fill="black"/>
<path d="M230.034 200.68C230.034 200.68 229.719 200.955 229.244 201.36C228.568 201.94 227.566 202.788 226.678 203.499C225.448 204.481 224.433 205.202 224.797 204.587C225.16 203.971 225.091 202.899 224.91 201.896C224.897 201.829 224.885 201.762 224.872 201.697C224.722 200.96 224.524 200.232 224.278 199.518C224.278 199.518 226.265 197.162 227.365 196.233C227.774 195.88 228.06 195.735 228.078 195.98C228.097 196.31 228.366 197.038 228.7 197.811C228.71 197.835 228.72 197.858 228.731 197.883C228.954 198.412 229.206 198.955 229.427 199.424C229.765 200.143 230.034 200.68 230.034 200.68Z" fill="#FFB0B1"/>
<path opacity="0.1" d="M228.731 197.883C228.544 198.805 228.091 199.663 227.419 200.369C226.747 201.075 225.88 201.602 224.91 201.896C224.757 201.091 224.546 200.297 224.278 199.518C224.278 199.518 228.02 195.083 228.078 195.98C228.091 196.321 228.383 197.075 228.731 197.883Z" fill="black"/>
<path opacity="0.1" d="M224.537 203.081L225.021 202.455C225.021 202.455 225.342 204.25 226.523 203.458C227.703 202.667 227.76 209.416 227.76 209.416L226.494 226.79L217.341 226.287L217.6 217.892L218.636 213.661L221.198 207.509L222.723 205.476L224.537 203.081Z" fill="black"/>
<path d="M227.76 209.524L226.607 225.233L226.486 226.897L221.383 226.617L221.191 226.606L217.347 226.395L217.606 217.998L218.642 213.766L221.204 207.614L222.728 205.581L224.543 203.178L225.027 202.554C225.027 202.554 225.348 204.349 226.528 203.557L226.553 203.541C227.707 202.871 227.76 209.524 227.76 209.524Z" fill="#1D2366"/>
<path d="M218.771 212.296C218.771 212.296 218.311 213.177 217.389 213.035C216.466 212.892 216.468 216.208 216.468 216.208C216.468 216.208 215.855 216.737 215.432 216.279C215.009 215.821 213.894 217.37 213.894 217.37L206.91 217.653C206.91 217.653 210.018 218.956 209.408 222.898C209.408 222.898 219.961 222.299 220.307 221.384C220.652 220.468 218.771 212.296 218.771 212.296Z" fill="white"/>
<path opacity="0.03" d="M218.771 212.296C218.771 212.296 218.311 213.177 217.389 213.035C216.466 212.892 216.468 216.208 216.468 216.208C216.468 216.208 215.855 216.737 215.432 216.279C215.009 215.821 213.894 217.37 213.894 217.37L206.91 217.653C206.91 217.653 210.018 218.956 209.408 222.898C209.408 222.898 219.961 222.299 220.307 221.384C220.652 220.468 218.771 212.296 218.771 212.296Z" fill="black"/>
<path d="M198.472 219.724L200.313 221.167L215.471 224.088L213.591 222.329L198.472 219.724Z" fill="white"/>
<path d="M224.566 203.637C224.314 203.989 223.593 205.795 222.992 207.371C222.49 208.685 222.071 209.84 222.071 209.84C222.071 209.84 221.093 215.683 220.593 216.739C220.093 217.795 220.364 221.914 220.364 221.914L218.502 232.087C218.502 232.087 217.658 237.332 216.355 240.466C215.069 243.549 213.637 244.995 213.593 245.041C214.169 244.325 217.312 230.23 217.312 230.23L218.35 212.453C218.35 212.453 218.502 210.764 218.655 209.32C218.809 207.875 221.923 205.904 221.923 205.904L224.925 201.988C225.227 202.358 225.025 203.004 224.566 203.637Z" fill="white"/>
<path d="M216.737 226.483C216.737 226.483 212.317 226.307 210.175 223.947C208.034 221.588 215.125 223.006 215.125 223.006L216.968 223.394L216.737 226.483Z" fill="#FFB0B1"/>
<path opacity="0.1" d="M237.382 253.483C237.146 254.252 237.108 255.06 237.271 255.844C232.448 256.158 227.29 254.963 227.29 254.963C226.328 255.774 223.797 256.969 223.797 256.969L222.417 241.277C221.535 239.161 221.189 228.075 221.189 228.075C221.189 228.075 221.268 227.495 221.381 226.626C221.381 226.605 221.381 226.582 221.391 226.56C221.735 224.132 222.417 219.574 222.751 218.959C223.213 218.113 221.333 215.861 221.333 215.861L222.188 209.17L222.292 208.362C224.095 207.623 225.477 205.264 225.477 205.264L226.538 203.559C227.691 202.88 227.751 209.533 227.751 209.533L226.598 225.242L230.419 224.274C230.419 224.274 238.034 251.477 237.382 253.483Z" fill="black"/>
<path d="M242.332 254.568C237.075 256.962 227.52 254.744 227.52 254.744C226.559 255.555 224.028 256.751 224.028 256.751L222.646 241.058C221.765 238.942 221.419 227.856 221.419 227.856C221.419 227.856 222.53 219.585 222.992 218.741C223.126 218.494 223.061 218.127 222.901 217.732C222.117 215.852 221.829 213.829 222.059 211.827L222.429 208.951L222.53 208.145C224.335 207.405 225.717 205.045 225.717 205.045L226.678 203.501L228.447 200.655L229.285 199.308L229.427 199.426L230.513 200.329C230.513 200.329 230.974 200.681 231.666 201.21C233.171 202.374 235.772 204.423 237.113 205.677C238.293 206.78 238.666 211.074 238.774 214.306C238.845 216.434 238.803 218.102 238.803 218.102C237.613 219.899 240.725 234.324 240.725 234.324C241.449 237.112 242.332 254.568 242.332 254.568Z" fill="white"/>
<path opacity="0.03" d="M232.241 205.01C232.241 205.01 228.633 211.31 229.052 213.705C229.471 216.099 230.663 218.809 230.088 219.442C229.891 219.682 229.635 219.877 229.342 220.011C229.049 220.145 228.726 220.216 228.398 220.216C227.822 220.252 226.284 221.237 226.284 221.343C226.284 221.449 224.864 221.449 223.593 221.943C222.323 222.436 220.447 222.717 220.447 222.717C220.447 222.717 216.795 222.611 216.455 222.928C216.115 223.246 215.765 225.145 216.493 226.659C217.222 228.174 218.031 229.304 218.642 229.51C219.253 229.717 223.132 228.525 226.278 228.243C229.425 227.961 232.84 225.674 232.84 225.674C232.84 225.674 236.602 224.439 237.261 222.364C237.92 220.289 236.456 208.882 236.456 208.882C236.456 208.882 235.349 203.566 232.241 205.01Z" fill="black"/>
<path opacity="0.03" d="M231.779 204.481C231.779 204.481 228.172 210.783 228.595 213.176C229.017 215.568 230.205 218.28 229.629 218.915C229.432 219.155 229.177 219.35 228.884 219.484C228.591 219.619 228.268 219.689 227.941 219.689C227.364 219.724 225.827 220.71 225.827 220.816C225.827 220.922 224.406 220.922 223.136 221.414C221.865 221.906 219.989 222.188 219.989 222.188C219.989 222.188 216.338 222.082 215.999 222.399C215.661 222.717 215.307 224.617 216.038 226.13C216.768 227.643 217.575 228.775 218.187 228.981C218.798 229.188 222.677 227.996 225.823 227.715C228.969 227.435 232.385 225.145 232.385 225.145C232.385 225.145 236.145 223.91 236.796 221.837C237.448 219.763 235.991 208.353 235.991 208.353C235.991 208.353 234.887 203.039 231.779 204.481Z" fill="black"/>
<path d="M232.127 204.693C232.127 204.693 228.52 210.995 228.942 213.387C229.365 215.78 230.553 218.492 229.978 219.125C229.782 219.366 229.527 219.561 229.233 219.696C228.94 219.83 228.617 219.9 228.289 219.901C227.712 219.936 226.175 220.922 226.175 221.026C226.175 221.13 224.756 221.131 223.484 221.625C222.211 222.119 220.337 222.399 220.337 222.399C220.337 222.399 216.685 222.293 216.345 222.611C216.005 222.928 215.655 224.829 216.384 226.342C217.112 227.855 217.921 228.987 218.533 229.193C219.144 229.399 223.023 228.207 226.169 227.925C229.315 227.643 232.731 225.356 232.731 225.356C232.731 225.356 236.492 224.122 237.152 222.047C237.811 219.971 236.356 208.565 236.356 208.565C236.356 208.565 235.233 203.257 232.127 204.693Z" fill="white"/>
<path opacity="0.1" d="M232.049 221.595C232.049 221.595 229.166 221.066 230.169 221.948C231.172 222.829 231.166 223.602 232.395 223.567C233.623 223.531 232.049 221.595 232.049 221.595Z" fill="black"/>
<path opacity="0.1" d="M236.921 240.564C236.921 240.564 235.618 241.374 238.111 243.239C240.604 245.105 236.921 240.564 236.921 240.564Z" fill="black"/>
<path opacity="0.1" d="M234.434 247.217C234.434 247.323 233.973 251.096 235.699 252.039C237.425 252.983 234.434 247.217 234.434 247.217Z" fill="black"/>
<path d="M207.029 217.644C205.637 217.688 202.631 218.078 204.19 220.745C205.568 223.106 207.884 221.528 209.188 220.331C208.87 219.215 208.097 218.253 207.029 217.644Z" fill="#FFB0B1"/>
<path d="M209.205 220.31L209.263 220.255L209.205 220.31Z" fill="#FFB0B1"/>
<path opacity="0.1" d="M231.666 201.318C230.19 202.243 228.952 203.025 228.71 203.187C228.049 203.636 226.788 206.276 225.975 207.623C225.327 208.708 223.222 208.986 222.428 209.055L222.53 208.249C224.335 207.509 225.717 205.149 225.717 205.149L229.285 199.412L230.513 200.436C230.513 200.436 230.974 200.789 231.666 201.318Z" fill="black"/>
<path d="M231.666 201.212C230.19 202.138 228.952 202.919 228.71 203.083C228.049 203.531 226.788 206.17 225.975 207.517C225.327 208.602 223.222 208.88 222.428 208.949L222.53 208.143C224.335 207.403 225.717 205.044 225.717 205.044L229.285 199.306L230.513 200.327C230.513 200.327 230.974 200.676 231.666 201.212Z" fill="#DCE7FF"/>
<path d="M228.825 196.719C228.826 197.778 228.476 198.811 227.822 199.683C227.049 200.714 225.899 201.457 224.581 201.776C223.263 202.096 221.863 201.972 220.636 201.425C219.409 200.879 218.436 199.948 217.894 198.8C217.351 197.652 217.276 196.364 217.68 195.169C218.084 193.974 218.942 192.952 220.098 192.288C221.254 191.624 222.631 191.362 223.979 191.549C225.327 191.737 226.558 192.362 227.447 193.31C228.336 194.259 228.825 195.468 228.825 196.719Z" fill="#FFB0B1"/>
<path opacity="0.1" d="M238.774 214.308C237.993 213.867 237.358 213.241 236.934 212.495C236.613 211.913 236.4 211.241 235.852 210.829C235.358 210.458 234.699 210.369 234.084 210.203C232.062 209.654 230.367 207.962 230.303 206.029C230.272 205.119 230.582 204.211 230.442 203.31C230.362 202.8 230.141 202.318 229.8 201.908C229.63 201.713 229.445 201.529 229.244 201.36C228.975 201.127 228.693 200.902 228.447 200.655C228.292 200.502 228.156 200.333 228.043 200.152C227.951 200.004 227.877 199.847 227.822 199.685C227.437 198.606 227.787 197.326 227.364 196.234L227.341 196.174C227.182 195.786 226.857 195.399 226.405 195.369C225.954 195.339 225.567 195.682 225.137 195.836C224.235 196.157 223.263 195.61 222.511 195.053C221.76 194.496 220.912 193.859 219.957 193.983C219.324 194.066 218.825 194.461 218.242 194.665C218.111 194.712 217.975 194.748 217.837 194.773C218.33 193.645 219.235 192.71 220.398 192.128C221.56 191.547 222.907 191.355 224.208 191.585C225.508 191.816 226.68 192.455 227.523 193.392C228.365 194.329 228.826 195.506 228.825 196.721C228.826 197.088 228.784 197.454 228.7 197.812C228.71 197.837 228.719 197.86 228.731 197.885C228.954 198.414 229.206 198.957 229.427 199.426L230.513 200.329C230.513 200.329 230.974 200.681 231.666 201.21C233.171 202.374 235.772 204.423 237.113 205.677C238.293 206.784 238.662 211.076 238.774 214.308Z" fill="black"/>
<path d="M218.175 191.444C218.45 190.93 218.586 190.356 218.915 189.869C219.398 189.164 220.239 188.712 221.104 188.439C223.363 187.725 228.135 186.688 229.561 188.439C229.842 188.792 230.075 189.183 230.463 189.426C230.759 189.612 231.116 189.691 231.441 189.83C232.35 190.222 232.931 191.075 233.24 191.946C233.55 192.817 233.642 193.752 233.869 194.649C234.159 195.801 234.668 196.892 235.176 197.976C235.774 199.257 236.408 200.584 237.561 201.489C239.135 202.723 239.483 204.47 240.944 205.825C242.674 207.433 242.618 210.086 241.726 212.193C241.609 212.47 241.476 212.76 241.523 213.054C241.569 213.348 241.807 213.616 242.032 213.851L242.978 214.83C240.74 215.325 238.209 214.253 237.167 212.372C236.846 211.79 236.633 211.12 236.083 210.705C235.591 210.335 234.93 210.247 234.317 210.081C232.295 209.531 230.599 207.837 230.536 205.904C230.505 204.996 230.815 204.088 230.674 203.189C230.596 202.675 230.374 202.189 230.03 201.778C229.502 201.145 228.704 200.72 228.274 200.015C227.545 198.835 228.099 197.303 227.574 196.037C227.413 195.649 227.09 195.261 226.638 195.231C226.186 195.201 225.8 195.545 225.368 195.698C224.468 196.019 223.495 195.474 222.744 194.915C221.992 194.356 221.145 193.722 220.188 193.847C219.555 193.928 219.057 194.323 218.475 194.529C218.044 194.681 217.172 194.817 216.795 194.483C215.999 193.812 217.843 192.071 218.175 191.444Z" fill="#591D4B"/>
<path opacity="0.1" d="M237.701 211.79C237.379 211.208 237.167 210.538 236.617 210.125C236.125 209.755 235.464 209.665 234.849 209.499C232.829 208.951 231.134 207.256 231.068 205.324C231.038 204.416 231.347 203.506 231.209 202.607C231.128 202.097 230.906 201.614 230.565 201.205C230.034 200.572 229.237 200.147 228.808 199.442C228.08 198.264 228.633 196.732 228.106 195.464C227.947 195.078 227.622 194.69 227.172 194.658C226.723 194.626 226.332 194.974 225.902 195.127C225.002 195.448 224.028 194.901 223.278 194.344C222.529 193.787 221.677 193.15 220.722 193.274C220.089 193.357 219.59 193.752 219.009 193.956C218.579 194.108 217.704 194.245 217.327 193.912C216.536 193.207 218.379 191.47 218.709 190.846C218.984 190.331 219.121 189.758 219.451 189.271C219.469 189.245 219.488 189.218 219.507 189.192C219.26 189.38 219.046 189.602 218.875 189.851C218.546 190.338 218.41 190.909 218.135 191.426C217.802 192.05 215.959 193.792 216.753 194.492C217.137 194.827 218.002 194.69 218.433 194.538C219.009 194.332 219.513 193.937 220.145 193.856C221.106 193.731 221.952 194.367 222.702 194.924C223.451 195.481 224.431 196.028 225.327 195.707C225.758 195.554 226.134 195.208 226.596 195.24C227.057 195.272 227.365 195.658 227.532 196.046C228.056 197.312 227.503 198.844 228.231 200.024C228.662 200.717 229.46 201.15 229.988 201.787C230.332 202.198 230.554 202.684 230.632 203.197C230.772 204.097 230.463 205.005 230.494 205.913C230.557 207.852 232.252 209.54 234.274 210.09C234.884 210.256 235.549 210.344 236.041 210.714C236.592 211.129 236.81 211.799 237.125 212.38C238.167 214.262 240.698 215.334 242.935 214.838L242.489 214.376C240.55 214.403 238.587 213.391 237.701 211.79Z" fill="black"/>
<path opacity="0.1" d="M224.451 203.742C224.199 204.095 223.478 205.901 222.876 207.477C222.313 207.276 221.802 205.994 221.802 205.994L224.804 202.076C225.112 202.464 224.91 203.108 224.451 203.742Z" fill="black"/>
<path d="M224.566 203.637C224.314 203.989 223.593 205.795 222.992 207.371C222.429 207.172 221.917 205.888 221.917 205.888L224.92 201.972C225.227 202.358 225.025 203.004 224.566 203.637Z" fill="#DCE7FF"/>
<path d="M207.11 221.65L205.445 216.834C205.425 216.778 205.418 216.719 205.423 216.66C205.429 216.601 205.447 216.543 205.476 216.491C205.506 216.438 205.547 216.391 205.596 216.353C205.645 216.315 205.703 216.286 205.764 216.268C205.888 216.233 206.022 216.244 206.137 216.299C206.253 216.353 206.339 216.448 206.379 216.561L208.044 221.371L207.878 222.378L207.11 221.65Z" fill="#BE8B87"/>
<path opacity="0.1" d="M205.603 216.411C205.727 216.375 205.862 216.386 205.977 216.441C206.093 216.495 206.18 216.59 206.22 216.704L207.884 221.514L207.759 222.269L207.881 222.385L208.046 221.378L206.372 216.568C206.332 216.455 206.245 216.36 206.13 216.306C206.015 216.251 205.88 216.24 205.757 216.275C205.652 216.306 205.562 216.368 205.501 216.452C205.534 216.436 205.568 216.422 205.603 216.411Z" fill="white"/>
<path d="M207.11 221.65L208.044 221.378L207.907 222.203L207.878 222.385L207.606 222.124L207.11 221.65Z" fill="#EFC8C4"/>
<path d="M207.606 222.124C207.622 222.105 207.642 222.09 207.665 222.078C207.679 222.07 207.694 222.066 207.71 222.066C207.726 222.066 207.742 222.07 207.756 222.078C207.769 222.093 207.78 222.109 207.788 222.126C207.801 222.145 207.818 222.162 207.839 222.174C207.859 222.187 207.883 222.195 207.907 222.198L207.879 222.375L207.606 222.124Z" fill="#727A9C"/>
<path d="M205.436 218.545C205.436 218.545 208.774 218.527 207.988 219.83C207.202 221.133 205.974 221.29 205.974 221.29L205.436 218.545Z" fill="#FFB0B1"/>
<path d="M184.671 160.067H184.527C178.792 160.067 173.719 162.851 170.802 166.959C167.884 162.851 162.812 160.067 157.076 160.067H156.932C152.628 160.104 148.514 161.699 145.483 164.503C142.453 167.308 140.752 171.097 140.75 175.045C140.75 179.949 143.091 186.907 147.656 192.632C156.354 203.541 170.802 213.086 170.802 213.086C170.802 213.086 185.25 203.543 193.945 192.632C198.512 186.907 200.851 179.949 200.851 175.045C200.849 171.097 199.148 167.309 196.119 164.504C193.089 161.699 188.975 160.105 184.671 160.067ZM182.609 193.471C181.956 193.469 181.319 193.286 180.781 192.945C180.244 192.605 179.831 192.123 179.597 191.563H176.168C175.942 191.562 175.723 191.496 175.54 191.375C175.357 191.253 175.22 191.083 175.148 190.886L174.094 187.975L170.761 198.659C170.696 198.864 170.561 199.045 170.374 199.174C170.188 199.303 169.961 199.373 169.727 199.373H169.66C169.416 199.362 169.184 199.275 169.002 199.126C168.821 198.977 168.7 198.776 168.661 198.555L165.226 179.603L162.716 190.818C162.658 191.031 162.524 191.22 162.336 191.355C162.147 191.49 161.915 191.564 161.676 191.563H156.846C156.701 191.569 156.556 191.548 156.421 191.501C156.285 191.454 156.161 191.382 156.057 191.29C155.952 191.198 155.869 191.088 155.812 190.966C155.755 190.843 155.726 190.712 155.726 190.579C155.726 190.446 155.755 190.314 155.812 190.192C155.869 190.07 155.952 189.959 156.057 189.867C156.161 189.775 156.285 189.704 156.421 189.657C156.556 189.61 156.701 189.588 156.846 189.594H160.83L164.386 174.516C164.444 174.293 164.585 174.096 164.785 173.958C164.984 173.82 165.23 173.75 165.479 173.759C165.729 173.769 165.967 173.858 166.154 174.01C166.34 174.163 166.462 174.371 166.5 174.598L170.008 193.93L172.995 184.371C173.057 184.17 173.188 183.992 173.37 183.865C173.551 183.738 173.772 183.668 174 183.666H174.021C174.247 183.666 174.467 183.731 174.65 183.853C174.833 183.975 174.969 184.146 175.04 184.343L176.945 189.599H179.555C179.74 189.082 180.078 188.622 180.531 188.27C180.983 187.917 181.533 187.687 182.12 187.603C182.706 187.519 183.307 187.586 183.855 187.796C184.402 188.005 184.877 188.35 185.224 188.791C185.572 189.232 185.781 189.753 185.827 190.296C185.872 190.838 185.754 191.382 185.484 191.867C185.214 192.352 184.803 192.759 184.297 193.044C183.79 193.328 183.208 193.478 182.615 193.478L182.609 193.471Z" fill="#1CA944"/>
<defs>
<filter id="filter0_d_168:11" x="29.3024" y="138" width="249.395" height="168.969" filterUnits="userSpaceOnUse" color-interpolation-filters="sRGB">
<feFlood flood-opacity="0" result="BackgroundImageFix"/>
<feColorMatrix in="SourceAlpha" type="matrix" values="0 0 0 0 0 0 0 0 0 0 0 0 0 0 0 0 0 0 127 0" result="hardAlpha"/>
<feOffset dy="2"/>
<feGaussianBlur stdDeviation="2"/>
<feComposite in2="hardAlpha" operator="out"/>
<feColorMatrix type="matrix" values="0 0 0 0 0 0 0 0 0 0 0 0 0 0 0 0 0 0 0.25 0"/>
<feBlend mode="normal" in2="BackgroundImageFix" result="effect1_dropShadow_168:11"/>
<feBlend mode="normal" in="SourceGraphic" in2="effect1_dropShadow_168:11" result="shape"/>
</filter>
<filter id="filter1_d_168:11" x="0" y="298.969" width="308" height="13.698" filterUnits="userSpaceOnUse" color-interpolation-filters="sRGB">
<feFlood flood-opacity="0" result="BackgroundImageFix"/>
<feColorMatrix in="SourceAlpha" type="matrix" values="0 0 0 0 0 0 0 0 0 0 0 0 0 0 0 0 0 0 127 0" result="hardAlpha"/>
<feOffset dy="2"/>
<feGaussianBlur stdDeviation="2"/>
<feComposite in2="hardAlpha" operator="out"/>
<feColorMatrix type="matrix" values="0 0 0 0 0 0 0 0 0 0 0 0 0 0 0 0 0 0 0.25 0"/>
<feBlend mode="normal" in2="BackgroundImageFix" result="effect1_dropShadow_168:11"/>
<feBlend mode="normal" in="SourceGraphic" in2="effect1_dropShadow_168:11" result="shape"/>
</filter>
<linearGradient id="paint0_linear_168:11" x1="117.489" y1="287.629" x2="117.489" y2="179.129" gradientUnits="userSpaceOnUse">
<stop stop-color="#808080" stop-opacity="0.25"/>
<stop offset="0.54" stop-color="#808080" stop-opacity="0.12"/>
<stop offset="1" stop-color="#808080" stop-opacity="0.1"/>
</linearGradient>
<linearGradient id="paint1_linear_168:11" x1="42952.6" y1="82015.5" x2="42952.6" y2="26321.6" gradientUnits="userSpaceOnUse">
<stop stop-color="#808080" stop-opacity="0.25"/>
<stop offset="0.54" stop-color="#808080" stop-opacity="0.12"/>
<stop offset="1" stop-color="#808080" stop-opacity="0.1"/>
</linearGradient>
<clipPath id="clip0_168:11">
<rect width="245" height="211" fill="white" transform="translate(278 13)"/>
</clipPath>
</defs>
</svg>
