<svg width="550" height="313" viewBox="0 0 550 313" fill="none" xmlns="http://www.w3.org/2000/svg">
<rect x="181" width="369" height="238" rx="9" fill="white"/>
<rect x="181.5" y="0.5" width="368" height="237" rx="8.5" stroke="black" stroke-opacity="0.33"/>
<circle cx="230" cy="18" r="5" fill="#00CA4E"/>
<circle cx="214" cy="18" r="5" fill="#FFBD44"/>
<circle cx="198" cy="18" r="5" fill="#FF605C"/>
<g clip-path="url(#clip0_170:249)">
<path d="M515.204 174.951C535.766 158.344 543.071 135.648 531.521 124.259C519.97 112.87 493.939 117.099 473.377 133.706C452.816 150.313 445.51 173.008 457.061 184.398C468.611 195.787 494.642 191.558 515.204 174.951Z" fill="#F2F2F2"/>
<path d="M455.38 220.412C452.607 215.301 451.625 209.541 452.108 203.902C452.631 198.298 454.484 192.858 457.542 187.941C460.511 183.197 464.278 178.886 468.71 175.159C473.367 171.178 478.618 167.799 484.143 164.845C489.977 161.726 496.108 159.076 502.309 156.596C503.082 156.287 503.856 155.98 504.632 155.676C505.14 155.476 504.7 154.81 504.195 155.009C497.872 157.493 491.602 160.111 485.606 163.184C479.878 166.119 474.399 169.476 469.503 173.444C464.889 177.125 460.915 181.397 457.709 186.12C454.428 190.981 452.3 196.391 451.457 202.016C450.649 207.68 451.274 213.571 453.68 218.886C453.974 219.534 454.291 220.173 454.632 220.802C454.875 221.25 455.622 220.858 455.38 220.412Z" fill="#E6E6E6"/>
<path d="M479.26 166.815C478.974 162.603 479.329 158.375 480.316 154.248C481.3 150.118 482.897 146.124 485.065 142.372C486.285 140.265 487.684 138.244 489.248 136.327C489.577 135.925 488.826 135.539 488.501 135.938C485.69 139.393 483.414 143.171 481.736 147.17C480.055 151.169 478.976 155.35 478.527 159.603C478.275 162.001 478.23 164.412 478.394 166.815C478.428 167.309 479.294 167.313 479.26 166.815H479.26Z" fill="#E6E6E6"/>
<path d="M386.628 160.5C413.391 138.885 422.9 109.344 407.866 94.5197C392.832 79.6951 358.949 85.2003 332.186 106.816C305.423 128.431 295.914 157.972 310.948 172.797C325.982 187.621 359.865 182.116 386.628 160.5Z" fill="#F2F2F2"/>
<path d="M308.76 219.674C305.151 213.02 303.873 205.523 304.502 198.183C305.126 190.89 307.65 183.814 311.575 177.409C315.376 171.207 320.401 165.654 326.112 160.772C332.173 155.59 339.008 151.191 346.199 147.347C353.793 143.287 361.772 139.837 369.844 136.609C370.85 136.207 371.858 135.808 372.867 135.412C373.529 135.152 372.956 134.285 372.298 134.544C364.068 137.777 355.907 141.186 348.104 145.184C340.648 149.005 333.516 153.375 327.143 158.539C321.199 163.357 315.901 168.868 311.793 175.039C307.521 181.365 304.752 188.407 303.655 195.729C302.603 203.102 303.416 210.769 306.548 217.687C306.93 218.53 307.343 219.362 307.787 220.181C308.103 220.764 309.075 220.254 308.76 219.674V219.674Z" fill="#E6E6E6"/>
<path d="M339.843 149.911C339.471 144.428 339.933 138.925 341.218 133.553C342.498 128.178 344.577 122.979 347.399 118.095C348.987 115.353 350.808 112.723 352.844 110.228C353.271 109.704 352.294 109.202 351.871 109.721C348.212 114.218 345.251 119.136 343.067 124.341C340.877 129.546 339.473 134.988 338.89 140.524C338.561 143.644 338.503 146.783 338.717 149.911C338.761 150.554 339.888 150.559 339.843 149.911L339.843 149.911Z" fill="#E6E6E6"/>
<path d="M438.757 28.3007L426.181 46.8047L438.73 53.4323L438.757 28.3007Z" fill="#8C8C8C"/>
<path d="M426.224 46.8426L438.73 41.7554L438.715 53.4402L426.224 46.8426Z" fill="#383838"/>
<path d="M438.703 28.3007L451.28 46.8047L438.73 53.4323L438.703 28.3007Z" fill="#333333"/>
<path d="M451.237 46.8426L438.73 41.7554L438.746 53.4402L451.237 46.8426Z" fill="#141414"/>
<path d="M426.224 48.966L438.715 64.6639V55.5636L426.224 48.966Z" fill="#8C8C8C"/>
<path d="M451.207 48.966L438.715 64.6639V55.5636L451.207 48.966Z" fill="#333333"/>
<path d="M438.831 78.0018C432.075 78.0018 425.344 73.8574 419.878 66.3321C415.072 59.7152 412.086 51.4905 412.086 44.8677C412.086 41.7334 412.778 38.6297 414.122 35.7339C415.466 32.8382 417.436 30.207 419.92 27.9907C422.403 25.7744 425.352 24.0163 428.596 22.8168C431.841 21.6174 435.319 21 438.831 21C442.343 21 445.821 21.6174 449.066 22.8168C452.311 24.0163 455.259 25.7744 457.743 27.9907C460.226 30.207 462.196 32.8382 463.54 35.7339C464.884 38.6297 465.576 41.7334 465.576 44.8677C465.576 51.4905 462.59 59.7152 457.784 66.3321C452.318 73.8574 445.587 78.0018 438.831 78.0018ZM438.831 21.5616C431.907 21.5686 425.269 24.0263 420.373 28.3955C415.477 32.7647 412.723 38.6887 412.716 44.8677C412.716 57.7304 424.415 77.4402 438.831 77.4402C453.247 77.4402 464.947 57.7304 464.947 44.8677C464.939 38.6887 462.185 32.7647 457.289 28.3955C452.393 24.0263 445.755 21.5686 438.831 21.5616Z" fill="#3F3D56"/>
<path d="M441.352 83.0562H436.31C436.074 83.0562 435.842 83.0089 435.629 82.918C435.417 82.8271 435.23 82.6947 435.083 82.5307C434.935 82.3667 434.831 82.1753 434.778 81.9705C434.724 81.7657 434.723 81.5529 434.774 81.3476L435.747 77.4402H441.915L442.888 81.3476C442.939 81.5529 442.938 81.7657 442.885 81.9705C442.831 82.1753 442.727 82.3667 442.58 82.5307C442.432 82.6947 442.245 82.8271 442.033 82.918C441.821 83.0089 441.588 83.0562 441.352 83.0562H441.352ZM436.252 78.0018L435.388 81.4694C435.358 81.5925 435.358 81.7203 435.39 81.8431C435.422 81.966 435.485 82.0809 435.573 82.1793C435.662 82.2777 435.774 82.3571 435.901 82.4116C436.029 82.4662 436.168 82.4946 436.31 82.4946H441.352C441.494 82.4946 441.633 82.4662 441.761 82.4116C441.888 82.3571 442 82.2777 442.089 82.1793C442.177 82.0809 442.24 81.966 442.272 81.8431C442.304 81.7203 442.305 81.5925 442.274 81.4694L441.41 78.0018H436.252Z" fill="#3F3D56"/>
<path d="M426.384 27.981C422.232 30.231 419.246 33.8558 418.079 38.0639C417.756 39.2342 417.584 40.4337 417.567 41.6389C417.572 41.7481 417.623 41.8515 417.711 41.9274C417.799 42.0033 417.917 42.0457 418.039 42.0457C418.162 42.0457 418.279 42.0033 418.367 41.9274C418.456 41.8515 418.507 41.7481 418.511 41.6389C418.607 37.5443 420.509 33.6487 423.804 30.798C424.728 29.9978 425.754 29.2965 426.86 28.7084C426.964 28.65 427.038 28.5581 427.067 28.4519C427.096 28.3457 427.078 28.2336 427.016 28.1392C426.954 28.0449 426.854 27.9756 426.736 27.9461C426.618 27.9166 426.492 27.9291 426.384 27.981H426.384Z" fill="#3F3D56"/>
<path d="M434.46 78.5309C440.162 78.2704 446.651 78.1316 451.095 81.8852C452.948 83.4508 454.118 85.5489 454.047 87.8553C453.971 90.3652 452.54 92.7164 450.768 94.6019C446.953 98.661 441.357 101.199 435.991 103.245C430.288 105.419 424.347 107.116 418.867 109.74C414.056 112.043 409.571 115.153 406.665 119.341C405.235 121.372 404.286 123.642 403.878 126.012C403.503 128.388 403.638 130.806 404.276 133.136C405.555 137.914 408.707 142.136 412.906 145.273C417.155 148.448 422.303 150.563 427.636 151.826C433.968 153.325 440.564 153.665 447.088 153.699C453.825 153.734 460.568 153.44 467.301 153.777C468.939 153.859 470.574 153.98 472.203 154.148C472.805 154.21 472.8 153.367 472.203 153.306C465.477 152.61 458.698 152.769 451.942 152.838C445.318 152.905 438.638 152.884 432.097 151.84C426.457 150.94 420.927 149.254 416.144 146.394C411.562 143.654 407.827 139.812 405.938 135.15C404.092 130.597 404.111 125.557 406.583 121.192C409.058 116.821 413.374 113.514 418.065 111.101C423.479 108.317 429.439 106.574 435.19 104.451C440.622 102.446 446.177 100.055 450.35 96.2633C452.282 94.5077 453.937 92.3709 454.646 89.9667C454.991 88.8422 455.075 87.6663 454.891 86.5119C454.706 85.3575 454.259 84.2491 453.575 83.2554C452.207 81.3868 450.255 79.9179 447.96 79.0309C445.19 77.9172 442.117 77.5961 439.105 77.569C437.556 77.555 436.007 77.6178 434.46 77.6885C433.855 77.7161 433.852 78.5587 434.46 78.5309H434.46Z" fill="#3F3D56"/>
<path d="M405.433 215.239L401.649 215.912L396.943 203.209L402.527 202.217L405.433 215.239Z" fill="#FFB8B8"/>
<path d="M407.128 218.341L394.929 220.508L394.898 220.371C394.774 219.814 394.774 219.241 394.898 218.685C395.022 218.128 395.267 217.599 395.62 217.127C395.974 216.656 396.427 216.25 396.956 215.935C397.484 215.62 398.077 215.4 398.701 215.29L398.701 215.29L406.152 213.966L407.128 218.341Z" fill="#2F2E41"/>
<path d="M441.573 217.171L437.716 217.171L433.364 203.893L439.057 203.893L441.573 217.171Z" fill="#FFB8B8"/>
<path d="M442.557 220.508L430.119 220.508V220.368C430.119 219.8 430.244 219.238 430.488 218.714C430.731 218.19 431.088 217.714 431.537 217.313C431.987 216.911 432.52 216.593 433.108 216.376C433.695 216.159 434.325 216.047 434.96 216.047H434.961L442.557 216.047L442.557 220.508Z" fill="#2F2E41"/>
<path d="M432.365 179.247C432.673 178.902 432.893 178.501 433.008 178.072C433.124 177.643 433.133 177.197 433.034 176.765C432.936 176.333 432.732 175.925 432.438 175.571C432.144 175.217 431.766 174.924 431.332 174.714L423.625 148.114L416.922 150.807L426.605 176.107C426.258 176.782 426.201 177.547 426.444 178.257C426.686 178.967 427.213 179.573 427.923 179.96C428.633 180.347 429.477 180.488 430.296 180.357C431.115 180.225 431.851 179.83 432.365 179.247Z" fill="#FFB8B8"/>
<path d="M425.428 152.571L417.979 154.141C417.767 154.186 417.546 154.189 417.333 154.151C417.119 154.113 416.917 154.034 416.741 153.92C416.565 153.806 416.418 153.66 416.311 153.49C416.204 153.321 416.139 153.133 416.12 152.94L415.473 146.154C415.224 145.185 415.414 144.167 416.004 143.323C416.594 142.479 417.535 141.879 418.62 141.653C419.705 141.427 420.846 141.595 421.793 142.119C422.74 142.643 423.416 143.481 423.672 144.449L426.488 150.755C426.569 150.935 426.605 151.129 426.594 151.323C426.583 151.517 426.525 151.707 426.424 151.88C426.324 152.052 426.183 152.203 426.011 152.322C425.839 152.442 425.64 152.527 425.428 152.571V152.571Z" fill="#E36414"/>
<path d="M400.015 212.831C399.689 212.832 399.374 212.732 399.122 212.548C398.87 212.365 398.697 212.109 398.632 211.825L394.879 195.747C394.645 194.735 394.639 193.691 394.859 192.676C395.079 191.661 395.522 190.695 396.162 189.833L407.987 174.004V162.141L421.714 159.38L421.773 159.423C428.894 164.613 428.485 171.01 428.441 171.504L441.932 210.599C441.997 210.788 442.012 210.988 441.974 211.183C441.937 211.378 441.849 211.563 441.718 211.722C441.586 211.881 441.414 212.01 441.216 212.099C441.019 212.188 440.8 212.235 440.579 212.235H436.528C436.244 212.236 435.967 212.16 435.733 212.019C435.498 211.877 435.317 211.676 435.213 211.441L420.673 180.448L403.561 193.016C403.423 193.117 403.316 193.246 403.246 193.392C403.177 193.538 403.148 193.697 403.163 193.855L404.741 211.136C404.772 211.464 404.659 211.79 404.424 212.044C404.19 212.298 403.853 212.46 403.486 212.495L400.175 212.823C400.121 212.829 400.068 212.831 400.015 212.831Z" fill="#2F2E41"/>
<path d="M417.562 137.237C421.83 137.237 425.29 134.15 425.29 130.341C425.29 126.532 421.83 123.444 417.562 123.444C413.294 123.444 409.834 126.532 409.834 130.341C409.834 134.15 413.294 137.237 417.562 137.237Z" fill="#FFB8B8"/>
<path d="M408.718 163.457C408.437 163.457 408.161 163.382 407.927 163.243C407.693 163.103 407.511 162.905 407.403 162.673C404.815 157 404.858 149.836 405.993 145.58C406.477 143.778 407.654 142.185 409.319 141.078C410.984 139.971 413.032 139.42 415.105 139.523H415.105C416.339 139.581 417.545 139.869 418.647 140.368C419.749 140.866 420.723 141.565 421.505 142.418C422.287 143.272 422.862 144.261 423.191 145.324C423.52 146.387 423.597 147.499 423.417 148.59C422.812 152.25 422.566 157.405 422.489 159.451C422.477 159.725 422.367 159.987 422.174 160.2C421.982 160.412 421.718 160.564 421.421 160.631L409.063 163.418C408.951 163.444 408.835 163.457 408.718 163.457Z" fill="#E36414"/>
<path d="M408.86 122.285C408.699 122.344 408.533 122.392 408.364 122.428L402.922 135.479L405.333 138.089L401.394 141.852L396.622 137.601C396.237 137.257 395.986 136.811 395.909 136.33C395.832 135.849 395.931 135.358 396.193 134.932L404.718 121.035C404.384 120.516 404.235 119.919 404.29 119.322C404.346 118.726 404.604 118.159 405.029 117.696C405.455 117.234 406.029 116.898 406.673 116.733C407.318 116.568 408.004 116.583 408.639 116.774C409.275 116.966 409.83 117.326 410.23 117.806C410.631 118.286 410.859 118.863 410.883 119.462C410.907 120.06 410.726 120.65 410.365 121.155C410.003 121.659 409.479 122.053 408.86 122.285Z" fill="#FFB8B8"/>
<path d="M400.002 141.478L404.343 135.851C404.466 135.691 404.627 135.557 404.814 135.457C405.001 135.358 405.21 135.295 405.426 135.274C405.643 135.253 405.862 135.274 406.068 135.335C406.275 135.396 406.465 135.496 406.624 135.629L412.208 140.271C413.122 140.84 413.747 141.708 413.944 142.687C414.142 143.666 413.897 144.675 413.262 145.492C412.627 146.31 411.655 146.87 410.559 147.048C409.463 147.227 408.332 147.011 407.414 146.446L400.583 143.459C400.388 143.374 400.215 143.252 400.077 143.101C399.939 142.951 399.839 142.776 399.784 142.588C399.729 142.399 399.72 142.203 399.758 142.012C399.795 141.82 399.878 141.638 400.002 141.478H400.002Z" fill="#E36414"/>
<path d="M417.118 138.245C416.561 137.694 416.886 136.747 417.401 136.159C417.916 135.571 418.612 135.072 418.816 134.326C419.162 133.056 417.871 131.898 416.583 131.487C415.296 131.077 413.853 131.045 412.719 130.326C411 129.235 410.609 126.748 411.596 125.002C412.584 123.256 414.648 122.255 416.697 122.106C418.746 121.956 420.781 122.55 422.657 123.364C424.47 124.151 426.22 125.176 427.494 126.653C428.768 128.131 429.518 130.116 429.15 132.008C428.7 134.319 426.671 136.103 424.417 136.974C422.163 137.845 419.685 137.96 417.26 138.064L417.118 138.245Z" fill="#2F2E41"/>
<path d="M425.721 125.078C428.091 122.984 431.262 121.77 434.596 121.68C437.929 121.591 441.177 122.633 443.683 124.596C447.866 127.872 449.46 133.267 453.851 136.319C457.803 139.067 463.739 139.271 467.917 136.804C466.009 138.793 464.068 140.809 461.625 142.259C459.183 143.71 456.13 144.547 453.28 143.925C449.935 143.195 447.5 140.653 445.61 138.083C443.719 135.514 442.053 132.699 439.312 130.838C437.235 129.437 434.696 128.688 432.091 128.71C430.497 128.728 428.869 129.033 427.328 128.666C425.788 128.299 424.372 126.897 424.885 125.55L425.721 125.078Z" fill="#2F2E41"/>
<path d="M497.16 220.927H281.315C281.231 220.927 281.151 220.898 281.092 220.845C281.033 220.793 281 220.721 281 220.647C281 220.572 281.033 220.501 281.092 220.448C281.151 220.395 281.231 220.366 281.315 220.366H497.16C497.244 220.366 497.324 220.395 497.383 220.448C497.442 220.501 497.475 220.572 497.475 220.647C497.475 220.721 497.442 220.793 497.383 220.845C497.324 220.898 497.244 220.927 497.16 220.927Z" fill="#3F3D56"/>
</g>
<g filter="url(#filter0_d_170:249)">
<rect x="33" y="142" width="241.395" height="160.969" rx="5" fill="white"/>
<rect x="33.5" y="142.5" width="240.395" height="159.969" rx="4.5" stroke="black" stroke-opacity="0.33"/>
</g>
<rect x="41.2" y="149.2" width="225.646" height="146.324" fill="#FEF8F0" fill-opacity="0.37" stroke="#DCDCDC" stroke-width="0.4"/>
<g filter="url(#filter1_d_170:249)">
<mask id="path-39-inside-1_170:249" fill="white">
<path fill-rule="evenodd" clip-rule="evenodd" d="M118.543 303.824C116.074 303.522 113.814 301 111.326 301H5C4.44772 301 4 301.448 4 302V305.698C4 306.25 4.44771 306.698 5 306.698H303C303.552 306.698 304 306.25 304 305.698V302C304 301.448 303.552 301 303 301H198.07C195.582 301 193.321 303.522 190.852 303.824C190.718 303.841 190.582 303.849 190.444 303.849H118.952C118.813 303.849 118.677 303.841 118.543 303.824Z"/>
</mask>
<path fill-rule="evenodd" clip-rule="evenodd" d="M118.543 303.824C116.074 303.522 113.814 301 111.326 301H5C4.44772 301 4 301.448 4 302V305.698C4 306.25 4.44771 306.698 5 306.698H303C303.552 306.698 304 306.25 304 305.698V302C304 301.448 303.552 301 303 301H198.07C195.582 301 193.321 303.522 190.852 303.824C190.718 303.841 190.582 303.849 190.444 303.849H118.952C118.813 303.849 118.677 303.841 118.543 303.824Z" fill="#F4F2F2"/>
<path d="M118.543 303.824L118.519 304.023L118.543 303.824ZM5 301.2H111.326V300.8H5V301.2ZM4.2 302C4.2 301.558 4.55817 301.2 5 301.2V300.8C4.33726 300.8 3.8 301.337 3.8 302H4.2ZM4.2 305.698V302H3.8V305.698H4.2ZM5 306.498C4.55817 306.498 4.2 306.14 4.2 305.698H3.8C3.8 306.361 4.33726 306.898 5 306.898V306.498ZM303 306.498H5V306.898H303V306.498ZM303.8 305.698C303.8 306.14 303.442 306.498 303 306.498V306.898C303.663 306.898 304.2 306.361 304.2 305.698H303.8ZM303.8 302V305.698H304.2V302H303.8ZM303 301.2C303.442 301.2 303.8 301.558 303.8 302H304.2C304.2 301.337 303.663 300.8 303 300.8V301.2ZM198.07 301.2H303V300.8H198.07V301.2ZM190.828 303.626C190.702 303.641 190.574 303.649 190.444 303.649V304.049C190.59 304.049 190.734 304.04 190.876 304.023L190.828 303.626ZM190.444 303.649H118.952V304.049H190.444V303.649ZM118.952 303.649C118.822 303.649 118.693 303.641 118.568 303.626L118.519 304.023C118.661 304.04 118.805 304.049 118.952 304.049V303.649ZM198.07 300.8C196.765 300.8 195.533 301.46 194.356 302.124C193.157 302.8 192.014 303.48 190.828 303.626L190.876 304.023C192.159 303.866 193.381 303.133 194.552 302.473C195.744 301.801 196.886 301.2 198.07 301.2V300.8ZM111.326 301.2C112.509 301.2 113.651 301.801 114.843 302.473C116.014 303.133 117.236 303.865 118.519 304.023L118.568 303.626C117.381 303.48 116.238 302.8 115.04 302.124C113.862 301.46 112.63 300.8 111.326 300.8V301.2Z" fill="black" fill-opacity="0.33" mask="url(#path-39-inside-1_170:249)"/>
</g>
<g clip-path="url(#clip1_170:249)">
<path opacity="0.1" d="M119.149 293.919C129.424 293.919 137.754 292.621 137.754 291.019C137.754 289.418 129.424 288.12 119.149 288.12C108.873 288.12 100.543 289.418 100.543 291.019C100.543 292.621 108.873 293.919 119.149 293.919Z" fill="#E36414"/>
<path opacity="0.1" d="M220.286 294C233.108 294 243.503 292.702 243.503 291.101C243.503 289.5 233.108 288.202 220.286 288.202C207.463 288.202 197.069 289.5 197.069 291.101C197.069 292.702 207.463 294 220.286 294Z" fill="#E36414"/>
<path opacity="0.1" d="M51.6426 211.65H71.0215V237.276H53.0614C53.0136 237.539 52.9678 237.804 52.9181 238.068H71.0215V258.735C70.989 258.725 70.9604 258.714 70.9298 258.703C70.4181 258.507 69.9102 258.299 69.4023 258.077L69.0777 257.934C68.5685 257.701 68.0593 257.454 67.5501 257.193C67.3726 257.103 67.195 257.008 67.0193 256.912C64.1926 255.376 61.6246 253.429 59.4045 251.139C59.3396 251.078 59.2785 251.013 59.2135 250.954C58.9042 250.628 58.6006 250.298 58.3066 249.961L57.982 249.591C57.6344 249.178 57.2984 248.753 56.9719 248.324C56.9241 248.261 56.8783 248.198 56.8287 248.138C55.5007 246.352 54.3981 244.418 53.5444 242.377C53.5177 242.316 53.4948 242.249 53.47 242.192C53.2077 241.538 52.9754 240.877 52.773 240.21C52.6852 239.93 52.6012 239.654 52.5286 239.363C52.5019 239.278 52.479 239.195 52.458 239.111C51.3734 235.004 51.2455 230.738 51.2455 226.502C51.2455 226.007 51.2455 225.511 51.2455 225.02C51.2455 223.306 51.2665 221.582 51.297 219.859C51.297 219.412 51.3161 218.968 51.3257 218.519C51.3524 217.382 51.3906 216.245 51.4402 215.107C51.4517 214.79 51.467 214.475 51.4842 214.161C51.4842 213.979 51.4937 213.797 51.5128 213.616C51.5586 212.956 51.5968 212.303 51.6426 211.65Z" fill="#E36414"/>
<path opacity="0.1" d="M71.0215 183.119H60.3917C62.1197 180.495 64.0076 177.973 66.0456 175.568C67.6247 173.686 69.2916 171.852 71.0215 170.085V183.119Z" fill="#E36414"/>
<path opacity="0.1" d="M71.0215 183.912V210.858H51.7038C51.7038 210.78 51.7172 210.7 51.7229 210.622C51.7401 210.409 51.7573 210.196 51.7764 209.985C51.7974 209.737 51.8203 209.487 51.8451 209.244C51.8699 209.001 51.8966 208.705 51.9253 208.436C51.9539 208.168 51.9807 207.895 52.0131 207.627C52.0456 207.358 52.0742 207.09 52.1086 206.823C52.143 206.556 52.1735 206.286 52.2098 206.019C52.2384 205.797 52.269 205.576 52.2995 205.354C52.3435 205.041 52.3893 204.726 52.4389 204.415C52.4389 204.368 52.4523 204.32 52.4599 204.276C52.8084 201.998 53.2833 199.739 53.8825 197.511C54.5096 195.173 55.3105 192.882 56.2788 190.656C57.3079 188.328 58.5129 186.077 59.8838 183.921L71.0215 183.912Z" fill="#E36414"/>
<path opacity="0.1" d="M75.648 211.649V237.276H117.039V211.649H75.648ZM75.648 238.067V260.074C75.8848 260.122 76.1196 260.168 76.3526 260.207C76.6696 260.267 76.9846 260.32 77.3073 260.367C77.3684 260.376 77.4314 260.385 77.4983 260.391C77.6243 260.411 77.7541 260.428 77.8801 260.444C78.199 260.487 78.516 260.522 78.8349 260.55C78.9857 260.565 79.1385 260.578 79.2912 260.589L79.6597 260.617C79.8602 260.631 80.0588 260.643 80.2555 260.648C80.3777 260.648 80.4999 260.659 80.6259 260.663C80.7214 260.663 80.8168 260.663 80.9161 260.663C81.0154 260.663 81.1567 260.663 81.277 260.663C81.4412 260.663 81.6054 260.663 81.7677 260.663H81.9873C82.1515 260.663 82.3158 260.663 82.4781 260.648H82.4895C82.6022 260.648 82.7167 260.648 82.8313 260.633C82.8631 260.635 82.895 260.635 82.9268 260.633C83.0222 260.633 83.1177 260.633 83.2094 260.62H83.2762L83.9159 260.572C84.1259 260.554 84.3378 260.53 84.5517 260.507L84.987 260.457C86.7582 260.217 88.5097 259.855 90.2284 259.375C94.0893 258.331 97.8662 256.869 101.725 255.798C106.714 254.418 112.227 253.74 117.048 255.428V238.067H75.648ZM117.039 183.119V149.002C112.507 148.954 107.988 149.468 103.591 150.532C93.1098 153.086 83.7058 158.627 75.648 165.704V183.117H77.7255V183.908H75.648V210.858H117.039V183.91H86.2549V183.119H117.039ZM170.203 171.594C167.61 171.506 165.032 170.709 162.701 169.479C158.242 167.126 154.681 163.494 150.702 160.428C142.434 154.042 132.181 150.189 121.662 149.233V183.119H180.749L180.896 182.969L170.203 171.594ZM175.586 170.668L181.293 176.744V169.075C179.382 169.305 177.707 169.851 175.593 170.661L175.586 170.668ZM181.293 265.539V238.067H169.132C169.099 237.95 169.067 237.831 169.029 237.713C169.065 237.831 169.096 237.95 169.13 238.067H121.669V257.934C122.12 258.258 122.565 258.599 123.006 258.946C123.481 259.316 123.951 259.707 124.423 260.091L124.898 260.472C125.125 260.657 125.354 260.843 125.585 261.017C126.044 261.377 126.506 261.733 126.974 262.084C127.205 262.269 127.441 262.436 127.676 262.61C131.405 265.376 135.338 267.871 139.444 270.077C140.364 270.571 141.293 271.053 142.23 271.524C142.854 271.833 143.483 272.141 144.113 272.439C145.06 272.887 146.014 273.32 146.977 273.736C155.849 277.6 165.231 280.251 174.855 281.614C176.992 281.921 179.137 282.161 181.291 282.337V265.537H181.482L181.293 265.539ZM121.669 183.91V210.858H181.301V183.91H121.669ZM121.669 211.649V237.276H181.301V211.649H121.669ZM185.929 169.042V177.596L193.214 169.842C190.8 169.464 188.372 169.194 185.929 169.033V169.042ZM185.929 211.658V237.276H243.928V211.649L185.929 211.658ZM243.716 267.573L243.921 238.067H185.929V282.631C189.665 282.784 193.407 282.74 197.138 282.502H197.203C198.985 282.393 200.759 282.235 202.524 282.027H202.564C211.984 280.964 221.194 278.58 229.907 274.949L243.716 267.573ZM255.112 215.868C254.894 215.37 254.667 214.876 254.436 214.386C254.004 213.46 253.548 212.56 253.078 211.66H248.553V237.276H259.994C259.989 230.021 258.096 222.611 255.118 215.859L255.112 215.868ZM248.553 238.076V263.455C251.776 260.457 254.499 257.028 256.46 253.109C258.818 248.388 259.897 243.278 259.985 238.072L248.553 238.076ZM248.553 204.19V210.859H252.654C251.414 208.564 250.046 206.334 248.559 204.181L248.553 204.19ZM209.219 174.069C208.917 173.958 208.615 173.845 208.312 173.736C205.11 172.589 201.838 171.635 198.514 170.879L187.367 182.748L187.153 182.969L187.296 183.121H226.971C221.445 179.431 215.488 176.389 209.224 174.06L209.219 174.069ZM228.133 183.919H186.743L185.929 184.641V210.858H193.059H193.071H243.936V198.159C239.335 192.76 234.024 187.969 228.139 183.91L228.133 183.919Z" fill="#E36414"/>
<path opacity="0.1" d="M71.0215 197.503V210.858H51.7038C51.7038 210.78 51.7172 210.7 51.7229 210.622C51.7401 210.409 51.7573 210.196 51.7764 209.985C51.7974 209.737 51.8203 209.487 51.8451 209.244C51.8699 209.001 51.8966 208.705 51.9253 208.436C51.9539 208.168 51.9807 207.895 52.0131 207.627C52.0456 207.358 52.0742 207.09 52.1086 206.823C52.143 206.556 52.1735 206.286 52.2098 206.019C52.2384 205.797 52.269 205.576 52.2995 205.354C52.3435 205.041 52.3893 204.726 52.4389 204.415C52.4389 204.368 52.4523 204.32 52.4599 204.276C52.8084 201.998 53.2833 199.739 53.8825 197.511L71.0215 197.503Z" fill="#E36414"/>
<path opacity="0.1" d="M51.6426 211.65H71.0215V237.276H53.0614C53.0136 237.539 52.9678 237.804 52.9181 238.068H71.0215V258.735C70.989 258.725 70.9604 258.714 70.9298 258.703C70.4181 258.507 69.9102 258.299 69.4023 258.077L69.0777 257.934C68.5685 257.701 68.0593 257.454 67.5501 257.193C67.3726 257.103 67.195 257.008 67.0193 256.912C64.1926 255.376 61.6246 253.429 59.4045 251.139C59.3396 251.078 59.2785 251.013 59.2135 250.954C58.9042 250.628 58.6006 250.298 58.3066 249.961L57.982 249.591C57.6344 249.178 57.2984 248.753 56.9719 248.324C56.9241 248.261 56.8783 248.198 56.8287 248.138C55.5007 246.352 54.3981 244.418 53.5444 242.377C53.5177 242.316 53.4948 242.249 53.47 242.192C53.2077 241.538 52.9754 240.877 52.773 240.21C52.6852 239.93 52.6012 239.654 52.5286 239.363C52.5019 239.278 52.479 239.195 52.458 239.111C51.3734 235.004 51.2455 230.738 51.2455 226.502C51.2455 226.007 51.2455 225.511 51.2455 225.02C51.2455 223.306 51.2665 221.582 51.297 219.859C51.297 219.412 51.3161 218.968 51.3257 218.519C51.3524 217.382 51.3906 216.245 51.4402 215.107C51.4517 214.79 51.467 214.475 51.4842 214.161C51.4842 213.979 51.4937 213.797 51.5128 213.616C51.5586 212.956 51.5968 212.303 51.6426 211.65Z" fill="#E36414"/>
<path opacity="0.1" d="M90.2189 187.768V210.858H75.648V187.768H77.7255V179.951H86.253V187.768H90.2189Z" fill="#E36414"/>
<path opacity="0.1" d="M90.2189 211.649H75.65V237.274H90.2189V211.649Z" fill="#E36414"/>
<path opacity="0.1" d="M75.648 238.068H90.2189V259.372C88.5001 259.851 86.7486 260.212 84.9775 260.452L84.5421 260.504C84.3283 260.528 84.1163 260.548 83.9063 260.569C83.6963 260.589 83.4786 260.604 83.2666 260.617H83.1998C83.1082 260.617 83.0089 260.628 82.9191 260.63H82.8217C82.7072 260.63 82.5926 260.641 82.4781 260.645C82.3158 260.654 82.1534 260.656 81.9873 260.657C81.9167 260.657 81.8498 260.657 81.7792 260.657C81.615 260.657 81.4527 260.657 81.2885 260.657H80.9276C80.8302 260.657 80.7366 260.657 80.6354 260.657L80.2669 260.645C80.076 260.645 79.8698 260.624 79.6712 260.611L79.3046 260.585L78.8482 260.544C78.5274 260.517 78.2086 260.481 77.8935 260.439L77.5116 260.387L77.3207 260.361C77.0018 260.313 76.6867 260.261 76.366 260.202C76.1311 260.163 75.8981 260.115 75.6614 260.068L75.648 238.068Z" fill="#E36414"/>
<path opacity="0.1" d="M181.301 185.042H169.287V210.856H181.301V185.042Z" fill="#E36414"/>
<path opacity="0.1" d="M181.303 211.649V237.276H121.669V226.222H153.433V232.743H169.287V211.649H181.303Z" fill="#E36414"/>
<path opacity="0.1" d="M181.492 265.544H181.301V282.355C179.149 282.179 177.005 281.939 174.866 281.635C165.238 280.267 155.852 277.61 146.977 273.74C144.414 272.621 141.904 271.399 139.446 270.075C135.34 267.869 131.406 265.373 127.676 262.608C126.739 261.912 125.815 261.199 124.902 260.47C124.27 259.965 123.642 259.446 123.006 258.942C122.565 258.596 122.12 258.255 121.669 257.929V238.068H169.128C169.096 237.95 169.063 237.831 169.029 237.715C169.065 237.831 169.1 237.95 169.132 238.068H181.301V265.533C181.366 265.535 181.429 265.541 181.492 265.544Z" fill="#E36414"/>
<path opacity="0.1" d="M212.635 183.119H204.806V180.759H208.315V173.729C208.62 173.836 208.923 173.947 209.224 174.06V180.759H212.635V183.119Z" fill="#E36414"/>
<path opacity="0.1" d="M231.496 210.858H193.063C193.063 210.858 193.063 210.858 193.076 210.867L193.059 210.858H185.929V185.043H187.949V204.124H197.182V192.824H204.808V183.912H212.636V192.831H220.263V204.131H231.496V210.858Z" fill="#E36414"/>
<path opacity="0.1" d="M185.929 211.649V237.276H231.496V211.649H185.929ZM243.865 267.441L243.928 247.157H231.496V238.08H185.929V282.631C189.665 282.784 193.407 282.74 197.138 282.502H197.203C198.985 282.393 200.759 282.235 202.524 282.028H202.564C211.984 280.964 221.194 278.58 229.907 274.949" fill="#E36414"/>
<path opacity="0.1" d="M249.363 238.068H259.992C259.899 243.272 258.822 248.383 256.466 253.103C254.505 257.025 251.78 260.454 248.561 263.449V247.147H249.363V238.068Z" fill="#E36414"/>
<path opacity="0.1" d="M259.998 237.276H249.363V215.859H255.118C258.096 222.611 259.989 230.021 259.998 237.276Z" fill="#E36414"/>
<path opacity="0.1" d="M181.303 192.218H174.866V200.311H181.303V192.218Z" fill="#E36414"/>
<path opacity="0.1" d="M181.303 208.994H174.866V210.858H181.303V208.994Z" fill="#E36414"/>
<path opacity="0.1" d="M181.303 211.649H174.866V217.086H181.303V211.649Z" fill="#E36414"/>
<path opacity="0.1" d="M181.303 225.77H174.866V233.863H181.303V225.77Z" fill="#E36414"/>
<path opacity="0.1" d="M181.303 242.546H174.866V250.639H181.303V242.546Z" fill="#E36414"/>
<path opacity="0.1" d="M181.301 265.533C181.366 265.533 181.429 265.533 181.492 265.544H181.301V267.424H174.866V259.322H181.301V265.533Z" fill="#E36414"/>
<path opacity="0.1" d="M181.301 276.094V282.346C179.149 282.17 177.005 281.929 174.866 281.626V276.094H181.301Z" fill="#E36414"/>
<path opacity="0.1" d="M149.255 236.681H121.669V237.276H149.255V236.681Z" fill="#E36414"/>
<path opacity="0.1" d="M149.255 238.067H121.669V240.345H149.255V238.067Z" fill="#E36414"/>
<path opacity="0.1" d="M149.255 247.814H121.669V251.478H149.255V247.814Z" fill="#E36414"/>
<path opacity="0.1" d="M149.253 258.948V262.612H127.676C126.739 261.918 125.814 261.205 124.9 260.474C124.268 259.968 123.642 259.45 123.004 258.948H149.253Z" fill="#E36414"/>
<path opacity="0.1" d="M149.253 270.079V273.74H146.975C144.415 272.619 141.905 271.397 139.446 270.074L149.253 270.079Z" fill="#E36414"/>
<path opacity="0.1" d="M202.57 214.133H197.14V219.401H202.57V214.133Z" fill="#E36414"/>
<path opacity="0.1" d="M84.9909 189.586H79.5605V194.854H84.9909V189.586Z" fill="#E36414"/>
<path opacity="0.1" d="M84.9909 201.823H79.5605V207.092H84.9909V201.823Z" fill="#E36414"/>
<path opacity="0.1" d="M84.9909 214.061H79.5605V219.329H84.9909V214.061Z" fill="#E36414"/>
<path opacity="0.1" d="M84.9909 226.296H79.5605V231.564H84.9909V226.296Z" fill="#E36414"/>
<path opacity="0.1" d="M84.9909 238.533H79.5605V243.802H84.9909V238.533Z" fill="#E36414"/>
<path opacity="0.1" d="M84.9909 250.771H79.5605V256.039H84.9909V250.771Z" fill="#E36414"/>
<path opacity="0.1" d="M223.301 214.133H217.87V219.401H223.301V214.133Z" fill="#E36414"/>
<path opacity="0.1" d="M202.57 227.128H197.14V232.396H202.57V227.128Z" fill="#E36414"/>
<path opacity="0.1" d="M223.301 227.128H217.87V232.396H223.301V227.128Z" fill="#E36414"/>
<path opacity="0.1" d="M202.57 240.121H197.14V245.389H202.57V240.121Z" fill="#E36414"/>
<path opacity="0.1" d="M223.301 240.121H217.87V245.389H223.301V240.121Z" fill="#E36414"/>
<path opacity="0.1" d="M202.57 253.116H197.14V258.384H202.57V253.116Z" fill="#E36414"/>
<path opacity="0.1" d="M223.301 253.116H217.87V258.384H223.301V253.116Z" fill="#E36414"/>
<path opacity="0.1" d="M202.57 266.111H197.14V271.38H202.57V266.111Z" fill="#E36414"/>
<path opacity="0.1" d="M223.301 266.111H217.87V271.38H223.301V266.111Z" fill="#E36414"/>
<path opacity="0.1" d="M197.14 282.502V279.104H202.568V282.018L197.14 282.502Z" fill="#E36414"/>
<path opacity="0.1" d="M52.437 204.272V207.286H71.0215V204.272H52.437ZM54.2891 207.097H52.773V204.457H54.3006L54.2891 207.097ZM56.1393 207.097H54.6118V204.457H56.1393V207.097ZM57.9858 207.097H56.4582V204.457H57.9858V207.097ZM59.836 207.097H58.3104V204.457H59.8379L59.836 207.097ZM61.6843 207.097H60.1568V204.457H61.6843V207.097ZM63.5346 207.097H62.007V204.457H63.5346V207.097ZM65.3848 207.097H63.8573V204.457H65.3848V207.097ZM67.2331 207.097H65.7056V204.457H67.2331V207.097ZM69.0815 207.097H67.5539V204.457H69.0815V207.097ZM70.9298 207.097H69.4023V204.457H70.9298V207.097Z" fill="#E36414"/>
<path opacity="0.1" d="M52.437 213.042V216.056H71.0215V213.042H52.437ZM54.2891 215.865H52.773V213.232H54.3006L54.2891 215.865ZM56.1393 215.865H54.6118V213.232H56.1393V215.865ZM57.9858 215.865H56.4582V213.232H57.9858V215.865ZM59.836 215.865H58.3104V213.232H59.8379L59.836 215.865ZM61.6843 215.865H60.1568V213.232H61.6843V215.865ZM63.5346 215.865H62.007V213.232H63.5346V215.865ZM65.3848 215.865H63.8573V213.232H65.3848V215.865ZM67.2331 215.865H65.7056V213.232H67.2331V215.865ZM69.0815 215.865H67.5539V213.232H69.0815V215.865ZM70.9298 215.865H69.4023V213.232H70.9298V215.865Z" fill="#E36414"/>
<path opacity="0.1" d="M52.437 221.815V224.834H71.0215V221.815H52.437ZM54.2891 224.638H52.773V222.004H54.3006L54.2891 224.638ZM56.1393 224.638H54.6118V222.004H56.1393V224.638ZM57.9858 224.638H56.4582V222.004H57.9858V224.638ZM59.836 224.638H58.3104V222.004H59.8379L59.836 224.638ZM61.6843 224.638H60.1568V222.004H61.6843V224.638ZM63.5346 224.638H62.007V222.004H63.5346V224.638ZM65.3848 224.638H63.8573V222.004H65.3848V224.638ZM67.2331 224.638H65.7056V222.004H67.2331V224.638ZM69.0815 224.638H67.5539V222.004H69.0815V224.638ZM70.9298 224.638H69.4023V222.004H70.9298V224.638Z" fill="#E36414"/>
<path opacity="0.1" d="M52.437 230.588V233.598H71.0215V230.588H52.437ZM54.2891 233.411H52.773V230.775H54.3006L54.2891 233.411ZM56.1393 233.411H54.6118V230.775H56.1393V233.411ZM57.9858 233.411H56.4582V230.775H57.9858V233.411ZM59.836 233.411H58.3104V230.775H59.8379L59.836 233.411ZM61.6843 233.411H60.1568V230.775H61.6843V233.411ZM63.5346 233.411H62.007V230.775H63.5346V233.411ZM65.3848 233.411H63.8573V230.775H65.3848V233.411ZM67.2331 233.411H65.7056V230.775H67.2331V233.411ZM69.0815 233.411H67.5539V230.775H69.0815V233.411ZM70.9298 233.411H69.4023V230.775H70.9298V233.411Z" fill="#E36414"/>
<path opacity="0.1" d="M52.5172 239.36C52.5917 239.643 52.6757 239.926 52.7635 240.206V239.549H54.2911V242.183H53.4738C53.4987 242.244 53.5235 242.311 53.5483 242.368H71.0215V239.36H52.5172ZM56.1451 242.183H54.6176V239.549H56.1451V242.183ZM57.9916 242.183H56.464V239.549H57.9916V242.183ZM59.8418 242.183H58.3104V239.549H59.838L59.8418 242.183ZM61.6901 242.183H60.1626V239.549H61.6901V242.183ZM63.5404 242.183H62.0128V239.549H63.5404V242.183ZM65.3906 242.183H63.8631V239.549H65.3906V242.183ZM67.2389 242.183H65.7114V239.549H67.2389V242.183ZM69.0873 242.183H67.5597V239.549H69.0873V242.183ZM70.9356 242.183H69.4081V239.549H70.9356V242.183Z" fill="#E36414"/>
<path opacity="0.1" d="M56.8325 248.133C56.8802 248.192 56.926 248.259 56.9757 248.318H57.9858V249.583C58.0946 249.709 58.2015 249.835 58.3123 249.954V248.311H59.8398V250.954H59.2212C59.2823 251.015 59.3415 251.08 59.4121 251.139H71.0272V248.133H56.8325ZM61.6843 250.954H60.1568V248.322H61.6843V250.954ZM63.5346 250.954H62.007V248.322H63.5346V250.954ZM65.3848 250.954H63.8573V248.322H65.3848V250.954ZM67.2331 250.954H65.7056V248.322H67.2331V250.954ZM69.0815 250.954H67.5539V248.322H69.0815V250.954ZM70.9298 250.954H69.4023V248.322H70.9298V250.954Z" fill="#E36414"/>
<path opacity="0.1" d="M67.027 256.904C67.2007 257.001 67.3783 257.09 67.5578 257.186V257.093H69.0853V257.927L69.41 258.073V257.093H70.9375V258.696C70.9668 258.71 70.9975 258.721 71.0292 258.729V256.904H67.027Z" fill="#E36414"/>
<path opacity="0.1" d="M193.063 210.858H193.074H193.063ZM181.301 265.531H181.492H181.301ZM169.029 237.713C169.065 237.831 169.096 237.95 169.13 238.067C169.1 237.95 169.067 237.831 169.029 237.713ZM193.063 210.852H193.074H193.063ZM77.7332 183.113V183.904H86.2626V183.113H77.7332ZM181.301 265.531H181.492H181.301ZM169.029 237.713C169.065 237.831 169.096 237.95 169.13 238.067C169.1 237.95 169.067 237.831 169.029 237.713ZM193.063 210.852H193.074H193.063ZM181.301 265.526H181.492H181.301ZM169.029 237.713C169.065 237.831 169.096 237.95 169.13 238.067C169.1 237.95 169.067 237.831 169.029 237.713Z" fill="#E36414"/>
<path d="M137.139 219.333C137.139 219.333 136.387 219.231 136.387 218.167C136.387 217.104 135.849 215.118 135.849 215.118C135.849 215.109 135.383 211.66 134.739 211.111C134.096 210.563 133.269 207.343 133.269 207.343C133.269 207.343 133.128 205.597 132.839 205.221C132.551 204.844 132.162 203.924 131.587 202.61C131.012 201.297 128.616 200.387 128.616 200.387C128.616 200.387 124.283 197.95 123.055 197.155C122.944 197.09 122.84 197.013 122.744 196.927C122.53 196.655 121.599 196.649 121.599 196.649C121.501 196.053 121.408 195.367 121.377 194.747C121.377 194.68 121.377 194.613 121.367 194.547C122.737 193.762 123.768 192.524 124.272 191.06C124.295 190.99 124.314 190.916 124.335 190.845C124.417 190.819 124.492 190.777 124.556 190.72C124.62 190.664 124.672 190.596 124.707 190.519C124.818 190.28 124.82 190.001 124.957 189.778C125.118 189.515 125.423 189.375 125.664 189.176C126.271 188.676 126.427 187.833 126.399 187.066C126.38 186.446 126.277 185.82 126.317 185.203L126.328 185.047C126.34 184.955 126.353 184.862 126.37 184.773C126.464 184.314 126.668 183.88 126.783 183.424C126.897 182.969 126.909 182.456 126.641 182.063C126.25 181.487 125.435 181.372 124.719 181.313C123.907 181.246 123.181 181.333 122.662 180.679C122.419 180.337 122.146 180.017 121.845 179.721C121.738 179.625 120.699 179.01 120.699 178.969C119.685 178.514 118.536 178.428 117.463 178.728C116.924 178.88 116.416 179.129 115.87 179.253C114.692 179.523 113.336 179.23 112.336 179.884C111.778 180.255 111.444 180.844 111.131 181.418C110.876 181.891 110.618 182.364 110.356 182.835C109.934 183.612 109.504 184.401 109.327 185.26C109.289 185.447 109.266 185.637 109.258 185.827V185.836C109.258 185.905 109.258 185.973 109.258 186.042V186.129C109.258 186.194 109.258 186.257 109.269 186.314C109.281 186.372 109.279 186.39 109.285 186.429C109.29 186.468 109.3 186.555 109.311 186.614C109.323 186.674 109.346 186.777 109.369 186.859C109.378 186.894 109.392 186.927 109.403 186.961C109.422 187.024 109.445 187.085 109.47 187.146C109.483 187.178 109.497 187.211 109.512 187.242C109.54 187.307 109.575 187.37 109.609 187.428C109.624 187.454 109.636 187.478 109.651 187.502C109.704 187.588 109.763 187.671 109.827 187.75C110.235 188.245 110.837 188.559 111.282 189.023C111.282 189.041 111.282 189.06 111.282 189.076C111.282 189.128 111.282 189.178 111.282 189.23C111.305 190.263 111.589 191.274 112.107 192.177C112.626 193.079 113.364 193.845 114.257 194.408C114.257 194.478 114.266 194.55 114.27 194.621C114.307 195.171 114.3 195.722 114.249 196.271C114.171 196.182 114.074 196.112 113.964 196.064C113.855 196.017 113.735 195.994 113.615 195.997C113.533 195.993 113.451 196 113.371 196.017L113.354 196.005V196.021C112.934 196.121 112.416 196.545 111.922 197.751C111.922 197.751 110.417 199.396 109.271 199.328C108.126 199.259 105.225 201.04 105.225 201.04C105.225 201.04 102.395 202.822 101.788 204.637C101.449 205.666 101.042 206.674 100.57 207.653L97.0718 214.646L96.4265 220.194C96.4265 220.194 96.7835 222.662 96.7129 223.038C96.6422 223.414 98.1812 226.805 98.1812 226.805C98.1812 226.805 103.266 235.473 105.344 235.918L105.492 235.816C105.581 235.861 105.676 235.895 105.773 235.918L106.201 235.625C106.227 235.951 106.216 236.279 106.168 236.603C105.882 237.459 106.275 243.044 106.776 244.139C107.276 245.234 107.098 259.589 107.098 259.589L107.028 260.856C107.028 260.856 107.028 260.896 107.045 260.967L107.028 261.267L107.079 261.293C107.133 261.695 107.115 262.103 107.028 262.499C106.848 263.055 106.776 264.625 106.776 264.625C106.776 264.625 105.345 273.495 106.023 275.277C106.701 277.059 107.278 279.012 107.278 279.012C107.278 279.012 107.994 281.235 107.312 281.614C106.63 281.994 104.692 282.631 105.091 283.558C105.454 284.414 106.831 286.707 107.035 287.042L107.018 287.218L106.737 290.169C106.783 290.559 106.892 290.939 107.06 291.295C107.368 291.938 107.965 292.605 109.101 292.533C109.292 292.52 109.514 292.498 109.728 292.47C111.807 292.199 114.367 291.299 114.367 291.299C114.235 291.217 114.113 291.119 114.005 291.008C113.902 290.912 113.822 290.797 113.767 290.67C113.712 290.542 113.684 290.405 113.686 290.267C113.716 289.73 112.68 287.17 112.422 286.54C112.382 286.449 112.361 286.397 112.361 286.397C112.361 286.397 114.725 284 114.331 281.876C114.331 281.876 111.715 280.394 112.576 279.58C113.438 278.767 114.977 276.431 114.977 276.431C114.977 276.431 115.047 267.697 114.977 266.393C114.903 265.488 114.947 264.577 115.108 263.683C115.137 263.547 115.171 263.416 115.208 263.286C116.399 263.459 117.601 263.547 118.805 263.551C119.244 263.551 119.691 263.551 120.142 263.525C120.142 263.649 120.147 263.782 120.159 263.925C120.258 266.089 120.443 269.883 120.594 271.292C120.808 273.314 121.99 278.76 121.99 278.76C121.99 278.76 119.735 280.164 122.383 283.624C122.383 283.624 122.383 284.878 122.208 285.06C122.02 285.653 121.869 286.257 121.755 286.868C121.644 287.52 121.599 288.18 121.778 288.522C122.208 289.341 124.785 289.274 124.785 289.274L124.848 289.263C125.335 289.214 125.827 289.26 126.295 289.397C126.764 289.534 127.199 289.76 127.577 290.062C128.556 290.825 132.274 290.49 134.287 290.247C135.075 290.151 135.602 290.062 135.602 290.062C135.628 289.975 135.637 289.885 135.629 289.795C135.608 289.315 135.22 288.263 132.593 287.324C132.593 287.324 130.122 285.712 130.157 284.308H130.105H129.819C130.027 284.297 130.16 284.308 130.16 284.308C130.16 284.308 129.192 280.881 129.588 280.603C129.983 280.325 128.799 276.528 128.799 276.528C128.799 276.528 128.121 270.155 128.085 269.709C128.086 269.326 128.146 268.945 128.262 268.579L128.085 265.085C128.085 265.085 128.05 263.923 128.085 263.545C128.079 263.217 128.052 262.89 128.003 262.566C127.986 262.436 127.968 262.301 127.949 262.167C128.875 261.939 129.477 261.728 129.477 261.728L129.37 249.567C130.157 248.085 130.302 244.834 130.298 242.527C130.298 241.045 130.229 239.949 130.229 239.949L131.304 238.246C131.304 238.246 131.552 236.209 131.159 235.762C130.985 235.56 131.064 235.351 131.207 235.179C131.281 235.121 131.36 235.069 131.442 235.023C131.442 235.023 131.43 235.006 131.417 234.982C131.492 234.921 131.572 234.866 131.655 234.817C131.655 234.817 131.274 234.243 131.615 234C131.936 234.212 132.223 234.371 132.44 234.501C132.425 234.636 132.41 234.714 132.41 234.714L132.501 234.528C132.711 234.643 132.839 234.714 132.839 234.714C132.839 234.714 134.523 231.459 134.487 230.979C134.451 230.499 135.633 228.478 135.633 228.478C135.633 228.478 135.776 227.417 136.421 226.972C137.067 226.528 136.922 223.306 136.922 223.306C136.922 223.306 137.101 221.628 137.531 220.942C137.96 220.257 137.139 219.333 137.139 219.333ZM104.916 217.904L104.948 218.681C104.757 218.382 104.62 218.167 104.62 218.167L104.916 217.904Z" fill="url(#paint0_linear_170:249)"/>
<path d="M132.931 233.308L132.519 235.012C132.519 235.012 129.215 233.376 128.62 231.298C128.024 229.219 129.616 228.43 129.616 228.43L132.694 229.695L132.931 233.308Z" fill="white"/>
<path opacity="0.1" d="M132.931 233.308L132.519 235.012C132.519 235.012 129.215 233.376 128.62 231.298C128.024 229.219 129.616 228.43 129.616 228.43L132.694 229.695L132.931 233.308Z" fill="black"/>
<path d="M114.392 291.31C114.392 291.31 111.337 292.399 109.237 292.537C108.122 292.609 107.536 291.946 107.234 291.307C107.069 290.951 106.963 290.573 106.919 290.186L107.192 287.25L107.337 285.686L111.799 284.562L112.431 286.436L112.491 286.579C112.745 287.205 113.762 289.752 113.732 290.284C113.73 290.42 113.758 290.555 113.811 290.681C113.865 290.807 113.945 290.92 114.045 291.016C114.147 291.128 114.264 291.227 114.392 291.31Z" fill="white"/>
<path d="M135.261 289.817C135.268 289.906 135.259 289.996 135.234 290.082C135.234 290.082 128.7 291.14 127.363 290.082C126.986 289.773 126.547 289.544 126.074 289.409C125.6 289.275 125.103 289.237 124.614 289.3C124.614 289.3 122.085 289.367 121.663 288.559C121.488 288.22 121.534 287.563 121.642 286.914C121.754 286.307 121.901 285.706 122.085 285.116L122.187 285.038L122.788 284.569L129.83 284.367H129.884C129.849 285.764 132.274 287.366 132.274 287.366C134.85 288.293 135.23 289.339 135.261 289.817Z" fill="white"/>
<path opacity="0.1" d="M135.261 289.817C135.267 289.906 135.258 289.996 135.232 290.082C135.232 290.082 128.7 291.14 127.363 290.082C126.987 289.773 126.548 289.544 126.074 289.41C125.601 289.275 125.104 289.238 124.615 289.3C124.615 289.3 122.085 289.367 121.665 288.559C121.49 288.218 121.534 287.563 121.642 286.914C122.616 287.009 124.153 287.244 124.757 287.805C125.669 288.659 127.216 289.511 128.165 289.578C128.908 289.624 133.351 289.762 135.261 289.817Z" fill="black"/>
<path opacity="0.1" d="M114.392 291.31C114.392 291.31 111.337 292.399 109.237 292.537C108.122 292.609 107.536 291.946 107.236 291.305C108.013 291.558 109.092 291.825 109.659 291.581C110.331 291.292 112.714 291.105 114.051 291.025C114.152 291.133 114.267 291.229 114.392 291.31Z" fill="black"/>
<path d="M118.925 203.531C116.405 202.581 113.163 199.441 113.972 197.974C114.152 197.603 114.259 197.204 114.287 196.796C114.339 196.241 114.347 195.684 114.31 195.128C114.253 194.219 114.141 193.313 113.972 192.416C113.972 192.416 121.841 192.589 121.383 193.713C121.249 194.043 121.228 194.615 121.264 195.256C121.301 195.897 121.396 196.621 121.495 197.235C121.633 198.076 121.77 198.717 121.77 198.717C121.77 198.717 121.289 199.37 121.007 199.406C120.724 199.441 122.542 204.885 118.925 203.531Z" fill="#CF6F80"/>
<path opacity="0.1" d="M112.485 286.579L112.426 286.642C110.073 283.882 107.228 287.322 107.228 287.322L107.186 287.25L107.331 285.686L111.794 284.562L112.426 286.436L112.485 286.579Z" fill="black"/>
<path opacity="0.1" d="M129.885 284.562C129.885 284.562 128.167 284.526 127.25 285.312C126.334 286.097 121.904 285.482 122.095 285.312C122.152 285.227 122.186 285.131 122.194 285.03L122.796 284.562L129.838 284.36C129.864 284.484 129.885 284.562 129.885 284.562Z" fill="black"/>
<path d="M115.412 262.886C115.284 263.193 115.187 263.511 115.122 263.836C114.963 264.727 114.918 265.633 114.99 266.533C115.061 267.83 114.99 276.52 114.99 276.52C114.99 276.52 113.48 278.838 112.638 279.654C111.796 280.471 114.356 281.939 114.356 281.939C114.738 284.05 112.424 286.436 112.424 286.436C110.071 283.676 107.226 287.118 107.226 287.118C107.226 287.118 105.68 284.525 105.294 283.598C104.908 282.672 106.804 282.031 107.471 281.655C108.137 281.279 107.438 279.062 107.438 279.062C107.438 279.062 106.875 277.118 106.207 275.346C105.538 273.573 106.944 264.748 106.944 264.748C106.944 264.748 107.016 263.18 107.19 262.634C107.278 262.24 107.295 261.834 107.242 261.434C107.23 261.298 107.217 261.185 107.207 261.109C107.198 261.033 107.19 260.998 107.19 260.998L107.217 260.954L108.171 259.227C108.171 259.227 115.87 261.799 115.412 262.886Z" fill="#E36414"/>
<path d="M129.885 284.358C129.885 284.358 128.167 284.323 127.25 285.099C126.334 285.875 121.904 285.269 122.095 285.099C122.286 284.929 122.271 283.667 122.271 283.667C119.672 280.225 121.889 278.828 121.889 278.828C121.889 278.828 120.728 273.41 120.518 271.4C120.371 269.996 120.189 266.222 120.092 264.068C120.05 263.142 120.025 262.504 120.025 262.504L122.148 262.089L122.422 262.036L127.543 261.039C127.543 261.039 127.684 261.965 127.779 262.723C127.827 263.046 127.854 263.372 127.86 263.699C127.825 264.07 127.86 265.229 127.86 265.229L128.033 268.706C127.92 269.071 127.861 269.45 127.86 269.831C127.894 270.274 128.56 276.613 128.56 276.613C128.56 276.613 129.719 280.396 129.324 280.668C128.929 280.94 129.885 284.358 129.885 284.358Z" fill="#E36414"/>
<path opacity="0.1" d="M121.383 193.713C121.249 194.043 121.228 194.615 121.264 195.256C120.21 195.872 118.999 196.187 117.769 196.164C116.539 196.142 115.34 195.784 114.31 195.13C114.254 194.22 114.141 193.314 113.972 192.416C113.972 192.416 121.841 192.585 121.383 193.713Z" fill="black"/>
<path d="M124.425 189.619C124.426 190.287 124.318 190.95 124.104 191.585C123.625 193.006 122.644 194.218 121.334 195.005C120.024 195.793 118.469 196.106 116.944 195.889C115.419 195.672 114.022 194.939 113 193.819C111.979 192.7 111.398 191.266 111.36 189.771C111.36 189.719 111.36 189.671 111.36 189.619C111.345 188.778 111.503 187.942 111.825 187.16C112.147 186.379 112.626 185.667 113.234 185.067C113.842 184.467 114.567 183.99 115.367 183.665C116.167 183.339 117.026 183.172 117.893 183.172C118.761 183.172 119.62 183.339 120.42 183.665C121.22 183.99 121.945 184.467 122.553 185.067C123.161 185.667 123.64 186.379 123.962 187.16C124.283 187.942 124.441 188.778 124.426 189.619H124.425Z" fill="#CF6F80"/>
<path opacity="0.1" d="M118.925 203.531C116.405 202.581 113.163 199.441 113.972 197.974C114.152 197.603 114.259 197.204 114.287 196.796L117.738 199.546L119.872 201.245L121.495 197.236C121.633 198.077 121.77 198.718 121.77 198.718C121.77 198.718 121.289 199.372 121.007 199.407C120.724 199.443 122.542 204.885 118.925 203.531Z" fill="black"/>
<path d="M127.848 215.689L124.967 262.649L121.209 262.888L111.479 235.658L113.075 203.331L113.411 196.501L117.738 199.948L119.874 201.647L121.545 197.522L124.652 200.148L127.848 215.689Z" fill="#E36414"/>
<path opacity="0.1" d="M115.412 262.886C115.284 263.193 115.187 263.511 115.122 263.836C112.387 263.427 109.732 262.622 107.243 261.448L107.192 261.423L107.209 261.124L107.219 260.969L108.173 259.242C108.173 259.242 115.87 261.799 115.412 262.886Z" fill="black"/>
<path opacity="0.1" d="M122.192 263.844C121.493 263.959 120.788 264.037 120.081 264.077C120.039 263.151 120.014 262.514 120.014 262.514L122.137 262.099L122.192 263.844Z" fill="black"/>
<path opacity="0.1" d="M127.768 262.732C126.41 263.075 124.314 263.46 122.437 263.219L122.41 262.045L127.531 261.048C127.531 261.048 127.672 261.965 127.768 262.732Z" fill="black"/>
<path opacity="0.1" d="M122.402 263.434C114.574 264.731 107.404 261.013 107.404 261.013L107.473 259.753C107.473 259.753 107.65 245.473 107.158 244.378C106.665 243.283 106.281 237.731 106.56 236.879C106.839 236.027 105.542 223.249 105.542 223.249L105.332 218.062L97.6447 215.04L101.082 208.09C101.546 207.115 101.945 206.113 102.277 205.089C102.875 203.285 105.649 201.512 105.649 201.512C105.649 201.512 108.494 199.741 109.619 199.808C110.743 199.874 112.218 198.24 112.218 198.24C113.306 195.549 114.291 196.768 114.291 196.768C114.291 196.896 114.291 196.768 114.238 197.166C113.856 200.121 120.413 209.457 120.506 209.622L121.131 224.379L121.763 243.053L122.402 263.434Z" fill="black"/>
<path d="M122.192 263.434C114.364 264.731 107.192 261.013 107.192 261.013L107.263 259.753C107.263 259.753 107.44 245.473 106.946 244.378C106.451 243.283 106.069 237.731 106.35 236.879C106.631 236.027 105.332 223.249 105.332 223.249L105.12 218.062L97.429 215.029L100.866 208.079C101.329 207.104 101.728 206.102 102.061 205.078C102.657 203.274 105.433 201.501 105.433 201.501C105.433 201.501 108.278 199.73 109.401 199.796C110.524 199.863 112 198.229 112 198.229C113.09 195.538 114.291 196.757 114.291 196.757C114.291 196.884 114.177 196.942 114.238 197.155C115.078 200.021 120.203 209.446 120.296 209.611L120.928 224.368L121.56 243.042L122.192 263.434Z" fill="white"/>
<path opacity="0.1" d="M120.083 210.031C119.24 209.691 114.78 204.75 114.78 204.75V203.626C114.618 203.255 113.653 203.481 112.871 203.74L113.207 196.91L113.588 197.218C114.425 200.082 119.985 209.867 120.083 210.031Z" fill="black"/>
<path d="M120.294 209.622C119.45 209.281 114.99 204.341 114.99 204.341V203.216C114.828 202.846 113.863 203.072 113.081 203.331L113.419 196.501L113.8 196.808C114.639 199.672 120.201 209.459 120.294 209.622Z" fill="white"/>
<path opacity="0.1" d="M107.404 234.262C107.509 234.262 112.848 233.717 112.848 233.717C112.848 233.717 116.08 239.884 115.868 241.384C115.656 242.885 115.273 244.213 113.972 243.978C112.672 243.743 106.974 244.163 106.974 244.163L107.404 234.262Z" fill="black"/>
<path d="M107.192 233.852C107.297 233.852 112.636 233.308 112.636 233.308C112.636 233.308 115.866 239.476 115.656 240.975C115.446 242.474 115.059 243.804 113.76 243.568C112.462 243.333 106.762 243.754 106.762 243.754L107.192 233.852Z" fill="white"/>
<path d="M111.215 230.957C111.215 230.957 116.115 233.511 116.22 234.291C116.325 235.071 113.726 233.95 113.165 233.815C112.795 233.729 112.419 233.672 112.04 233.645L108.296 233.743L111.215 230.957Z" fill="#CF6F80"/>
<path opacity="0.1" d="M118.715 210.35C119 210.35 119.231 210.126 119.231 209.85C119.231 209.574 119 209.35 118.715 209.35C118.431 209.35 118.2 209.574 118.2 209.85C118.2 210.126 118.431 210.35 118.715 210.35Z" fill="black"/>
<path d="M118.715 210.146C119 210.146 119.231 209.922 119.231 209.646C119.231 209.37 119 209.146 118.715 209.146C118.431 209.146 118.2 209.37 118.2 209.646C118.2 209.922 118.431 210.146 118.715 210.146Z" fill="#3F3D56"/>
<path opacity="0.1" d="M119.664 232.002C119.949 232.002 120.18 231.778 120.18 231.501C120.18 231.225 119.949 231.001 119.664 231.001C119.38 231.001 119.149 231.225 119.149 231.501C119.149 231.778 119.38 232.002 119.664 232.002Z" fill="black"/>
<path d="M119.664 231.796C119.949 231.796 120.18 231.572 120.18 231.296C120.18 231.02 119.949 230.796 119.664 230.796C119.38 230.796 119.149 231.02 119.149 231.296C119.149 231.572 119.38 231.796 119.664 231.796Z" fill="#3F3D56"/>
<path opacity="0.1" d="M119.229 221.176C119.514 221.176 119.745 220.952 119.745 220.676C119.745 220.399 119.514 220.176 119.229 220.176C118.944 220.176 118.713 220.399 118.713 220.676C118.713 220.952 118.944 221.176 119.229 221.176Z" fill="black"/>
<path d="M119.229 220.972C119.514 220.972 119.745 220.748 119.745 220.472C119.745 220.196 119.514 219.972 119.229 219.972C118.944 219.972 118.713 220.196 118.713 220.472C118.713 220.748 118.944 220.972 119.229 220.972Z" fill="#3F3D56"/>
<path d="M131.113 233.541C131.113 233.541 131.465 234.052 131.113 234.291C130.762 234.53 131.148 235.108 131.148 235.108C131.148 235.108 130.271 235.607 130.657 236.055C131.043 236.503 130.798 238.528 130.798 238.528L129.744 240.221C129.744 240.221 129.807 241.312 129.811 242.787C129.811 245.087 129.672 248.322 128.9 249.796L129.007 261.895C129.007 261.895 125.316 263.203 122.227 262.804L121.768 243.391C121.768 243.391 122.437 232.381 122.683 230.27C122.827 229.173 122.886 228.068 122.859 226.963C122.859 226.963 122.754 223.658 122.401 222.124C122.401 222.124 122.019 215.479 121.98 213.64C121.963 212.76 122.011 210.193 122.064 207.751C122.124 205.082 122.19 202.564 122.19 202.564L121.494 197.214C121.494 197.214 122.19 197.146 122.401 197.418C122.495 197.503 122.597 197.58 122.706 197.646C123.909 198.435 128.159 200.862 128.159 200.862C128.159 200.862 130.512 201.769 131.075 203.07C131.638 204.37 132.03 205.293 132.303 205.663C132.576 206.034 132.725 207.775 132.725 207.775C132.725 207.775 133.534 210.98 134.166 211.523C134.798 212.065 135.261 215.518 135.261 215.518L129.675 219.779C129.675 219.779 129.185 226.867 129.08 227.141C128.975 227.415 131.113 233.541 131.113 233.541Z" fill="white"/>
<path d="M131.325 233.541C131.325 233.541 131.675 234.052 131.325 234.291C130.976 234.53 131.358 235.108 131.358 235.108C131.358 235.108 130.487 235.612 130.869 236.06C131.251 236.509 131.01 238.533 131.01 238.533L129.956 240.227C129.956 240.227 130.019 241.318 130.025 242.792C130.025 245.093 129.885 248.327 129.114 249.802L129.219 261.9C129.219 261.9 125.522 263.208 122.437 262.81L121.98 243.396C121.98 243.396 122.649 232.387 122.895 230.275C123.039 229.179 123.097 228.073 123.069 226.968C123.069 226.968 122.964 223.664 122.612 222.13C122.612 222.13 122.231 215.485 122.19 213.646C122.173 212.766 122.223 210.198 122.274 207.757C122.334 205.087 122.401 202.57 122.401 202.57L121.48 197.147C121.48 197.147 122.401 197.147 122.612 197.423C122.706 197.51 122.808 197.586 122.918 197.651C124.121 198.44 128.373 200.867 128.373 200.867C128.373 200.867 130.724 201.775 131.287 203.075C131.85 204.376 132.242 205.298 132.517 205.669C132.792 206.039 132.937 207.781 132.937 207.781C132.937 207.781 133.746 210.985 134.378 211.528C135.01 212.071 135.467 215.517 135.467 215.517L129.882 219.777C129.882 219.777 129.391 226.865 129.284 227.139C129.177 227.413 131.325 233.541 131.325 233.541Z" fill="white"/>
<path opacity="0.1" d="M124.636 204.142L125.141 205.569L122.486 208.162C122.546 205.495 122.612 202.975 122.612 202.975L121.692 197.553C121.692 197.553 122.612 197.553 122.824 197.829C122.917 197.915 123.02 197.991 123.13 198.055L125.387 204.372L124.636 204.142Z" fill="black"/>
<path d="M124.424 203.733L124.93 205.159L122.276 207.753C122.336 205.083 122.402 202.566 122.402 202.566L121.48 197.144C121.48 197.144 122.402 197.144 122.612 197.42C122.706 197.506 122.808 197.582 122.918 197.648L125.177 203.963L124.424 203.733Z" fill="white"/>
<path opacity="0.1" d="M124.425 189.619C124.426 190.287 124.318 190.95 124.104 191.585C124.068 191.59 124.031 191.588 123.995 191.58C123.96 191.571 123.927 191.556 123.898 191.535C123.848 189.867 123.002 188.302 121.961 186.97C121.669 186.568 121.315 186.212 120.911 185.914C120.503 185.617 119.995 185.477 119.487 185.523C118.914 185.599 118.408 185.977 117.829 186.025C117.066 186.086 116.382 185.573 115.624 185.547C115.316 185.55 115.012 185.617 114.732 185.743C114.453 185.868 114.204 186.051 114.003 186.277C113.605 186.734 113.309 187.267 113.134 187.841C112.834 188.711 112.67 189.62 112.649 190.538C112.64 191.057 112.588 191.707 112.092 191.896C112.129 191.514 112.084 191.129 111.96 190.766C111.836 190.402 111.636 190.067 111.372 189.782L111.36 189.771C111.36 189.719 111.36 189.671 111.36 189.619C111.345 188.778 111.503 187.942 111.825 187.16C112.147 186.379 112.626 185.667 113.234 185.067C113.842 184.467 114.567 183.99 115.367 183.665C116.167 183.339 117.026 183.172 117.893 183.172C118.761 183.172 119.62 183.339 120.42 183.665C121.22 183.99 121.945 184.467 122.553 185.067C123.161 185.667 123.64 186.379 123.962 187.16C124.283 187.942 124.441 188.778 124.426 189.619H124.425Z" fill="black"/>
<path d="M120.598 179.555C119.606 179.102 118.477 179.016 117.425 179.314C116.896 179.466 116.397 179.712 115.861 179.836C114.715 180.105 113.378 179.814 112.395 180.464C111.849 180.835 111.521 181.42 111.215 181.989L110.451 183.4C110.035 184.173 109.615 184.958 109.441 185.808C109.267 186.659 109.372 187.611 109.928 188.295C110.333 188.793 110.931 189.106 111.37 189.575C111.633 189.86 111.832 190.194 111.956 190.558C112.079 190.921 112.124 191.305 112.088 191.686C112.586 191.501 112.634 190.849 112.645 190.33C112.666 189.413 112.83 188.504 113.13 187.633C113.304 187.059 113.6 186.527 113.999 186.07C114.2 185.843 114.449 185.661 114.729 185.535C115.008 185.41 115.312 185.343 115.62 185.34C116.384 185.366 117.069 185.877 117.825 185.816C118.398 185.77 118.906 185.39 119.483 185.316C119.991 185.269 120.499 185.408 120.907 185.707C121.311 186.004 121.665 186.36 121.956 186.763C122.998 188.094 123.844 189.656 123.894 191.327C124.109 191.481 124.421 191.281 124.528 191.044C124.635 190.806 124.638 190.529 124.774 190.303C124.93 190.041 125.23 189.902 125.465 189.706C126.061 189.208 126.21 188.369 126.187 187.607C126.164 186.846 126.011 186.073 126.16 185.325C126.25 184.866 126.452 184.436 126.563 183.982C126.674 183.528 126.687 183.019 126.426 182.628C126.044 182.054 125.24 181.941 124.539 181.887C123.743 181.82 123.031 181.905 122.523 181.255C122.284 180.916 122.016 180.597 121.721 180.303C121.62 180.207 120.598 179.595 120.598 179.555Z" fill="#512E4E"/>
<path opacity="0.1" d="M99.8444 218.619L97.849 215.04L97.217 220.563C97.217 220.563 97.5683 223.015 97.4977 223.391C97.427 223.767 98.9374 227.139 98.9374 227.139C98.9374 227.139 103.927 235.76 105.964 236.205L112.848 231.433L111.022 229.184C111.022 229.184 110.39 228.945 110.232 229.184C110.232 229.184 106.842 223.527 106.491 223.117C106.14 222.708 106.209 221.891 106.209 221.891C106.209 221.891 105.682 221.346 105.857 220.835C106.033 220.324 104.839 218.551 104.839 218.551L105.928 217.564L99.8444 218.619Z" fill="black"/>
<path d="M97.954 214.633L97.427 215.04L96.795 220.563C96.795 220.563 97.1463 223.015 97.0757 223.391C97.005 223.767 98.5173 227.139 98.5173 227.139C98.5173 227.139 103.505 235.76 105.542 236.205L112.428 231.433L110.6 229.184C110.6 229.184 109.968 228.945 109.81 229.184C109.81 229.184 106.42 223.527 106.069 223.117C105.718 222.708 105.788 221.891 105.788 221.891C105.788 221.891 105.261 221.346 105.437 220.835C105.613 220.324 104.417 218.551 104.417 218.551L105.506 217.564L97.954 214.633Z" fill="white"/>
<path opacity="0.1" d="M130.657 236.266C131.039 236.716 130.798 238.737 130.798 238.737L129.744 240.43C129.744 240.43 129.807 241.523 129.811 242.996L128.039 243.533C127.879 243.582 127.709 243.592 127.544 243.564C127.379 243.536 127.223 243.47 127.089 243.372C126.956 243.273 126.848 243.145 126.776 242.998C126.704 242.852 126.669 242.69 126.674 242.527L126.979 232.967L131.113 234.501C130.762 234.738 131.148 235.319 131.148 235.319C131.148 235.319 130.271 235.816 130.657 236.266Z" fill="black"/>
<path d="M130.869 236.06C131.251 236.511 131.01 238.533 131.01 238.533L129.956 240.227C129.956 240.227 130.019 241.318 130.025 242.792L128.221 243.339C128.064 243.386 127.897 243.396 127.736 243.369C127.574 243.341 127.421 243.276 127.291 243.18C127.16 243.084 127.055 242.958 126.984 242.814C126.913 242.671 126.879 242.513 126.884 242.353L127.191 232.763L131.327 234.297C130.974 234.534 131.36 235.114 131.36 235.114C131.36 235.114 130.487 235.612 130.869 236.06Z" fill="white"/>
<path d="M132.238 231.503C132.238 231.503 131.957 233.243 131.255 233.345C130.552 233.447 130.237 236.159 129.536 236.062C128.835 235.966 129.299 233.541 129.324 233.071C129.349 232.6 128.56 230.651 129.15 230.208C129.74 229.766 131.608 230.208 131.608 230.208L132.238 231.503Z" fill="#CF6F80"/>
<path opacity="0.1" d="M133.733 218.108L135.058 215.515C135.058 215.515 135.585 217.491 135.585 218.547C135.585 219.603 136.322 219.707 136.322 219.707C136.322 219.707 137.13 220.633 136.704 221.307C136.278 221.982 136.106 223.66 136.106 223.66C136.106 223.66 136.246 226.863 135.614 227.306C134.982 227.748 134.85 228.806 134.85 228.806C134.85 228.806 133.689 230.816 133.725 231.294C133.762 231.772 132.11 235.008 132.11 235.008C132.11 235.008 132.918 230.986 128.211 229.249C128.211 229.249 128.175 227.884 128.526 227.509C128.877 227.135 129.425 226.965 129.082 225.073C128.738 223.182 128.982 220.922 128.982 220.468C128.982 220.014 130.036 217.184 130.036 217.184L133.733 218.108Z" fill="black"/>
<path d="M134.306 215.144L135.463 215.515C135.463 215.515 135.992 217.491 135.992 218.547C135.992 219.603 136.729 219.707 136.729 219.707C136.729 219.707 137.537 220.633 137.111 221.307C136.685 221.982 136.515 223.66 136.515 223.66C136.515 223.66 136.654 226.863 136.022 227.306C135.39 227.748 135.249 228.806 135.249 228.806C135.249 228.806 134.09 230.816 134.126 231.294C134.163 231.772 132.509 235.008 132.509 235.008C132.509 235.008 133.319 230.986 128.61 229.249C128.61 229.249 128.576 227.884 128.927 227.509C129.278 227.135 129.826 226.965 129.483 225.073C129.139 223.182 129.383 220.922 129.383 220.468C129.383 220.014 130.437 217.184 130.437 217.184L134.306 215.144Z" fill="white"/>
<path opacity="0.1" d="M108.748 282.365C108.748 282.365 110.593 281.24 111.803 282.057C113.014 282.874 108.748 282.365 108.748 282.365Z" fill="black"/>
<path opacity="0.1" d="M123.08 278.888C123.08 278.888 124.713 278.684 126.084 280.116C127.455 281.548 123.08 278.888 123.08 278.888Z" fill="black"/>
<g opacity="0.1">
<path opacity="0.1" d="M125.469 189.3C125.234 189.497 124.932 189.638 124.776 189.899C124.642 190.123 124.638 190.399 124.531 190.64C124.425 190.881 124.113 191.077 123.898 190.925C123.848 189.258 123 187.692 121.959 186.359C121.669 185.956 121.315 185.6 120.911 185.303C120.502 185.005 119.994 184.865 119.485 184.912C118.912 184.988 118.408 185.366 117.829 185.412C117.066 185.475 116.38 184.962 115.622 184.936C115.314 184.939 115.01 185.006 114.731 185.132C114.452 185.258 114.203 185.441 114.003 185.668C113.604 186.124 113.308 186.656 113.134 187.229C112.834 188.1 112.671 189.009 112.649 189.927C112.638 190.443 112.588 191.088 112.095 191.281C112.107 191.418 112.107 191.555 112.095 191.692C112.592 191.507 112.641 190.855 112.653 190.336C112.674 189.418 112.838 188.509 113.138 187.639C113.312 187.065 113.608 186.532 114.007 186.075C114.208 185.849 114.456 185.667 114.735 185.541C115.014 185.415 115.318 185.349 115.626 185.345C116.39 185.371 117.077 185.883 117.833 185.822C118.406 185.775 118.914 185.395 119.489 185.321C119.998 185.275 120.506 185.414 120.915 185.712C121.319 186.009 121.672 186.366 121.963 186.768C123.004 188.1 123.852 189.662 123.901 191.333C124.117 191.486 124.428 191.286 124.535 191.049C124.642 190.812 124.646 190.534 124.78 190.308C124.936 190.047 125.238 189.908 125.473 189.712C126.069 189.213 126.217 188.374 126.195 187.613C126.195 187.589 126.195 187.565 126.195 187.542C126.158 188.202 125.977 188.874 125.469 189.3Z" fill="black"/>
<path opacity="0.1" d="M111.374 189.169C110.934 188.7 110.335 188.387 109.932 187.891C109.593 187.451 109.399 186.922 109.376 186.374C109.316 187.059 109.514 187.743 109.932 188.298C110.335 188.797 110.934 189.11 111.374 189.578C111.795 190.037 112.048 190.618 112.093 191.231C112.123 190.858 112.074 190.483 111.95 190.129C111.827 189.774 111.63 189.448 111.374 189.169Z" fill="black"/>
<path opacity="0.1" d="M126.567 183.576C126.454 184.03 126.254 184.462 126.162 184.919C126.108 185.225 126.088 185.536 126.103 185.846C126.109 185.669 126.129 185.493 126.162 185.319C126.254 184.86 126.454 184.43 126.567 183.976C126.633 183.726 126.654 183.467 126.63 183.21C126.618 183.333 126.597 183.456 126.567 183.576Z" fill="black"/>
</g>
<path opacity="0.1" d="M74.3439 289.897C84.6195 289.897 92.9494 288.599 92.9494 286.998C92.9494 285.397 84.6195 284.099 74.3439 284.099C64.0684 284.099 55.7384 285.397 55.7384 286.998C55.7384 288.599 64.0684 289.897 74.3439 289.897Z" fill="#E36414"/>
<path d="M74.9435 231.461H73.7463V257.612H74.9435V231.461Z" fill="#535461"/>
<path d="M82.4666 257.532L82.3921 258.711L82.2852 260.378L82.2413 261.071L82.1363 262.738L82.0904 263.431L81.9835 265.098L80.7768 284.006C80.7243 284.819 80.3543 285.583 79.742 286.141C79.1298 286.699 78.3213 287.01 77.4811 287.011H71.2067C70.3667 287.01 69.5584 286.699 68.9465 286.141C68.3345 285.583 67.9649 284.819 67.9129 284.006L66.7119 265.085L66.6049 263.418L66.561 262.725L66.4541 261.058L66.4102 260.365L66.3033 258.698L66.2269 257.519C66.2136 257.293 66.2482 257.066 66.3286 256.852C66.409 256.639 66.5335 256.444 66.6944 256.279C66.8554 256.114 67.0493 255.983 67.2644 255.893C67.4795 255.803 67.7113 255.757 67.9454 255.758H80.7787C81.0119 255.76 81.2422 255.808 81.4555 255.9C81.6687 255.991 81.8603 256.124 82.0185 256.291C82.1767 256.457 82.298 256.653 82.3751 256.866C82.4522 257.08 82.4833 257.307 82.4666 257.532Z" fill="#3F3D56"/>
<path d="M82.3922 258.711L82.2852 260.372H66.4026L66.2957 258.711H82.3922Z" fill="#9D9CB5"/>
<path d="M82.2413 261.065L82.1363 262.729H66.5534L66.4465 261.065H82.2413Z" fill="#9D9CB5"/>
<path d="M82.0904 263.423L81.9854 265.085H66.7042L66.5973 263.423H82.0904Z" fill="#9D9CB5"/>
<path d="M64.4679 241.262C71.4392 246.156 74.3492 253.811 74.3492 253.811C74.3492 253.811 65.9477 253.531 58.9744 248.637C52.0012 243.743 49.0969 236.09 49.0969 236.09C49.0969 236.09 57.4946 236.368 64.4679 241.262Z" fill="#E36414"/>
<path d="M49.0912 236.09C49.0912 236.09 57.8135 240.786 60.6109 244.674C63.4082 248.563 74.3492 253.811 74.3492 253.811" stroke="#535461" stroke-width="2" stroke-miterlimit="10"/>
<path d="M68.9688 231.403C72.7629 234.065 74.3496 238.231 74.3496 238.231C74.3496 238.231 69.7765 238.08 65.9806 235.418C62.1846 232.756 60.6017 228.588 60.6017 228.588C60.6017 228.588 65.1729 228.739 68.9688 231.403Z" fill="#E36414"/>
<path d="M60.6017 228.588C60.6017 228.588 65.3485 231.144 66.8704 233.259C68.3922 235.375 74.3496 238.231 74.3496 238.231" stroke="#535461" stroke-width="2" stroke-miterlimit="10"/>
<path d="M79.8583 238.02C75.4991 242.668 74.5768 248.742 74.5768 248.742C74.5768 248.742 80.7233 247.279 85.0787 242.629C89.4341 237.98 90.3602 231.907 90.3602 231.907C90.3602 231.907 84.2176 233.372 79.8583 238.02Z" fill="#E36414"/>
<path d="M90.364 231.909C90.364 231.909 84.6854 236.674 83.2419 239.956C81.7983 243.239 74.5768 248.742 74.5768 248.742" stroke="#535461" stroke-width="2" stroke-miterlimit="10"/>
<path d="M239.88 236.385C239.88 236.385 236.728 221.168 237.935 219.275C237.935 219.275 237.978 217.515 237.906 215.272C237.906 215.187 237.906 215.102 237.906 215.015C238.118 215.152 238.34 215.276 238.568 215.385C239.68 215.939 240.957 216.099 242.177 215.837L241.223 214.805C240.993 214.559 240.755 214.292 240.705 213.966C240.655 213.64 240.793 213.349 240.911 213.058C241.818 210.835 241.866 208.04 240.119 206.343C238.643 204.917 238.284 203.075 236.682 201.773C235.511 200.819 234.868 199.42 234.261 198.068C233.747 196.925 233.23 195.773 232.936 194.561C232.707 193.615 232.615 192.635 232.3 191.71C231.985 190.786 231.395 189.888 230.472 189.475C230.144 189.328 229.779 189.245 229.48 189.05C229.086 188.793 228.849 188.374 228.565 188.007C227.12 186.155 222.279 187.246 219.988 187.998C219.365 188.188 218.788 188.498 218.292 188.91L218.313 188.876C218.33 188.848 218.351 188.821 218.371 188.793C218.12 188.99 217.903 189.224 217.729 189.488C217.395 190.001 217.255 190.599 216.977 191.155C216.641 191.812 214.771 193.648 215.575 194.387C215.631 194.437 215.696 194.477 215.766 194.506C216.068 194.628 216.4 194.66 216.721 194.598L216.686 194.678C216.412 195.33 216.271 196.028 216.272 196.733C216.272 199.776 218.859 202.244 222.054 202.244C222.654 202.244 223.251 202.155 223.824 201.979C223.837 202.049 223.849 202.119 223.862 202.19C223.862 202.218 223.872 202.245 223.875 202.273L223.774 202.41C223.769 202.402 223.763 202.394 223.757 202.386L220.759 206.451C220.301 206.764 217.662 208.616 217.513 210.005C217.357 211.526 217.2 213.307 217.2 213.307L217.179 213.688C217.048 213.794 216.895 213.872 216.73 213.915C216.565 213.958 216.393 213.966 216.224 213.938C215.289 213.79 215.289 217.273 215.289 217.273C215.289 217.273 214.666 217.828 214.239 217.347C213.811 216.865 212.68 218.497 212.68 218.497L205.596 218.794L205.434 218.803L205.052 217.656C205.011 217.535 204.922 217.435 204.806 217.377C204.689 217.319 204.553 217.308 204.428 217.347C204.398 217.356 204.37 217.368 204.342 217.382L204.315 217.397L204.266 217.43L204.241 217.452C204.227 217.464 204.214 217.477 204.203 217.491L204.18 217.517L204.168 217.528C204.124 217.587 204.095 217.656 204.083 217.728C204.071 217.8 204.077 217.874 204.099 217.943L204.428 218.927C203.061 219.194 201.663 219.946 202.803 222.017L197.025 220.981L198.894 222.504L208.545 224.436C208.417 224.658 208.501 224.981 208.9 225.435C210.618 227.393 213.75 227.924 215.01 228.061C215.343 228.784 215.758 229.467 216.249 230.099L216.14 232.05C216.14 232.05 212.95 246.918 212.365 247.672C212.66 247.347 212.93 247.003 213.173 246.64C212.247 249.695 210.952 253.876 210.612 254.502C210.066 255.502 209.56 259.55 210.183 259.809C210.374 259.889 210.92 259.85 211.699 259.792V260.128L211.665 272.834C211.665 272.834 211.821 280.627 211.392 281.37C210.962 282.113 210.847 283.671 210.847 283.671C210.847 283.671 209.129 286.744 207.767 287.979C207.758 287.989 207.748 287.998 207.737 288.005L207.695 287.716C207.695 287.716 206.058 289.721 202.438 289.608C202.438 289.608 200.26 290.982 203.49 291.056C206.721 291.131 210.847 290.945 210.847 290.945C210.847 290.945 213.729 286.685 216.142 287.24V290.469H216.881V287.188C217.224 286.97 217.517 286.686 217.743 286.353C217.969 286.021 218.124 285.648 218.197 285.256C218.26 284.853 218.214 284.44 218.062 284.059C217.911 283.678 217.66 283.342 217.334 283.083C217.187 282.955 217.07 282.798 216.988 282.624C216.907 282.449 216.864 282.26 216.862 282.068L216.835 282.091C216.835 282.026 216.818 281.959 216.811 281.89C216.599 280.223 216.333 276.783 217.271 274.238C218.556 270.748 218.945 265.887 218.01 262.993C217.708 262.068 217.46 261.128 217.267 260.176C217.244 260.055 217.223 259.941 217.204 259.833C217.843 259.917 218.477 260.041 219.1 260.204C221.267 260.783 226.008 260.891 230.056 260.859C230.066 260.967 230.077 261.08 230.091 261.193C230.163 261.978 230.314 262.755 230.541 263.512C231.049 264.994 231.282 271.528 231.282 271.528C231.282 271.528 231.937 276.9 231.58 279.086C231.389 280.301 231.198 281.522 231.089 282.748V282.772C231.089 282.772 230.016 285.736 229.231 287.346C229.212 287.387 229.191 287.427 229.172 287.466C228.963 287.485 228.757 287.529 228.559 287.598C228.559 287.598 227.507 289.636 226.459 289.973C225.411 290.31 225.758 291.42 228.132 291.012C230.505 290.604 234.089 290.271 234.089 290.271L234.244 288.193L234.973 287.307L234.782 289.38L235.559 289.232L235.456 286.711L236.65 285.262C236.65 285.262 238.091 284.017 235.949 281.568V281.622C235.926 281.587 235.905 281.55 235.88 281.514V281.503C235.525 280.97 235.242 279.975 235.76 278.21C236.695 275.02 237.24 272.124 237.24 272.124C237.24 272.124 239.328 264.368 236.818 260.698H236.928C236.671 260.182 236.489 259.633 236.388 259.068C236.375 259.001 236.364 258.933 236.354 258.862C238.211 258.759 240.035 258.433 241.522 257.729C241.517 257.721 240.621 239.315 239.88 236.385ZM216.293 223.547V223.584L215.911 223.603L216.293 223.547ZM214.983 223.723C214.92 223.736 214.862 223.764 214.811 223.803C214.647 224.028 214.544 224.29 214.512 224.564L213.916 224.434C213.916 224.434 213.498 224.347 212.896 224.249L212.612 223.971C213.395 223.908 214.208 223.816 214.983 223.723Z" fill="url(#paint1_linear_170:249)"/>
<path d="M234.694 286.736L234.467 289.361L235.229 289.213L235.114 286.366L234.694 286.736Z" fill="#1D2366"/>
<path d="M217.313 274.273C216.394 276.811 216.654 280.236 216.86 281.9C216.937 282.515 217.007 282.889 217.007 282.889C217.007 282.889 215.634 285.923 215.52 286.038C215.405 286.153 211.479 288.478 211.479 288.478L208.736 290.032C208.736 290.032 205.952 288.848 207.286 288.441C207.559 288.335 207.805 288.172 208.006 287.965C209.343 286.733 211.021 283.671 211.021 283.671C211.021 283.671 211.136 282.116 211.556 281.377C211.976 280.638 211.823 272.871 211.823 272.871L211.856 260.209V258.559L217.078 258.596C217.111 259.156 217.186 259.713 217.303 260.263C217.491 261.212 217.733 262.149 218.031 263.071C218.951 265.959 218.569 270.796 217.313 274.273Z" fill="#FFB0B1"/>
<path opacity="0.1" d="M217.007 282.889C217.007 282.889 215.634 285.923 215.52 286.038C215.405 286.153 211.479 288.478 211.479 288.478L208.736 290.032C208.736 290.032 205.952 288.848 207.286 288.441C207.559 288.335 207.805 288.172 208.006 287.965L208.125 288.774L209.039 288.737L216.868 281.903C216.937 282.515 217.007 282.889 217.007 282.889Z" fill="black"/>
<path d="M216.912 282.076L209.039 288.956L208.125 288.993L207.934 287.696C207.934 287.696 206.333 289.693 202.778 289.582C202.778 289.582 200.643 290.951 203.807 291.025C206.971 291.099 211.012 290.914 211.012 290.914C211.012 290.914 213.834 286.653 216.196 287.209V290.427H216.921V287.179C217.259 286.959 217.547 286.675 217.768 286.344C217.989 286.012 218.139 285.641 218.208 285.253C218.271 284.852 218.227 284.443 218.079 284.064C217.932 283.685 217.686 283.349 217.366 283.089C217.223 282.959 217.109 282.802 217.031 282.628C216.953 282.454 216.912 282.266 216.912 282.076Z" fill="#1D2366"/>
<path d="M235.42 278.23C234.912 279.99 235.189 280.981 235.536 281.513V281.524C235.982 282.18 236.292 282.914 236.449 283.685L236.48 283.852L232.897 288.919L230.954 289.66C230.954 289.66 227.828 288.624 228.399 288.328C228.542 288.256 228.765 287.87 229.021 287.339C229.785 285.736 230.839 282.78 230.839 282.78V282.756C230.95 281.535 231.126 280.318 231.32 279.106C231.67 276.926 231.028 271.574 231.028 271.574C231.028 271.574 230.799 265.066 230.303 263.586C230.078 262.834 229.929 262.062 229.858 261.282C229.755 260.355 229.732 259.592 229.732 259.592C229.732 259.592 231.79 256.814 235.563 259.815C235.865 260.054 236.13 260.333 236.352 260.644C238.958 264.242 236.86 272.167 236.86 272.167C236.86 272.167 236.334 275.049 235.42 278.23Z" fill="#FFB0B1"/>
<path opacity="0.1" d="M236.485 283.852L232.903 288.919L230.959 289.66C230.959 289.66 227.834 288.624 228.405 288.328C228.548 288.256 228.771 287.87 229.027 287.339C230.35 287.327 231.036 288.55 231.036 288.55L232.712 288.291C232.712 288.291 234.923 284.075 235.42 283.817C235.916 283.56 235.496 281.892 235.496 281.892V281.468C235.51 281.483 235.521 281.5 235.536 281.514V281.526C235.982 282.182 236.292 282.916 236.449 283.687L236.485 283.852Z" fill="black"/>
<path d="M231.15 288.659C231.15 288.659 230.196 286.959 228.366 287.587C228.366 287.587 227.337 289.625 226.308 289.954C225.279 290.284 225.623 291.395 227.948 290.99C230.274 290.584 233.78 290.249 233.78 290.249L233.932 288.176L236.296 285.255C236.296 285.255 237.705 284.015 235.609 281.576V282C235.609 282 236.029 283.667 235.533 283.924C235.036 284.182 232.833 288.4 232.833 288.4L231.15 288.659Z" fill="#1D2366"/>
<path opacity="0.1" d="M217.084 258.592C217.117 259.152 217.192 259.71 217.309 260.259C215.159 259.954 213.164 260.105 211.856 260.205V258.555L217.084 258.592Z" fill="black"/>
<path opacity="0.1" d="M236.564 261.106C236.564 261.106 233.509 261.25 229.865 261.28C229.762 260.354 229.739 259.59 229.739 259.59C229.739 259.59 231.798 256.812 235.571 259.813C235.872 260.052 236.138 260.331 236.359 260.643C236.418 260.801 236.487 260.955 236.564 261.106Z" fill="black"/>
<path d="M236.564 260.772C236.564 260.772 223.182 261.4 219.104 260.291C215.025 259.181 210.983 260.142 210.374 259.885C209.765 259.627 210.259 255.595 210.794 254.596C211.329 253.598 214.261 243.5 214.261 243.5L217.084 229.225L220.057 228.43L220.267 228.373L225.447 226.987L229.243 225.97C229.243 225.97 236.791 254.559 236.143 256.667C235.908 257.474 235.871 258.324 236.033 259.148C236.132 259.71 236.31 260.257 236.564 260.772Z" fill="#1D2366"/>
<path d="M207.246 219.462C207.246 219.462 204.573 222.241 206.597 223.79C208.621 225.338 209.952 223.938 209.952 223.938L207.246 219.462Z" fill="#C7DAF5"/>
<path opacity="0.1" d="M207.246 219.462C207.246 219.462 204.573 222.241 206.597 223.79C208.621 225.338 209.952 223.938 209.952 223.938L207.246 219.462Z" fill="black"/>
<path d="M228.844 201.193C228.844 201.193 228.531 201.482 228.059 201.908C227.387 202.518 226.392 203.409 225.51 204.155C224.288 205.187 223.28 205.945 223.641 205.298C224.001 204.652 223.933 203.526 223.753 202.471C223.74 202.401 223.728 202.331 223.715 202.262C223.566 201.488 223.369 200.723 223.125 199.972C223.125 199.972 225.099 197.498 226.192 196.521C226.598 196.151 226.883 195.999 226.9 196.256C226.919 196.603 227.186 197.368 227.519 198.179C227.528 198.205 227.538 198.229 227.549 198.255C227.771 198.811 228.021 199.382 228.24 199.874C228.576 200.63 228.844 201.193 228.844 201.193Z" fill="#FFB0B1"/>
<path opacity="0.1" d="M227.549 198.255C227.364 199.223 226.913 200.125 226.246 200.867C225.578 201.609 224.717 202.163 223.753 202.471C223.601 201.626 223.392 200.791 223.125 199.972C223.125 199.972 226.843 195.314 226.9 196.256C226.913 196.614 227.204 197.407 227.549 198.255Z" fill="black"/>
<path opacity="0.1" d="M223.383 203.716L223.864 203.059C223.864 203.059 224.183 204.944 225.355 204.113C226.528 203.281 226.585 210.372 226.585 210.372L225.327 228.625L216.234 228.097L216.492 219.277L217.521 214.831L220.066 208.368L221.58 206.232L223.383 203.716Z" fill="black"/>
<path d="M226.585 210.485L225.439 226.989L225.319 228.738L220.249 228.443L220.058 228.432L216.24 228.21L216.497 219.388L217.527 214.942L220.072 208.479L221.586 206.343L223.389 203.818L223.87 203.162C223.87 203.162 224.189 205.048 225.361 204.216L225.386 204.2C226.531 203.496 226.585 210.485 226.585 210.485Z" fill="#1D2366"/>
<path d="M217.655 213.397C217.655 213.397 217.198 214.324 216.282 214.174C215.365 214.023 215.367 217.508 215.367 217.508C215.367 217.508 214.758 218.064 214.338 217.582C213.918 217.1 212.81 218.729 212.81 218.729L205.871 219.025C205.871 219.025 208.959 220.394 208.354 224.536C208.354 224.536 218.836 223.906 219.18 222.945C219.524 221.984 217.655 213.397 217.655 213.397Z" fill="white"/>
<path opacity="0.03" d="M217.655 213.397C217.655 213.397 217.198 214.324 216.282 214.174C215.365 214.023 215.367 217.508 215.367 217.508C215.367 217.508 214.758 218.064 214.338 217.582C213.918 217.1 212.81 218.729 212.81 218.729L205.871 219.025C205.871 219.025 208.959 220.394 208.354 224.536C208.354 224.536 218.836 223.906 219.18 222.945C219.524 221.984 217.655 213.397 217.655 213.397Z" fill="black"/>
<path d="M197.489 221.202L199.318 222.717L214.376 225.787L212.509 223.938L197.489 221.202Z" fill="white"/>
<path d="M223.411 204.3C223.161 204.67 222.445 206.567 221.848 208.223C221.349 209.603 220.933 210.817 220.933 210.817C220.933 210.817 219.961 216.956 219.465 218.066C218.968 219.175 219.237 223.503 219.237 223.503L217.387 234.189C217.387 234.189 216.549 239.7 215.254 242.992C213.977 246.232 212.554 247.751 212.51 247.799C213.083 247.047 216.205 232.239 216.205 232.239L217.236 213.562C217.236 213.562 217.387 211.788 217.54 210.27C217.693 208.753 220.786 206.682 220.786 206.682L223.768 202.568C224.068 202.957 223.868 203.635 223.411 204.3Z" fill="white"/>
<path d="M215.634 228.302C215.634 228.302 211.243 228.117 209.115 225.638C206.988 223.16 214.032 224.649 214.032 224.649L215.863 225.057L215.634 228.302Z" fill="#FFB0B1"/>
<path opacity="0.1" d="M236.143 256.669C235.908 257.476 235.87 258.326 236.033 259.149C231.242 259.479 226.117 258.223 226.117 258.223C225.162 259.075 222.648 260.331 222.648 260.331L221.277 243.844C220.4 241.621 220.057 229.975 220.057 229.975C220.057 229.975 220.135 229.366 220.248 228.452C220.248 228.43 220.248 228.406 220.257 228.384C220.599 225.833 221.277 221.044 221.609 220.398C222.067 219.509 220.2 217.143 220.2 217.143L221.049 210.113L221.153 209.264C222.944 208.488 224.317 206.01 224.317 206.01L225.37 204.218C226.516 203.505 226.575 210.494 226.575 210.494L225.43 226.998L229.226 225.981C229.226 225.981 236.791 254.561 236.143 256.669Z" fill="black"/>
<path d="M241.06 257.808C235.838 260.324 226.346 257.994 226.346 257.994C225.392 258.846 222.877 260.102 222.877 260.102L221.504 243.615C220.629 241.392 220.286 229.745 220.286 229.745C220.286 229.745 221.389 221.055 221.848 220.168C221.981 219.909 221.916 219.523 221.758 219.108C220.979 217.133 220.692 215.008 220.922 212.905L221.288 209.883L221.389 209.037C223.182 208.259 224.555 205.78 224.555 205.78L225.51 204.157L227.267 201.167L228.099 199.752L228.24 199.876L229.319 200.825C229.319 200.825 229.777 201.195 230.465 201.751C231.96 202.973 234.543 205.126 235.876 206.443C237.049 207.603 237.419 212.114 237.526 215.509C237.597 217.745 237.555 219.497 237.555 219.497C236.373 221.385 239.464 236.54 239.464 236.54C240.184 239.469 241.06 257.808 241.06 257.808Z" fill="white"/>
<path opacity="0.03" d="M231.036 205.743C231.036 205.743 227.452 212.362 227.868 214.877C228.284 217.393 229.468 220.24 228.897 220.905C228.701 221.157 228.448 221.362 228.156 221.503C227.865 221.644 227.544 221.718 227.219 221.719C226.646 221.756 225.118 222.791 225.118 222.902C225.118 223.013 223.707 223.013 222.445 223.532C221.183 224.051 219.32 224.345 219.32 224.345C219.32 224.345 215.692 224.234 215.354 224.568C215.016 224.901 214.668 226.896 215.392 228.487C216.116 230.079 216.919 231.266 217.527 231.483C218.134 231.7 221.987 230.447 225.113 230.151C228.238 229.855 231.632 227.452 231.632 227.452C231.632 227.452 235.368 226.155 236.023 223.975C236.678 221.795 235.223 209.811 235.223 209.811C235.223 209.811 234.123 204.226 231.036 205.743Z" fill="black"/>
<path opacity="0.03" d="M230.578 205.187C230.578 205.187 226.994 211.808 227.414 214.322C227.834 216.835 229.014 219.685 228.441 220.351C228.245 220.604 227.992 220.808 227.701 220.95C227.41 221.091 227.09 221.164 226.764 221.165C226.192 221.202 224.664 222.237 224.664 222.348C224.664 222.46 223.253 222.46 221.991 222.976C220.729 223.493 218.865 223.79 218.865 223.79C218.865 223.79 215.237 223.678 214.901 224.012C214.565 224.345 214.214 226.342 214.939 227.932C215.665 229.521 216.467 230.71 217.074 230.927C217.681 231.144 221.534 229.892 224.66 229.597C227.786 229.303 231.179 226.896 231.179 226.896C231.179 226.896 234.914 225.599 235.561 223.421C236.208 221.242 234.761 209.255 234.761 209.255C234.761 209.255 233.665 203.672 230.578 205.187Z" fill="black"/>
<path d="M230.923 205.409C230.923 205.409 227.339 212.03 227.759 214.544C228.179 217.058 229.359 219.907 228.788 220.572C228.593 220.825 228.34 221.03 228.048 221.171C227.757 221.313 227.436 221.387 227.11 221.387C226.537 221.424 225.01 222.46 225.01 222.569C225.01 222.678 223.6 222.68 222.336 223.199C221.072 223.717 219.211 224.012 219.211 224.012C219.211 224.012 215.583 223.901 215.245 224.234C214.907 224.568 214.559 226.565 215.283 228.154C216.007 229.743 216.811 230.933 217.418 231.149C218.025 231.366 221.878 230.114 225.004 229.818C228.13 229.521 231.523 227.119 231.523 227.119C231.523 227.119 235.259 225.822 235.914 223.641C236.569 221.461 235.124 209.477 235.124 209.477C235.124 209.477 234.009 203.902 230.923 205.409Z" fill="white"/>
<path opacity="0.1" d="M230.845 223.167C230.845 223.167 227.981 222.612 228.977 223.538C229.974 224.464 229.968 225.275 231.189 225.238C232.409 225.201 230.845 223.167 230.845 223.167Z" fill="black"/>
<path opacity="0.1" d="M235.685 243.096C235.685 243.096 234.391 243.946 236.867 245.906C239.344 247.866 235.685 243.096 235.685 243.096Z" fill="black"/>
<path opacity="0.1" d="M233.214 250.085C233.214 250.197 232.756 254.161 234.471 255.152C236.185 256.143 233.214 250.085 233.214 250.085Z" fill="black"/>
<path d="M205.99 219.016C204.607 219.062 201.621 219.472 203.17 222.274C204.539 224.755 206.839 223.097 208.134 221.839C207.818 220.666 207.051 219.656 205.99 219.016Z" fill="#FFB0B1"/>
<path d="M208.151 221.818L208.208 221.759L208.151 221.818Z" fill="#FFB0B1"/>
<path opacity="0.1" d="M230.465 201.864C228.998 202.836 227.769 203.657 227.528 203.827C226.871 204.3 225.619 207.073 224.811 208.488C224.168 209.628 222.077 209.92 221.288 209.992L221.389 209.146C223.182 208.368 224.555 205.889 224.555 205.889L228.099 199.861L229.319 200.938C229.319 200.938 229.777 201.308 230.465 201.864Z" fill="black"/>
<path d="M230.465 201.753C228.998 202.725 227.769 203.546 227.528 203.718C226.871 204.189 225.619 206.962 224.811 208.377C224.168 209.516 222.077 209.809 221.288 209.881L221.389 209.035C223.182 208.257 224.555 205.778 224.555 205.778L228.099 199.75L229.319 200.823C229.319 200.823 229.777 201.19 230.465 201.753Z" fill="#DCE7FF"/>
<path d="M227.643 197.033C227.644 198.145 227.296 199.231 226.646 200.147C225.878 201.23 224.736 202.01 223.426 202.346C222.117 202.681 220.726 202.551 219.507 201.977C218.288 201.403 217.322 200.425 216.783 199.219C216.244 198.013 216.169 196.659 216.571 195.404C216.973 194.149 217.825 193.075 218.973 192.377C220.121 191.68 221.489 191.404 222.828 191.601C224.168 191.798 225.39 192.455 226.273 193.451C227.157 194.448 227.643 195.718 227.643 197.033Z" fill="#FFB0B1"/>
<path opacity="0.1" d="M237.526 215.511C236.751 215.048 236.119 214.39 235.699 213.607C235.38 212.995 235.168 212.29 234.624 211.856C234.133 211.467 233.478 211.373 232.867 211.198C230.858 210.622 229.174 208.844 229.111 206.814C229.081 205.858 229.388 204.904 229.249 203.957C229.169 203.421 228.95 202.914 228.611 202.484C228.443 202.279 228.258 202.086 228.059 201.908C227.792 201.664 227.511 201.427 227.267 201.167C227.113 201.007 226.978 200.83 226.866 200.639C226.775 200.484 226.701 200.319 226.646 200.148C226.264 199.015 226.612 197.67 226.192 196.523L226.169 196.46C226.01 196.053 225.687 195.645 225.239 195.614C224.79 195.582 224.406 195.943 223.979 196.105C223.083 196.442 222.117 195.867 221.37 195.282C220.624 194.697 219.782 194.028 218.833 194.158C218.204 194.245 217.708 194.66 217.129 194.874C216.999 194.924 216.864 194.961 216.727 194.987C217.216 193.803 218.116 192.821 219.271 192.21C220.426 191.598 221.764 191.397 223.056 191.639C224.347 191.881 225.512 192.552 226.349 193.537C227.186 194.521 227.643 195.758 227.643 197.034C227.643 197.42 227.602 197.804 227.519 198.181C227.528 198.207 227.538 198.231 227.549 198.257C227.771 198.813 228.021 199.383 228.24 199.876L229.319 200.825C229.319 200.825 229.777 201.195 230.465 201.751C231.96 202.973 234.543 205.126 235.876 206.443C237.049 207.606 237.415 212.115 237.526 215.511Z" fill="black"/>
<path d="M217.063 191.49C217.336 190.951 217.471 190.347 217.798 189.836C218.277 189.095 219.113 188.621 219.973 188.333C222.216 187.583 226.957 186.494 228.374 188.333C228.653 188.704 228.884 189.115 229.27 189.371C229.564 189.565 229.919 189.649 230.242 189.795C231.145 190.206 231.721 191.103 232.029 192.018C232.336 192.933 232.428 193.915 232.653 194.858C232.941 196.067 233.447 197.214 233.952 198.353C234.545 199.698 235.175 201.093 236.321 202.044C237.885 203.34 238.231 205.176 239.682 206.599C241.4 208.288 241.345 211.076 240.459 213.29C240.342 213.581 240.211 213.885 240.256 214.194C240.302 214.503 240.539 214.785 240.762 215.031L241.702 216.059C239.479 216.58 236.965 215.454 235.93 213.477C235.611 212.866 235.399 212.162 234.853 211.726C234.364 211.337 233.707 211.245 233.098 211.071C231.089 210.493 229.405 208.712 229.342 206.682C229.312 205.728 229.619 204.774 229.48 203.829C229.402 203.29 229.182 202.779 228.84 202.347C228.315 201.682 227.522 201.236 227.095 200.495C226.371 199.256 226.921 197.646 226.4 196.316C226.239 195.908 225.919 195.501 225.47 195.469C225.021 195.438 224.637 195.799 224.208 195.96C223.314 196.297 222.348 195.725 221.601 195.138C220.855 194.55 220.013 193.883 219.062 194.015C218.434 194.1 217.939 194.515 217.361 194.732C216.933 194.891 216.066 195.034 215.692 194.684C214.901 193.978 216.732 192.15 217.063 191.49Z" fill="#591D4B"/>
<path opacity="0.1" d="M236.461 212.866C236.14 212.254 235.93 211.55 235.384 211.117C234.895 210.728 234.238 210.633 233.627 210.459C231.62 209.883 229.936 208.103 229.871 206.073C229.841 205.119 230.148 204.163 230.01 203.218C229.931 202.682 229.71 202.175 229.371 201.745C228.844 201.08 228.051 200.634 227.626 199.893C226.902 198.655 227.452 197.046 226.929 195.714C226.77 195.308 226.447 194.9 226.001 194.867C225.554 194.834 225.166 195.199 224.739 195.36C223.845 195.697 222.877 195.123 222.132 194.537C221.388 193.952 220.542 193.283 219.593 193.413C218.964 193.5 218.468 193.915 217.891 194.13C217.464 194.289 216.595 194.434 216.221 194.083C215.434 193.343 217.265 191.518 217.593 190.862C217.867 190.321 218.002 189.719 218.331 189.208C218.348 189.18 218.367 189.152 218.386 189.124C218.14 189.322 217.928 189.556 217.758 189.817C217.431 190.329 217.296 190.929 217.023 191.472C216.692 192.127 214.861 193.958 215.65 194.693C216.032 195.045 216.891 194.9 217.319 194.741C217.891 194.524 218.392 194.109 219.02 194.024C219.975 193.893 220.815 194.561 221.559 195.147C222.304 195.732 223.278 196.306 224.168 195.969C224.595 195.808 224.97 195.445 225.428 195.478C225.886 195.512 226.192 195.917 226.358 196.325C226.879 197.655 226.329 199.265 227.053 200.504C227.481 201.232 228.273 201.688 228.798 202.357C229.14 202.789 229.36 203.299 229.438 203.839C229.577 204.783 229.27 205.737 229.3 206.691C229.363 208.729 231.047 210.502 233.056 211.08C233.661 211.254 234.322 211.347 234.811 211.736C235.359 212.171 235.575 212.875 235.888 213.486C236.923 215.463 239.437 216.589 241.66 216.069L241.217 215.583C239.29 215.611 237.341 214.548 236.461 212.866Z" fill="black"/>
<path opacity="0.1" d="M223.297 204.411C223.047 204.781 222.331 206.678 221.733 208.335C221.174 208.123 220.666 206.777 220.666 206.777L223.648 202.66C223.954 203.068 223.753 203.744 223.297 204.411Z" fill="black"/>
<path d="M223.411 204.3C223.161 204.67 222.445 206.567 221.848 208.223C221.288 208.014 220.78 206.665 220.78 206.665L223.763 202.551C224.068 202.957 223.868 203.635 223.411 204.3Z" fill="#DCE7FF"/>
<path d="M206.07 223.225L204.416 218.166C204.397 218.106 204.389 218.044 204.395 217.982C204.4 217.92 204.418 217.86 204.448 217.804C204.477 217.749 204.517 217.7 204.566 217.66C204.615 217.62 204.672 217.59 204.733 217.571C204.856 217.534 204.99 217.545 205.104 217.603C205.219 217.66 205.305 217.759 205.344 217.878L206.998 222.932L206.834 223.99L206.07 223.225Z" fill="#BE8B87"/>
<path opacity="0.1" d="M204.573 217.721C204.696 217.683 204.83 217.694 204.945 217.752C205.06 217.81 205.146 217.909 205.186 218.028L206.839 223.082L206.715 223.875L206.836 223.997L207 222.939L205.337 217.886C205.297 217.767 205.211 217.668 205.096 217.61C204.982 217.552 204.849 217.541 204.726 217.578C204.622 217.611 204.533 217.676 204.472 217.764C204.504 217.747 204.538 217.732 204.573 217.721Z" fill="white"/>
<path d="M206.07 223.225L206.998 222.939L206.862 223.806L206.834 223.997L206.563 223.723L206.07 223.225Z" fill="#EFC8C4"/>
<path d="M206.563 223.723C206.579 223.703 206.599 223.687 206.622 223.675C206.635 223.667 206.651 223.662 206.667 223.662C206.683 223.662 206.698 223.667 206.712 223.675C206.725 223.69 206.735 223.707 206.744 223.725C206.757 223.745 206.774 223.763 206.794 223.776C206.815 223.789 206.838 223.798 206.862 223.801L206.834 223.986L206.563 223.723Z" fill="#727A9C"/>
<path d="M204.407 219.962C204.407 219.962 207.724 219.944 206.943 221.313C206.162 222.682 204.941 222.847 204.941 222.847L204.407 219.962Z" fill="#FFB0B1"/>
<path d="M183.779 158.525H183.636C177.938 158.525 172.899 161.45 170.001 165.767C167.102 161.45 162.063 158.525 156.366 158.525H156.222C151.946 158.565 147.859 160.24 144.849 163.187C141.839 166.133 140.149 170.113 140.147 174.262C140.147 179.414 142.472 186.724 147.007 192.739C155.648 204.2 170.001 214.227 170.001 214.227C170.001 214.227 184.354 204.202 192.992 192.739C197.529 186.724 199.853 179.414 199.853 174.262C199.851 170.114 198.161 166.134 195.151 163.187C192.142 160.241 188.055 158.565 183.779 158.525ZM181.73 193.62C181.082 193.618 180.449 193.425 179.915 193.068C179.381 192.71 178.971 192.204 178.738 191.616H175.332C175.108 191.615 174.889 191.545 174.708 191.418C174.526 191.29 174.39 191.111 174.318 190.905L173.272 187.846L169.961 199.07C169.896 199.286 169.761 199.476 169.576 199.612C169.391 199.747 169.165 199.82 168.933 199.821H168.867C168.625 199.809 168.394 199.718 168.213 199.561C168.033 199.405 167.913 199.193 167.874 198.961L164.462 179.051L161.968 190.832C161.911 191.056 161.778 191.255 161.591 191.397C161.403 191.539 161.172 191.616 160.935 191.616H156.136C155.993 191.622 155.849 191.6 155.714 191.55C155.58 191.501 155.457 191.426 155.353 191.329C155.249 191.232 155.166 191.116 155.109 190.988C155.053 190.859 155.024 190.721 155.024 190.581C155.024 190.442 155.053 190.303 155.109 190.175C155.166 190.047 155.249 189.93 155.353 189.834C155.457 189.737 155.58 189.662 155.714 189.613C155.849 189.563 155.993 189.541 156.136 189.547H160.095L163.627 173.706C163.685 173.472 163.825 173.265 164.023 173.12C164.221 172.975 164.465 172.901 164.713 172.911C164.961 172.921 165.198 173.014 165.383 173.175C165.568 173.335 165.69 173.553 165.727 173.792L169.212 194.102L172.179 184.06C172.241 183.848 172.372 183.662 172.552 183.528C172.732 183.395 172.952 183.321 173.178 183.319H173.199C173.423 183.319 173.642 183.388 173.824 183.515C174.006 183.643 174.141 183.823 174.211 184.03L176.103 189.552H178.696C178.881 189.009 179.216 188.526 179.666 188.155C180.116 187.785 180.662 187.543 181.245 187.455C181.827 187.367 182.424 187.437 182.968 187.657C183.512 187.878 183.983 188.239 184.329 188.703C184.674 189.166 184.881 189.713 184.927 190.284C184.972 190.854 184.854 191.426 184.586 191.935C184.318 192.445 183.91 192.872 183.407 193.171C182.904 193.47 182.326 193.628 181.736 193.628L181.73 193.62Z" fill="#E36414"/>
</g>
<defs>
<filter id="filter0_d_170:249" x="29" y="140" width="249.395" height="168.969" filterUnits="userSpaceOnUse" color-interpolation-filters="sRGB">
<feFlood flood-opacity="0" result="BackgroundImageFix"/>
<feColorMatrix in="SourceAlpha" type="matrix" values="0 0 0 0 0 0 0 0 0 0 0 0 0 0 0 0 0 0 127 0" result="hardAlpha"/>
<feOffset dy="2"/>
<feGaussianBlur stdDeviation="2"/>
<feComposite in2="hardAlpha" operator="out"/>
<feColorMatrix type="matrix" values="0 0 0 0 0 0 0 0 0 0 0 0 0 0 0 0 0 0 0.25 0"/>
<feBlend mode="normal" in2="BackgroundImageFix" result="effect1_dropShadow_170:249"/>
<feBlend mode="normal" in="SourceGraphic" in2="effect1_dropShadow_170:249" result="shape"/>
</filter>
<filter id="filter1_d_170:249" x="0" y="299" width="308" height="13.698" filterUnits="userSpaceOnUse" color-interpolation-filters="sRGB">
<feFlood flood-opacity="0" result="BackgroundImageFix"/>
<feColorMatrix in="SourceAlpha" type="matrix" values="0 0 0 0 0 0 0 0 0 0 0 0 0 0 0 0 0 0 127 0" result="hardAlpha"/>
<feOffset dy="2"/>
<feGaussianBlur stdDeviation="2"/>
<feComposite in2="hardAlpha" operator="out"/>
<feColorMatrix type="matrix" values="0 0 0 0 0 0 0 0 0 0 0 0 0 0 0 0 0 0 0.25 0"/>
<feBlend mode="normal" in2="BackgroundImageFix" result="effect1_dropShadow_170:249"/>
<feBlend mode="normal" in="SourceGraphic" in2="effect1_dropShadow_170:249" result="shape"/>
</filter>
<linearGradient id="paint0_linear_170:249" x1="117.039" y1="292.542" x2="117.039" y2="178.552" gradientUnits="userSpaceOnUse">
<stop stop-color="#808080" stop-opacity="0.25"/>
<stop offset="0.54" stop-color="#808080" stop-opacity="0.12"/>
<stop offset="1" stop-color="#808080" stop-opacity="0.1"/>
</linearGradient>
<linearGradient id="paint1_linear_170:249" x1="42670.5" y1="86155.7" x2="42670.5" y2="27643.8" gradientUnits="userSpaceOnUse">
<stop stop-color="#808080" stop-opacity="0.25"/>
<stop offset="0.54" stop-color="#808080" stop-opacity="0.12"/>
<stop offset="1" stop-color="#808080" stop-opacity="0.1"/>
</linearGradient>
<clipPath id="clip0_170:249">
<rect width="256" height="200" fill="white" transform="translate(281 21)"/>
</clipPath>
<clipPath id="clip1_170:249">
<rect width="211" height="145" fill="white" transform="translate(49 149)"/>
</clipPath>
</defs>
</svg>
