<svg width="72" height="72" viewBox="0 0 72 72" fill="none" xmlns="http://www.w3.org/2000/svg">
<mask id="path-1-inside-1" fill="white">
<path fill-rule="evenodd" clip-rule="evenodd" d="M70.3383 69.6989L36.6253 0.503902L0.240866 70.0778C7.48981 62.0505 20.8776 56.7729 36.1196 56.9899C50.4843 57.1945 63.0637 62.2304 70.3383 69.6989Z"/>
</mask>
<path d="M36.6253 0.503902L40.2212 -1.24809L36.7517 -8.36925L33.0808 -1.34977L36.6253 0.503902ZM70.3383 69.6989L67.473 72.4899L73.9343 67.947L70.3383 69.6989ZM0.240866 70.0778L-3.3037 68.2242L3.20957 72.7587L0.240866 70.0778ZM33.0294 2.25589L66.7424 71.4509L73.9343 67.947L40.2212 -1.24809L33.0294 2.25589ZM3.78543 71.9315L40.1699 2.35757L33.0808 -1.34977L-3.3037 68.2242L3.78543 71.9315ZM3.20957 72.7587C9.48689 65.8072 21.6358 60.7841 36.0627 60.9895L36.1766 52.9903C20.1194 52.7617 5.49273 58.2937 -2.72784 67.397L3.20957 72.7587ZM36.0627 60.9895C49.6352 61.1828 61.1051 65.9523 67.473 72.4899L73.2037 66.908C65.0223 58.5085 51.3334 53.2061 36.1766 52.9903L36.0627 60.9895Z" fill="black" mask="url(#path-1-inside-1)"/>
</svg>
