<svg width="10" height="7" viewBox="0 0 10 7" fill="none" xmlns="http://www.w3.org/2000/svg">
<path d="M9.45898 4.7998C9.45898 5.07324 9.40202 5.32959 9.28809 5.56885C9.18555 5.80811 9.04313 6.01888 8.86084 6.20117C8.68994 6.37207 8.48486 6.50879 8.24561 6.61133C8.00635 6.71387 7.75 6.76514 7.47656 6.76514C7.20312 6.76514 6.94678 6.71387 6.70752 6.61133C6.46826 6.50879 6.25749 6.37207 6.0752 6.20117C5.9043 6.01888 5.76758 5.80811 5.66504 5.56885C5.5625 5.32959 5.51123 5.07324 5.51123 4.7998C5.51123 4.34408 5.58529 3.92253 5.7334 3.53516C5.88151 3.13639 6.08089 2.76611 6.33154 2.42432C6.59359 2.08252 6.88981 1.76921 7.22021 1.48438C7.56201 1.19954 7.9152 0.943197 8.27979 0.715332L8.91211 1.26221C8.69564 1.45589 8.49626 1.70085 8.31396 1.99707C8.13167 2.29329 8.01204 2.58952 7.95508 2.88574C8.38802 2.98828 8.74691 3.22184 9.03174 3.58643C9.31657 3.93962 9.45898 4.34408 9.45898 4.7998ZM4.2124 4.7998C4.2124 5.07324 4.15544 5.32959 4.0415 5.56885C3.93896 5.80811 3.79655 6.01888 3.61426 6.20117C3.44336 6.37207 3.23258 6.50879 2.98193 6.61133C2.74268 6.71387 2.48633 6.76514 2.21289 6.76514C1.93945 6.76514 1.68311 6.71387 1.44385 6.61133C1.21598 6.50879 1.0109 6.37207 0.828613 6.20117C0.657715 6.01888 0.520996 5.80811 0.418457 5.56885C0.315918 5.32959 0.264648 5.07324 0.264648 4.7998C0.264648 4.34408 0.338704 3.92253 0.486816 3.53516C0.634928 3.13639 0.83431 2.76611 1.08496 2.42432C1.34701 2.08252 1.64323 1.76921 1.97363 1.48438C2.31543 1.19954 2.66862 0.943197 3.0332 0.715332L3.64844 1.26221C3.44336 1.45589 3.24967 1.70085 3.06738 1.99707C2.88509 2.29329 2.76546 2.58952 2.7085 2.88574C3.14144 2.98828 3.50033 3.22184 3.78516 3.58643C4.06999 3.93962 4.2124 4.34408 4.2124 4.7998Z" fill="#F9844A"/>
</svg>
