<svg width="64" height="44" viewBox="0 0 64 44" fill="none" xmlns="http://www.w3.org/2000/svg">
<path d="M28.285 17.145C28.285 21.747 27.577 25.759 26.161 29.181C24.745 32.485 22.916 35.258 20.674 37.5C18.432 39.624 15.836 41.217 12.886 42.279C10.054 43.223 7.222 43.695 4.39 43.695V37.5C7.458 37.5 10.29 36.497 12.886 34.491C15.6 32.367 17.193 29.535 17.665 25.995C17.311 26.231 16.898 26.408 16.426 26.526C15.482 26.762 14.42 26.88 13.24 26.88C9.7 26.88 6.75 25.582 4.39 22.986C2.03 20.272 0.85 17.145 0.85 13.605C0.85 10.065 2.03 6.997 4.39 4.40099C6.868 1.68699 10.113 0.329993 14.125 0.329993C18.609 0.329993 22.09 2.04099 24.568 5.46299C27.046 8.76699 28.285 12.661 28.285 17.145ZM63.685 17.145C63.685 21.747 62.977 25.759 61.561 29.181C60.145 32.485 58.316 35.258 56.074 37.5C53.832 39.624 51.236 41.217 48.286 42.279C45.454 43.223 42.622 43.695 39.79 43.695V37.5C42.858 37.5 45.69 36.497 48.286 34.491C51 32.367 52.593 29.535 53.065 25.995C52.711 26.231 52.298 26.408 51.826 26.526C50.882 26.762 49.82 26.88 48.64 26.88C45.1 26.88 42.15 25.582 39.79 22.986C37.43 20.272 36.25 17.145 36.25 13.605C36.25 10.065 37.43 6.997 39.79 4.40099C42.268 1.68699 45.513 0.329993 49.525 0.329993C54.009 0.329993 57.49 2.04099 59.968 5.46299C62.446 8.76699 63.685 12.661 63.685 17.145Z" fill="white"/>
</svg>
