<svg width="1050" height="872" viewBox="0 0 1050 872" fill="none" xmlns="http://www.w3.org/2000/svg">
<path d="M337.859 135.689H335.717V259.781H337.859V135.689Z" fill="#3F3D56"/>
<path d="M337.859 296.719H335.717V405.907H337.859V296.719Z" fill="#3F3D56"/>
<path d="M498.493 423.303H332.505V425.623H498.493V423.303Z" fill="#3F3D56"/>
<path d="M263.968 454.616H261.826V553.194H263.968V454.616Z" fill="#3F3D56"/>
<path d="M532.761 570.59H281.102V572.909H532.761V570.59Z" fill="#3F3D56"/>
<path d="M742.655 56.8269H740.514V173.96H742.655V56.8269Z" fill="#3F3D56"/>
<path d="M724.45 192.516H566.993V194.835H724.45V192.516Z" fill="#3F3D56"/>
<path d="M550.966 211.072H548.824V367.636H550.966V211.072Z" fill="#3F3D56"/>
<path d="M336.788 298.052C333.188 298.052 329.668 296.896 326.674 294.729C323.68 292.563 321.347 289.484 319.969 285.881C318.591 282.279 318.23 278.315 318.933 274.49C319.635 270.666 321.369 267.153 323.915 264.396C326.461 261.638 329.705 259.761 333.236 259C336.768 258.239 340.428 258.63 343.755 260.122C347.081 261.614 349.925 264.141 351.925 267.383C353.926 270.625 354.993 274.437 354.993 278.336C354.988 283.564 353.068 288.575 349.655 292.271C346.242 295.967 341.615 298.046 336.788 298.052V298.052ZM336.788 260.94C333.611 260.94 330.505 261.961 327.864 263.872C325.222 265.784 323.163 268.501 321.948 271.679C320.732 274.858 320.414 278.356 321.033 281.73C321.653 285.105 323.183 288.204 325.43 290.637C327.676 293.07 330.538 294.727 333.654 295.398C336.77 296.069 340 295.725 342.935 294.408C345.87 293.092 348.379 290.862 350.144 288.001C351.909 285.14 352.851 281.777 352.851 278.336C352.847 273.724 351.153 269.303 348.141 266.041C345.13 262.78 341.047 260.946 336.788 260.94V260.94Z" fill="#3F3D56"/>
<path d="M263.968 591.465C260.367 591.465 256.847 590.309 253.854 588.143C250.86 585.976 248.526 582.897 247.148 579.294C245.771 575.692 245.41 571.728 246.113 567.903C246.815 564.079 248.549 560.566 251.095 557.809C253.641 555.051 256.885 553.174 260.416 552.413C263.948 551.652 267.608 552.043 270.935 553.535C274.261 555.027 277.104 557.554 279.105 560.796C281.105 564.039 282.173 567.85 282.173 571.75C282.168 576.977 280.248 581.988 276.835 585.684C273.422 589.38 268.794 591.459 263.968 591.465V591.465ZM263.968 554.354C260.791 554.354 257.685 555.374 255.044 557.285C252.402 559.197 250.343 561.914 249.127 565.093C247.911 568.271 247.593 571.769 248.213 575.144C248.833 578.518 250.363 581.618 252.609 584.051C254.856 586.483 257.718 588.14 260.834 588.811C263.95 589.483 267.18 589.138 270.115 587.822C273.05 586.505 275.559 584.275 277.324 581.414C279.089 578.554 280.031 575.19 280.031 571.75C280.026 567.138 278.333 562.716 275.321 559.455C272.31 556.193 268.227 554.359 263.968 554.354V554.354Z" fill="#3F3D56"/>
<path d="M337.859 443.019C347.322 443.019 354.993 434.711 354.993 424.463C354.993 414.215 347.322 405.908 337.859 405.908C328.396 405.908 320.725 414.215 320.725 424.463C320.725 434.711 328.396 443.019 337.859 443.019Z" fill="#9747FF"/>
<path d="M957.904 277.177H780.136V279.496H957.904V277.177Z" fill="#3F3D56"/>
<path d="M764.073 296.719H761.931V405.907H764.073V296.719Z" fill="#3F3D56"/>
<path d="M744.797 423.303H602.369V425.623H744.797V423.303Z" fill="#3F3D56"/>
<path d="M1000.74 433.741H852.957V436.061H1000.74V433.741Z" fill="#3F3D56"/>
<path d="M837.964 454.616H835.822V553.194H837.964V454.616Z" fill="#3F3D56"/>
<path d="M818.688 570.59H567.029V572.909H818.688V570.59Z" fill="#3F3D56"/>
<path d="M550.966 481.29H548.824V553.194H550.966V481.29Z" fill="#3F3D56"/>
<path d="M763.002 296.892C772.465 296.892 780.136 288.585 780.136 278.337C780.136 268.088 772.465 259.781 763.002 259.781C753.539 259.781 745.868 268.088 745.868 278.337C745.868 288.585 753.539 296.892 763.002 296.892Z" fill="#9747FF"/>
<path d="M741.584 212.232C737.983 212.232 734.464 211.075 731.47 208.909C728.476 206.743 726.143 203.663 724.765 200.061C723.387 196.458 723.026 192.494 723.729 188.67C724.431 184.845 726.165 181.332 728.711 178.575C731.257 175.818 734.501 173.94 738.032 173.179C741.564 172.419 745.224 172.809 748.551 174.301C751.877 175.794 754.721 178.321 756.721 181.563C758.721 184.805 759.789 188.617 759.789 192.516C759.784 197.743 757.864 202.754 754.451 206.451C751.038 210.147 746.411 212.226 741.584 212.232V212.232ZM741.584 175.12C738.407 175.12 735.301 176.14 732.66 178.052C730.018 179.963 727.959 182.68 726.743 185.859C725.528 189.038 725.21 192.535 725.829 195.91C726.449 199.284 727.979 202.384 730.226 204.817C732.472 207.25 735.334 208.907 738.45 209.578C741.566 210.249 744.796 209.905 747.731 208.588C750.666 207.271 753.175 205.042 754.94 202.181C756.705 199.32 757.647 195.957 757.647 192.516C757.643 187.904 755.949 183.482 752.937 180.221C749.926 176.96 745.843 175.125 741.584 175.12V175.12Z" fill="#3F3D56"/>
<path d="M549.895 212.232C546.294 212.232 542.775 211.075 539.781 208.909C536.787 206.743 534.454 203.663 533.076 200.061C531.698 196.458 531.337 192.494 532.04 188.67C532.742 184.845 534.476 181.332 537.022 178.575C539.568 175.818 542.812 173.94 546.343 173.179C549.875 172.419 553.535 172.809 556.862 174.301C560.188 175.794 563.032 178.321 565.032 181.563C567.032 184.805 568.1 188.617 568.1 192.516C568.095 197.743 566.175 202.754 562.762 206.451C559.349 210.147 554.722 212.226 549.895 212.232V212.232ZM549.895 175.12C546.718 175.12 543.612 176.14 540.971 178.052C538.329 179.963 536.27 182.68 535.055 185.859C533.839 189.038 533.521 192.535 534.14 195.91C534.76 199.284 536.29 202.384 538.537 204.817C540.783 207.25 543.645 208.907 546.761 209.578C549.877 210.249 553.107 209.905 556.042 208.588C558.977 207.271 561.486 205.042 563.251 202.181C565.016 199.32 565.958 195.957 565.958 192.516C565.954 187.904 564.26 183.482 561.248 180.221C558.237 176.96 554.154 175.125 549.895 175.12V175.12Z" fill="#3F3D56"/>
<path d="M835.822 455.776C832.222 455.776 828.702 454.62 825.708 452.453C822.714 450.287 820.381 447.208 819.003 443.605C817.625 440.003 817.265 436.039 817.967 432.214C818.669 428.39 820.403 424.877 822.949 422.12C825.495 419.362 828.739 417.485 832.271 416.724C835.802 415.963 839.463 416.354 842.789 417.846C846.116 419.338 848.959 421.865 850.959 425.107C852.96 428.349 854.027 432.161 854.027 436.06C854.022 441.288 852.102 446.299 848.689 449.995C845.276 453.691 840.649 455.77 835.822 455.776V455.776ZM835.822 418.664C832.645 418.664 829.54 419.685 826.898 421.596C824.256 423.508 822.198 426.225 820.982 429.403C819.766 432.582 819.448 436.08 820.068 439.454C820.687 442.829 822.217 445.928 824.464 448.361C826.71 450.794 829.573 452.451 832.689 453.122C835.805 453.794 839.034 453.449 841.97 452.132C844.905 450.816 847.413 448.586 849.178 445.725C850.944 442.864 851.886 439.501 851.886 436.06C851.881 431.448 850.187 427.027 847.176 423.765C844.164 420.504 840.081 418.67 835.822 418.664V418.664Z" fill="#3F3D56"/>
<path d="M835.822 590.306C845.285 590.306 852.956 581.998 852.956 571.75C852.956 561.502 845.285 553.194 835.822 553.194C826.359 553.194 818.688 561.502 818.688 571.75C818.688 581.998 826.359 590.306 835.822 590.306Z" fill="#9747FF"/>
<path d="M549.895 591.465C546.294 591.465 542.775 590.309 539.781 588.143C536.787 585.976 534.454 582.897 533.076 579.294C531.698 575.692 531.337 571.728 532.04 567.903C532.742 564.079 534.476 560.566 537.022 557.809C539.568 555.051 542.812 553.174 546.343 552.413C549.875 551.652 553.535 552.043 556.862 553.535C560.188 555.027 563.032 557.554 565.032 560.796C567.032 564.039 568.1 567.85 568.1 571.75C568.095 576.977 566.175 581.988 562.762 585.684C559.349 589.38 554.722 591.459 549.895 591.465V591.465ZM549.895 554.354C546.718 554.354 543.612 555.374 540.971 557.285C538.329 559.197 536.27 561.914 535.055 565.093C533.839 568.271 533.521 571.769 534.14 575.144C534.76 578.518 536.29 581.618 538.537 584.051C540.783 586.483 543.645 588.14 546.761 588.811C549.877 589.483 553.107 589.138 556.042 587.822C558.977 586.505 561.486 584.275 563.251 581.414C565.016 578.554 565.958 575.19 565.958 571.75C565.954 567.138 564.26 562.716 561.248 559.455C558.237 556.193 554.154 554.359 549.895 554.354V554.354Z" fill="#3F3D56"/>
<path d="M761.931 444.179C758.331 444.179 754.811 443.022 751.817 440.856C748.823 438.69 746.49 435.611 745.112 432.008C743.734 428.405 743.373 424.441 744.076 420.617C744.778 416.792 746.512 413.279 749.058 410.522C751.604 407.765 754.848 405.887 758.38 405.127C761.911 404.366 765.571 404.756 768.898 406.248C772.225 407.741 775.068 410.268 777.068 413.51C779.069 416.752 780.136 420.564 780.136 424.463C780.131 429.69 778.211 434.702 774.798 438.398C771.385 442.094 766.758 444.173 761.931 444.179V444.179ZM761.931 407.067C758.754 407.067 755.648 408.087 753.007 409.999C750.365 411.91 748.306 414.627 747.091 417.806C745.875 420.985 745.557 424.482 746.176 427.857C746.796 431.231 748.326 434.331 750.573 436.764C752.819 439.197 755.681 440.854 758.797 441.525C761.913 442.196 765.143 441.852 768.078 440.535C771.014 439.218 773.522 436.989 775.287 434.128C777.052 431.267 777.995 427.904 777.995 424.463C777.99 419.851 776.296 415.429 773.285 412.168C770.273 408.907 766.19 407.072 761.931 407.067V407.067Z" fill="#3F3D56"/>
<path d="M263.968 396.63C259.732 396.63 255.591 397.99 252.069 400.539C248.546 403.087 245.801 406.71 244.18 410.948C242.559 415.186 242.135 419.85 242.961 424.349C243.788 428.849 245.828 432.982 248.823 436.226C251.818 439.469 255.635 441.678 259.789 442.573C263.944 443.468 268.25 443.009 272.164 441.254C276.077 439.498 279.422 436.525 281.776 432.711C284.129 428.896 285.385 424.412 285.385 419.824C285.369 413.678 283.107 407.789 279.094 403.443C275.081 399.097 269.643 396.648 263.968 396.63V396.63ZM263.968 403.588C265.238 403.588 266.481 403.996 267.537 404.761C268.594 405.525 269.417 406.612 269.904 407.884C270.39 409.155 270.517 410.554 270.269 411.904C270.022 413.254 269.41 414.494 268.511 415.467C267.612 416.44 266.467 417.103 265.221 417.371C263.975 417.64 262.683 417.502 261.509 416.975C260.335 416.449 259.331 415.557 258.625 414.412C257.919 413.268 257.542 411.923 257.542 410.546C257.548 408.703 258.227 406.937 259.43 405.633C260.634 404.329 262.265 403.594 263.968 403.588V403.588ZM263.968 437.087C261.429 437.074 258.932 436.391 256.693 435.097C254.454 433.803 252.54 431.936 251.117 429.66C251.22 425.021 259.684 422.467 263.968 422.467C268.251 422.467 276.715 425.021 276.818 429.66C275.394 431.935 273.48 433.8 271.241 435.094C269.002 436.388 266.505 437.072 263.968 437.087V437.087Z" fill="#3F3D56"/>
<path d="M337.859 80.0217C333.623 80.0217 329.482 81.3821 325.96 83.9307C322.438 86.4794 319.693 90.1019 318.072 94.3402C316.451 98.5785 316.027 103.242 316.853 107.742C317.679 112.241 319.719 116.374 322.715 119.618C325.71 122.861 329.526 125.071 333.681 125.965C337.835 126.86 342.142 126.401 346.055 124.646C349.969 122.89 353.314 119.917 355.667 116.103C358.021 112.288 359.277 107.804 359.277 103.216C359.26 97.0704 356.998 91.1811 352.985 86.8352C348.972 82.4892 343.534 80.0397 337.859 80.0217V80.0217ZM337.859 86.9801C339.13 86.9801 340.372 87.3883 341.429 88.1529C342.486 88.9175 343.309 90.0042 343.795 91.2757C344.282 92.5472 344.409 93.9463 344.161 95.2961C343.913 96.6459 343.301 97.8858 342.403 98.8589C341.504 99.8321 340.359 100.495 339.113 100.763C337.866 101.032 336.574 100.894 335.4 100.367C334.226 99.8406 333.223 98.9488 332.517 97.8044C331.811 96.6601 331.434 95.3148 331.434 93.9386C331.44 92.095 332.118 90.3286 333.322 89.025C334.526 87.7214 336.157 86.9863 337.859 86.9801V86.9801ZM337.859 120.479C335.321 120.466 332.824 119.783 330.584 118.489C328.345 117.195 326.431 115.328 325.009 113.052C325.111 108.413 333.576 105.859 337.859 105.859C342.143 105.859 350.607 108.413 350.71 113.052C349.286 115.327 347.371 117.192 345.132 118.486C342.893 119.78 340.397 120.464 337.859 120.479V120.479Z" fill="#3F3D56"/>
<path d="M741.584 0C737.348 0 733.207 1.36035 729.685 3.90902C726.163 6.45769 723.417 10.0802 721.796 14.3185C720.175 18.5568 719.751 23.2205 720.578 27.7198C721.404 32.2191 723.444 36.352 726.439 39.5959C729.434 42.8397 733.251 45.0488 737.405 45.9438C741.56 46.8387 745.866 46.3794 749.78 44.6238C753.694 42.8683 757.039 39.8954 759.392 36.081C761.745 32.2667 763.002 27.7822 763.002 23.1947C762.985 17.0486 760.723 11.1594 756.71 6.81345C752.697 2.46749 747.259 0.0179903 741.584 0V0ZM741.584 6.95842C742.855 6.95842 744.097 7.36652 745.153 8.13112C746.21 8.89572 747.034 9.98248 747.52 11.254C748.006 12.5254 748.134 13.9246 747.886 15.2744C747.638 16.6242 747.026 17.864 746.127 18.8372C745.229 19.8103 744.084 20.4731 742.837 20.7415C741.591 21.01 740.299 20.8722 739.125 20.3456C737.951 19.8189 736.947 18.927 736.241 17.7827C735.535 16.6384 735.158 15.2931 735.158 13.9168C735.164 12.0732 735.843 10.3069 737.047 9.00329C738.25 7.69966 739.881 6.96457 741.584 6.95842V6.95842ZM741.584 40.4569C739.046 40.4444 736.548 39.7614 734.309 38.4672C732.07 37.173 730.156 35.3067 728.733 33.0302C728.836 28.3912 737.3 25.8376 741.584 25.8376C745.867 25.8376 754.331 28.3912 754.434 33.0302C753.01 35.305 751.096 37.17 748.857 38.464C746.618 39.758 744.122 40.442 741.584 40.4569Z" fill="#3F3D56"/>
<path d="M987.889 253.982C983.652 253.982 979.512 255.343 975.989 257.891C972.467 260.44 969.722 264.062 968.101 268.301C966.48 272.539 966.056 277.203 966.882 281.702C967.709 286.201 969.749 290.334 972.744 293.578C975.739 296.822 979.555 299.031 983.71 299.926C987.865 300.821 992.171 300.362 996.085 298.606C999.998 296.85 1003.34 293.878 1005.7 290.063C1008.05 286.249 1009.31 281.764 1009.31 277.177C1009.29 271.031 1007.03 265.142 1003.01 260.796C999.002 256.45 993.564 254 987.889 253.982ZM987.889 260.941C989.159 260.941 990.402 261.349 991.458 262.113C992.515 262.878 993.338 263.965 993.825 265.236C994.311 266.508 994.438 267.907 994.19 269.257C993.942 270.606 993.33 271.846 992.432 272.819C991.533 273.793 990.388 274.455 989.142 274.724C987.896 274.992 986.604 274.854 985.43 274.328C984.256 273.801 983.252 272.909 982.546 271.765C981.84 270.621 981.463 269.275 981.463 267.899C981.469 266.055 982.148 264.289 983.351 262.985C984.555 261.682 986.186 260.947 987.889 260.941ZM987.889 294.439C985.35 294.427 982.853 293.744 980.614 292.449C978.374 291.155 976.46 289.289 975.038 287.012C975.141 282.373 983.605 279.82 987.889 279.82C992.172 279.82 1000.64 282.373 1000.74 287.012C999.315 289.287 997.401 291.152 995.162 292.446C992.923 293.74 990.426 294.424 987.889 294.439V294.439Z" fill="#3F3D56"/>
<path d="M1028.58 410.547C1024.35 410.547 1020.21 411.907 1016.68 414.456C1013.16 417.004 1010.42 420.627 1008.79 424.865C1007.17 429.103 1006.75 433.767 1007.58 438.266C1008.4 442.766 1010.44 446.899 1013.44 450.142C1016.43 453.386 1020.25 455.595 1024.4 456.49C1028.56 457.385 1032.87 456.926 1036.78 455.17C1040.69 453.415 1044.04 450.442 1046.39 446.628C1048.74 442.813 1050 438.329 1050 433.741C1049.98 427.595 1047.72 421.706 1043.71 417.36C1039.7 413.014 1034.26 410.564 1028.58 410.547V410.547ZM1028.58 417.505C1029.85 417.505 1031.1 417.913 1032.15 418.678C1033.21 419.442 1034.03 420.529 1034.52 421.8C1035 423.072 1035.13 424.471 1034.88 425.821C1034.64 427.171 1034.02 428.411 1033.13 429.384C1032.23 430.357 1031.08 431.02 1029.84 431.288C1028.59 431.557 1027.3 431.419 1026.12 430.892C1024.95 430.365 1023.95 429.474 1023.24 428.329C1022.53 427.185 1022.16 425.84 1022.16 424.463C1022.16 422.62 1022.84 420.853 1024.05 419.55C1025.25 418.246 1026.88 417.511 1028.58 417.505V417.505ZM1028.58 451.003C1026.04 450.991 1023.55 450.308 1021.31 449.014C1019.07 447.72 1017.15 445.853 1015.73 443.577C1015.83 438.938 1024.3 436.384 1028.58 436.384C1032.87 436.384 1041.33 438.938 1041.43 443.577C1040.01 445.852 1038.09 447.717 1035.86 449.011C1033.62 450.305 1031.12 450.989 1028.58 451.003V451.003Z" fill="#3F3D56"/>
<path d="M162.775 850.427C159.728 880.437 -0.242131 877.918 0.000275214 850.426C3.04736 820.418 163.017 822.937 162.775 850.427Z" fill="#E6E6E6"/>
<path d="M111.109 774.885L117.594 790.1L129.482 788.93L137.048 762.009L125.159 754.987L111.109 774.885Z" fill="#FFB8B8"/>
<path d="M70.295 809.928L70.0391 820.532L88.4123 821.702V808.828L70.295 809.928Z" fill="#FFB8B8"/>
<path d="M76.5233 616.873L80.8465 710.509L70.0391 812.338L102.462 817.02L122.998 688.271L129.482 600.486L76.5233 616.873Z" fill="#2F2E41"/>
<path d="M25.7266 582.929C25.7266 582.929 12.7572 675.395 39.7769 705.827C66.7966 736.259 103.543 790.1 103.543 790.1L129.482 754.986L63.5542 678.907L76.5237 627.407L129.482 600.486L120.836 536.111L43.0192 534.94L25.7266 582.929Z" fill="#2F2E41"/>
<path d="M89.4932 368.736C102.625 368.736 113.271 357.207 113.271 342.986C113.271 328.764 102.625 317.235 89.4932 317.235C76.3613 317.235 65.7158 328.764 65.7158 342.986C65.7158 357.207 76.3613 368.736 89.4932 368.736Z" fill="#FFB8B8"/>
<path d="M68.9586 348.838C68.9586 348.838 67.8777 385.122 62.4738 389.804C57.0699 394.486 81.928 414.383 81.928 414.383L98.1399 386.292V360.542L68.9586 348.838Z" fill="#FFB8B8"/>
<path d="M79.7661 397.997L66.6445 376.54L59.2308 387.463L48.4233 420.236L57.0697 547.815L107.866 548.985L114.352 402.679L98.1394 381.611L79.7661 397.997Z" fill="#D0CDE1"/>
<path d="M134.887 406.19L143.533 405.02C143.533 405.02 145.695 406.19 146.776 414.383C147.856 422.577 160.826 495.145 160.826 495.145L143.533 584.1L124.079 556.009L135.968 506.849L124.079 457.69L134.887 406.19Z" fill="#2F2E41"/>
<path d="M24.6466 405.019H18.1613L1.9502 499.827L17.0808 573.566L32.2114 546.645L27.8882 517.384L30.0503 491.634L37.6161 476.417L24.6466 405.019Z" fill="#2F2E41"/>
<path d="M120.836 785.418C120.836 785.418 114.352 783.077 114.352 787.759C114.352 792.441 118.675 806.486 118.675 806.486C118.675 806.486 112.19 849.793 121.917 847.452C131.644 845.112 139.21 825.214 140.291 819.361C141.371 813.509 146.775 783.077 146.775 783.077C146.775 783.077 155.422 760.839 150.018 759.668C144.614 758.498 129.483 753.816 129.483 753.816C129.483 753.816 138.129 783.077 120.836 785.418Z" fill="#2F2E41"/>
<path d="M89.4938 821.702C89.4938 821.702 72.2012 809.998 68.9588 819.361C66.8084 826.191 65.3586 833.256 64.6356 840.43C64.6356 840.43 60.3125 855.646 77.6051 853.305C94.8977 850.964 92.7361 850.964 93.8169 843.941C94.8977 836.918 89.4938 821.702 89.4938 821.702Z" fill="#2F2E41"/>
<path d="M75.4432 342.985L79.7664 341.815C79.7664 341.815 83.0088 321.917 90.5743 324.258C98.1398 326.599 117.594 328.94 117.594 319.576C117.594 310.213 99.2206 302.019 88.4127 303.19C77.6049 304.36 59.2314 307.872 60.3122 325.429C61.393 342.985 68.3671 360.065 68.3671 360.065L68.9304 349.655L75.4432 342.985Z" fill="#2F2E41"/>
<path d="M98.1394 412.043L79.7661 397.997L98.1394 381.611L104.519 389.9L98.1394 412.043Z" fill="#D0CDE1"/>
<path d="M63.5541 410.872L79.7663 397.997L66.7968 376.929L59.231 387.463L63.5541 410.872Z" fill="#D0CDE1"/>
<path d="M142.452 405.02L107.867 389.804L99.7609 383.366L75.4431 499.827L59.2313 447.156L64.0948 379.855L19.2421 405.02L34.3732 484.611L36.5348 515.043L30.05 539.622C30.05 539.622 7.35346 557.179 14.919 575.906C22.4845 594.634 31.1308 595.804 31.1308 595.804C31.1308 595.804 67.8776 558.35 70.0392 548.986C72.2008 539.622 75.4431 523.236 75.4431 523.236C75.4431 523.236 93.8166 598.145 115.432 596.975C137.048 595.804 137.048 571.225 137.048 571.225L131.644 545.475L122.998 518.554L127.321 474.077L142.452 405.02Z" fill="#2F2E41"/>
<path d="M594 423.5C594 447.524 574.524 467 550.5 467C526.476 467 507 447.524 507 423.5C507 399.476 526.476 380 550.5 380C574.524 380 594 399.476 594 423.5Z" fill="#9747FF"/>
<path fill-rule="evenodd" clip-rule="evenodd" d="M572.729 444.48L551.698 401.314L529 444.717C533.522 439.709 541.874 436.417 551.382 436.552C560.343 436.68 568.191 439.821 572.729 444.48Z" fill="white"/>
</svg>
