<svg width="64" height="44" viewBox="0 0 64 44" fill="none" xmlns="http://www.w3.org/2000/svg">
<path d="M36.25 26.88C36.25 22.278 36.958 18.325 38.374 15.021C39.79 11.599 41.619 8.826 43.861 6.702C46.103 4.46 48.64 2.867 51.472 1.92299C54.422 0.860993 57.313 0.329993 60.145 0.329993V6.525C57.077 6.525 54.186 7.587 51.472 9.711C48.876 11.717 47.342 14.49 46.87 18.03C47.224 17.912 47.637 17.794 48.109 17.676C48.463 17.558 48.876 17.44 49.348 17.322C49.938 17.204 50.587 17.145 51.295 17.145C54.835 17.145 57.785 18.502 60.145 21.216C62.505 23.812 63.685 26.88 63.685 30.42C63.685 33.96 62.446 37.087 59.968 39.801C57.608 42.397 54.422 43.695 50.41 43.695C45.926 43.695 42.445 42.043 39.967 38.739C37.489 35.317 36.25 31.364 36.25 26.88ZM0.85 26.88C0.85 22.278 1.558 18.325 2.974 15.021C4.39 11.599 6.219 8.826 8.461 6.702C10.703 4.46 13.24 2.867 16.072 1.92299C19.022 0.860993 21.913 0.329993 24.745 0.329993V6.525C21.677 6.525 18.786 7.587 16.072 9.711C13.476 11.717 11.942 14.49 11.47 18.03C11.824 17.912 12.237 17.794 12.709 17.676C13.063 17.558 13.476 17.44 13.948 17.322C14.538 17.204 15.187 17.145 15.895 17.145C19.435 17.145 22.385 18.502 24.745 21.216C27.105 23.812 28.285 26.88 28.285 30.42C28.285 33.96 27.046 37.087 24.568 39.801C22.208 42.397 19.022 43.695 15.01 43.695C10.526 43.695 7.045 42.043 4.567 38.739C2.089 35.317 0.85 31.364 0.85 26.88Z" fill="white"/>
</svg>
